ISO-10303-21;
HEADER;
FILE_DESCRIPTION(('KiCad electronic assembly'),'2;1');
FILE_NAME('core_faceplate.step','2026-03-03T14:29:38',('Pcbnew'),(
    'Kicad'),'Open CASCADE STEP processor 7.8','KiCad to STEP converter'
  ,'Unknown');
FILE_SCHEMA(('AUTOMOTIVE_DESIGN { 1 0 10303 214 1 1 1 1 }'));
ENDSEC;
DATA;
#1 = APPLICATION_PROTOCOL_DEFINITION('international standard',
  'automotive_design',2000,#2);
#2 = APPLICATION_CONTEXT(
  'core data for automotive mechanical design processes');
#3 = SHAPE_DEFINITION_REPRESENTATION(#4,#10);
#4 = PRODUCT_DEFINITION_SHAPE('','',#5);
#5 = PRODUCT_DEFINITION('design','',#6,#9);
#6 = PRODUCT_DEFINITION_FORMATION('','',#7);
#7 = PRODUCT('core_faceplate 1','core_faceplate 1','',(#8));
#8 = PRODUCT_CONTEXT('',#2,'mechanical');
#9 = PRODUCT_DEFINITION_CONTEXT('part definition',#2,'design');
#10 = SHAPE_REPRESENTATION('',(#11,#15),#19);
#11 = AXIS2_PLACEMENT_3D('',#12,#13,#14);
#12 = CARTESIAN_POINT('',(0.,0.,0.));
#13 = DIRECTION('',(0.,0.,1.));
#14 = DIRECTION('',(1.,0.,-0.));
#15 = AXIS2_PLACEMENT_3D('',#16,#17,#18);
#16 = CARTESIAN_POINT('',(0.,0.,0.));
#17 = DIRECTION('',(0.,0.,1.));
#18 = DIRECTION('',(1.,0.,-0.));
#19 = ( GEOMETRIC_REPRESENTATION_CONTEXT(3) 
GLOBAL_UNCERTAINTY_ASSIGNED_CONTEXT((#23)) GLOBAL_UNIT_ASSIGNED_CONTEXT(
(#20,#21,#22)) REPRESENTATION_CONTEXT('Context #1',
  '3D Context with UNIT and UNCERTAINTY') );
#20 = ( LENGTH_UNIT() NAMED_UNIT(*) SI_UNIT(.MILLI.,.METRE.) );
#21 = ( NAMED_UNIT(*) PLANE_ANGLE_UNIT() SI_UNIT($,.RADIAN.) );
#22 = ( NAMED_UNIT(*) SI_UNIT($,.STERADIAN.) SOLID_ANGLE_UNIT() );
#23 = UNCERTAINTY_MEASURE_WITH_UNIT(LENGTH_MEASURE(1.E-07),#20,
  'distance_accuracy_value','confusion accuracy');
#24 = PRODUCT_RELATED_PRODUCT_CATEGORY('part',$,(#7));
#25 = SHAPE_DEFINITION_REPRESENTATION(#26,#32);
#26 = PRODUCT_DEFINITION_SHAPE('','',#27);
#27 = PRODUCT_DEFINITION('design','',#28,#31);
#28 = PRODUCT_DEFINITION_FORMATION('','',#29);
#29 = PRODUCT('core_faceplate_PCB','core_faceplate_PCB','',(#30));
#30 = PRODUCT_CONTEXT('',#2,'mechanical');
#31 = PRODUCT_DEFINITION_CONTEXT('part definition',#2,'design');
#32 = ADVANCED_BREP_SHAPE_REPRESENTATION('',(#11,#33),#1109);
#33 = MANIFOLD_SOLID_BREP('',#34);
#34 = CLOSED_SHELL('',(#35,#77,#108,#139,#397,#655,#672,#689,#706,#723,
    #735,#752,#769,#786,#803,#825,#842,#859,#876,#893,#910,#927,#939,
    #956,#978,#995,#1012,#1029,#1046,#1063,#1080,#1092));
#35 = ADVANCED_FACE('',(#36),#72,.T.);
#36 = FACE_BOUND('',#37,.T.);
#37 = EDGE_LOOP('',(#38,#48,#57,#65));
#38 = ORIENTED_EDGE('',*,*,#39,.T.);
#39 = EDGE_CURVE('',#40,#42,#44,.T.);
#40 = VERTEX_POINT('',#41);
#41 = CARTESIAN_POINT('',(126.6,-25.4,0.));
#42 = VERTEX_POINT('',#43);
#43 = CARTESIAN_POINT('',(126.6,-25.4,1.510198));
#44 = LINE('',#45,#46);
#45 = CARTESIAN_POINT('',(126.6,-25.4,0.));
#46 = VECTOR('',#47,1.);
#47 = DIRECTION('',(0.,0.,1.));
#48 = ORIENTED_EDGE('',*,*,#49,.T.);
#49 = EDGE_CURVE('',#42,#50,#52,.T.);
#50 = VERTEX_POINT('',#51);
#51 = CARTESIAN_POINT('',(127.,-25.8,1.510198));
#52 = CIRCLE('',#53,0.399999018331);
#53 = AXIS2_PLACEMENT_3D('',#54,#55,#56);
#54 = CARTESIAN_POINT('',(126.60000098167,-25.79999901833,1.510198));
#55 = DIRECTION('',(0.,0.,-1.));
#56 = DIRECTION('',(-2.454181410341E-06,0.999999999997,0.));
#57 = ORIENTED_EDGE('',*,*,#58,.F.);
#58 = EDGE_CURVE('',#59,#50,#61,.T.);
#59 = VERTEX_POINT('',#60);
#60 = CARTESIAN_POINT('',(127.,-25.8,0.));
#61 = LINE('',#62,#63);
#62 = CARTESIAN_POINT('',(127.,-25.8,0.));
#63 = VECTOR('',#64,1.);
#64 = DIRECTION('',(0.,0.,1.));
#65 = ORIENTED_EDGE('',*,*,#66,.F.);
#66 = EDGE_CURVE('',#40,#59,#67,.T.);
#67 = CIRCLE('',#68,0.399999018331);
#68 = AXIS2_PLACEMENT_3D('',#69,#70,#71);
#69 = CARTESIAN_POINT('',(126.60000098167,-25.79999901833,0.));
#70 = DIRECTION('',(0.,0.,-1.));
#71 = DIRECTION('',(-2.454181410341E-06,0.999999999997,0.));
#72 = CYLINDRICAL_SURFACE('',#73,0.399999018331);
#73 = AXIS2_PLACEMENT_3D('',#74,#75,#76);
#74 = CARTESIAN_POINT('',(126.60000098167,-25.79999901833,0.));
#75 = DIRECTION('',(0.,0.,-1.));
#76 = DIRECTION('',(-2.454181410341E-06,0.999999999997,0.));
#77 = ADVANCED_FACE('',(#78),#103,.T.);
#78 = FACE_BOUND('',#79,.T.);
#79 = EDGE_LOOP('',(#80,#90,#96,#97));
#80 = ORIENTED_EDGE('',*,*,#81,.T.);
#81 = EDGE_CURVE('',#82,#84,#86,.T.);
#82 = VERTEX_POINT('',#83);
#83 = CARTESIAN_POINT('',(76.599999,-25.4,0.));
#84 = VERTEX_POINT('',#85);
#85 = CARTESIAN_POINT('',(76.599999,-25.4,1.510198));
#86 = LINE('',#87,#88);
#87 = CARTESIAN_POINT('',(76.599999,-25.4,0.));
#88 = VECTOR('',#89,1.);
#89 = DIRECTION('',(0.,0.,1.));
#90 = ORIENTED_EDGE('',*,*,#91,.T.);
#91 = EDGE_CURVE('',#84,#42,#92,.T.);
#92 = LINE('',#93,#94);
#93 = CARTESIAN_POINT('',(76.599999,-25.4,1.510198));
#94 = VECTOR('',#95,1.);
#95 = DIRECTION('',(1.,0.,0.));
#96 = ORIENTED_EDGE('',*,*,#39,.F.);
#97 = ORIENTED_EDGE('',*,*,#98,.F.);
#98 = EDGE_CURVE('',#82,#40,#99,.T.);
#99 = LINE('',#100,#101);
#100 = CARTESIAN_POINT('',(76.599999,-25.4,0.));
#101 = VECTOR('',#102,1.);
#102 = DIRECTION('',(1.,0.,0.));
#103 = PLANE('',#104);
#104 = AXIS2_PLACEMENT_3D('',#105,#106,#107);
#105 = CARTESIAN_POINT('',(76.599999,-25.4,0.));
#106 = DIRECTION('',(0.,1.,0.));
#107 = DIRECTION('',(1.,0.,0.));
#108 = ADVANCED_FACE('',(#109),#134,.T.);
#109 = FACE_BOUND('',#110,.T.);
#110 = EDGE_LOOP('',(#111,#112,#120,#128));
#111 = ORIENTED_EDGE('',*,*,#58,.T.);
#112 = ORIENTED_EDGE('',*,*,#113,.T.);
#113 = EDGE_CURVE('',#50,#114,#116,.T.);
#114 = VERTEX_POINT('',#115);
#115 = CARTESIAN_POINT('',(127.,-101.2,1.510198));
#116 = LINE('',#117,#118);
#117 = CARTESIAN_POINT('',(127.,-25.8,1.510198));
#118 = VECTOR('',#119,1.);
#119 = DIRECTION('',(0.,-1.,0.));
#120 = ORIENTED_EDGE('',*,*,#121,.F.);
#121 = EDGE_CURVE('',#122,#114,#124,.T.);
#122 = VERTEX_POINT('',#123);
#123 = CARTESIAN_POINT('',(127.,-101.2,0.));
#124 = LINE('',#125,#126);
#125 = CARTESIAN_POINT('',(127.,-101.2,0.));
#126 = VECTOR('',#127,1.);
#127 = DIRECTION('',(0.,0.,1.));
#128 = ORIENTED_EDGE('',*,*,#129,.F.);
#129 = EDGE_CURVE('',#59,#122,#130,.T.);
#130 = LINE('',#131,#132);
#131 = CARTESIAN_POINT('',(127.,-25.8,0.));
#132 = VECTOR('',#133,1.);
#133 = DIRECTION('',(0.,-1.,0.));
#134 = PLANE('',#135);
#135 = AXIS2_PLACEMENT_3D('',#136,#137,#138);
#136 = CARTESIAN_POINT('',(127.,-25.8,0.));
#137 = DIRECTION('',(1.,0.,-0.));
#138 = DIRECTION('',(0.,-1.,0.));
#139 = ADVANCED_FACE('',(#140,#186,#197,#208,#219,#230,#300,#311,#381),
  #392,.F.);
#140 = FACE_BOUND('',#141,.F.);
#141 = EDGE_LOOP('',(#142,#143,#144,#153,#161,#170,#178,#185));
#142 = ORIENTED_EDGE('',*,*,#66,.F.);
#143 = ORIENTED_EDGE('',*,*,#98,.F.);
#144 = ORIENTED_EDGE('',*,*,#145,.F.);
#145 = EDGE_CURVE('',#146,#82,#148,.T.);
#146 = VERTEX_POINT('',#147);
#147 = CARTESIAN_POINT('',(76.2,-25.799999,0.));
#148 = CIRCLE('',#149,0.399999018327);
#149 = AXIS2_PLACEMENT_3D('',#150,#151,#152);
#150 = CARTESIAN_POINT('',(76.599999018327,-25.79999901832,0.));
#151 = DIRECTION('',(0.,0.,-1.));
#152 = DIRECTION('',(-1.,4.581743571305E-08,0.));
#153 = ORIENTED_EDGE('',*,*,#154,.F.);
#154 = EDGE_CURVE('',#155,#146,#157,.T.);
#155 = VERTEX_POINT('',#156);
#156 = CARTESIAN_POINT('',(76.2,-101.200001,0.));
#157 = LINE('',#158,#159);
#158 = CARTESIAN_POINT('',(76.2,-101.200001,0.));
#159 = VECTOR('',#160,1.);
#160 = DIRECTION('',(0.,1.,0.));
#161 = ORIENTED_EDGE('',*,*,#162,.F.);
#162 = EDGE_CURVE('',#163,#155,#165,.T.);
#163 = VERTEX_POINT('',#164);
#164 = CARTESIAN_POINT('',(76.599999,-101.6,0.));
#165 = CIRCLE('',#166,0.399999018327);
#166 = AXIS2_PLACEMENT_3D('',#167,#168,#169);
#167 = CARTESIAN_POINT('',(76.599999018327,-101.2000009816,0.));
#168 = DIRECTION('',(0.,0.,-1.));
#169 = DIRECTION('',(-4.581740018583E-08,-1.,-0.));
#170 = ORIENTED_EDGE('',*,*,#171,.F.);
#171 = EDGE_CURVE('',#172,#163,#174,.T.);
#172 = VERTEX_POINT('',#173);
#173 = CARTESIAN_POINT('',(126.6,-101.6,0.));
#174 = LINE('',#175,#176);
#175 = CARTESIAN_POINT('',(126.6,-101.6,0.));
#176 = VECTOR('',#177,1.);
#177 = DIRECTION('',(-1.,0.,0.));
#178 = ORIENTED_EDGE('',*,*,#179,.F.);
#179 = EDGE_CURVE('',#122,#172,#180,.T.);
#180 = CIRCLE('',#181,0.399999018331);
#181 = AXIS2_PLACEMENT_3D('',#182,#183,#184);
#182 = CARTESIAN_POINT('',(126.60000098167,-101.2000009816,0.));
#183 = DIRECTION('',(0.,0.,-1.));
#184 = DIRECTION('',(0.999999999997,2.454181374813E-06,0.));
#185 = ORIENTED_EDGE('',*,*,#129,.F.);
#186 = FACE_BOUND('',#187,.F.);
#187 = EDGE_LOOP('',(#188));
#188 = ORIENTED_EDGE('',*,*,#189,.T.);
#189 = EDGE_CURVE('',#190,#190,#192,.T.);
#190 = VERTEX_POINT('',#191);
#191 = CARTESIAN_POINT('',(81.75,-99.15,0.));
#192 = CIRCLE('',#193,1.35);
#193 = AXIS2_PLACEMENT_3D('',#194,#195,#196);
#194 = CARTESIAN_POINT('',(81.75,-97.8,0.));
#195 = DIRECTION('',(-0.,0.,-1.));
#196 = DIRECTION('',(-0.,-1.,0.));
#197 = FACE_BOUND('',#198,.F.);
#198 = EDGE_LOOP('',(#199));
#199 = ORIENTED_EDGE('',*,*,#200,.F.);
#200 = EDGE_CURVE('',#201,#201,#203,.T.);
#201 = VERTEX_POINT('',#202);
#202 = CARTESIAN_POINT('',(83.566,-67.31,0.));
#203 = CIRCLE('',#204,1.016);
#204 = AXIS2_PLACEMENT_3D('',#205,#206,#207);
#205 = CARTESIAN_POINT('',(82.55,-67.31,0.));
#206 = DIRECTION('',(0.,0.,1.));
#207 = DIRECTION('',(1.,0.,-0.));
#208 = FACE_BOUND('',#209,.F.);
#209 = EDGE_LOOP('',(#210));
#210 = ORIENTED_EDGE('',*,*,#211,.T.);
#211 = EDGE_CURVE('',#212,#212,#214,.T.);
#212 = VERTEX_POINT('',#213);
#213 = CARTESIAN_POINT('',(121.45,-99.15,0.));
#214 = CIRCLE('',#215,1.35);
#215 = AXIS2_PLACEMENT_3D('',#216,#217,#218);
#216 = CARTESIAN_POINT('',(121.45,-97.8,0.));
#217 = DIRECTION('',(-0.,0.,-1.));
#218 = DIRECTION('',(1.05265590483E-14,-1.,-0.));
#219 = FACE_BOUND('',#220,.F.);
#220 = EDGE_LOOP('',(#221));
#221 = ORIENTED_EDGE('',*,*,#222,.F.);
#222 = EDGE_CURVE('',#223,#223,#225,.T.);
#223 = VERTEX_POINT('',#224);
#224 = CARTESIAN_POINT('',(121.412,-67.31,0.));
#225 = CIRCLE('',#226,1.016);
#226 = AXIS2_PLACEMENT_3D('',#227,#228,#229);
#227 = CARTESIAN_POINT('',(120.396,-67.31,0.));
#228 = DIRECTION('',(0.,0.,1.));
#229 = DIRECTION('',(1.,0.,-0.));
#230 = FACE_BOUND('',#231,.F.);
#231 = EDGE_LOOP('',(#232,#243,#251,#260,#268,#277,#285,#294));
#232 = ORIENTED_EDGE('',*,*,#233,.F.);
#233 = EDGE_CURVE('',#234,#236,#238,.T.);
#234 = VERTEX_POINT('',#235);
#235 = CARTESIAN_POINT('',(82.569999,-44.828,0.));
#236 = VERTEX_POINT('',#237);
#237 = CARTESIAN_POINT('',(82.17,-45.227999,0.));
#238 = CIRCLE('',#239,0.399999018327);
#239 = AXIS2_PLACEMENT_3D('',#240,#241,#242);
#240 = CARTESIAN_POINT('',(82.569999018327,-45.22799901832,0.));
#241 = DIRECTION('',(0.,0.,1.));
#242 = DIRECTION('',(-4.581743571305E-08,1.,0.));
#243 = ORIENTED_EDGE('',*,*,#244,.F.);
#244 = EDGE_CURVE('',#245,#234,#247,.T.);
#245 = VERTEX_POINT('',#246);
#246 = CARTESIAN_POINT('',(85.07,-44.828,0.));
#247 = LINE('',#248,#249);
#248 = CARTESIAN_POINT('',(85.07,-44.828,0.));
#249 = VECTOR('',#250,1.);
#250 = DIRECTION('',(-1.,0.,0.));
#251 = ORIENTED_EDGE('',*,*,#252,.F.);
#252 = EDGE_CURVE('',#253,#245,#255,.T.);
#253 = VERTEX_POINT('',#254);
#254 = CARTESIAN_POINT('',(85.47,-45.227999,0.));
#255 = CIRCLE('',#256,0.399999018329);
#256 = AXIS2_PLACEMENT_3D('',#257,#258,#259);
#257 = CARTESIAN_POINT('',(85.070000981671,-45.22799901832,0.));
#258 = DIRECTION('',(0.,0.,1.));
#259 = DIRECTION('',(1.,4.58196384007E-08,-0.));
#260 = ORIENTED_EDGE('',*,*,#261,.F.);
#261 = EDGE_CURVE('',#262,#253,#264,.T.);
#262 = VERTEX_POINT('',#263);
#263 = CARTESIAN_POINT('',(85.47,-47.228001,0.));
#264 = LINE('',#265,#266);
#265 = CARTESIAN_POINT('',(85.47,-47.228001,0.));
#266 = VECTOR('',#267,1.);
#267 = DIRECTION('',(0.,1.,0.));
#268 = ORIENTED_EDGE('',*,*,#269,.F.);
#269 = EDGE_CURVE('',#270,#262,#272,.T.);
#270 = VERTEX_POINT('',#271);
#271 = CARTESIAN_POINT('',(85.07,-47.628,0.));
#272 = CIRCLE('',#273,0.399999018329);
#273 = AXIS2_PLACEMENT_3D('',#274,#275,#276);
#274 = CARTESIAN_POINT('',(85.070000981671,-47.22800098167,0.));
#275 = DIRECTION('',(0.,0.,1.));
#276 = DIRECTION('',(-2.454183541987E-06,-0.999999999997,0.));
#277 = ORIENTED_EDGE('',*,*,#278,.F.);
#278 = EDGE_CURVE('',#279,#270,#281,.T.);
#279 = VERTEX_POINT('',#280);
#280 = CARTESIAN_POINT('',(82.569999,-47.628,0.));
#281 = LINE('',#282,#283);
#282 = CARTESIAN_POINT('',(82.569999,-47.628,0.));
#283 = VECTOR('',#284,1.);
#284 = DIRECTION('',(1.,0.,0.));
#285 = ORIENTED_EDGE('',*,*,#286,.F.);
#286 = EDGE_CURVE('',#287,#279,#289,.T.);
#287 = VERTEX_POINT('',#288);
#288 = CARTESIAN_POINT('',(82.17,-47.228,0.));
#289 = CIRCLE('',#290,0.399999018329);
#290 = AXIS2_PLACEMENT_3D('',#291,#292,#293);
#291 = CARTESIAN_POINT('',(82.569999018328,-47.22800098167,0.));
#292 = DIRECTION('',(0.,0.,1.));
#293 = DIRECTION('',(-0.999999999997,2.45418355975E-06,0.));
#294 = ORIENTED_EDGE('',*,*,#295,.F.);
#295 = EDGE_CURVE('',#236,#287,#296,.T.);
#296 = LINE('',#297,#298);
#297 = CARTESIAN_POINT('',(82.17,-45.227999,0.));
#298 = VECTOR('',#299,1.);
#299 = DIRECTION('',(0.,-1.,0.));
#300 = FACE_BOUND('',#301,.F.);
#301 = EDGE_LOOP('',(#302));
#302 = ORIENTED_EDGE('',*,*,#303,.T.);
#303 = EDGE_CURVE('',#304,#304,#306,.T.);
#304 = VERTEX_POINT('',#305);
#305 = CARTESIAN_POINT('',(81.75,-30.55,0.));
#306 = CIRCLE('',#307,1.35);
#307 = AXIS2_PLACEMENT_3D('',#308,#309,#310);
#308 = CARTESIAN_POINT('',(81.75,-29.2,0.));
#309 = DIRECTION('',(-0.,0.,-1.));
#310 = DIRECTION('',(-0.,-1.,0.));
#311 = FACE_BOUND('',#312,.F.);
#312 = EDGE_LOOP('',(#313,#324,#332,#341,#349,#358,#366,#375));
#313 = ORIENTED_EDGE('',*,*,#314,.F.);
#314 = EDGE_CURVE('',#315,#317,#319,.T.);
#315 = VERTEX_POINT('',#316);
#316 = CARTESIAN_POINT('',(94.499999,-33.274,0.));
#317 = VERTEX_POINT('',#318);
#318 = CARTESIAN_POINT('',(94.1,-33.673999,0.));
#319 = CIRCLE('',#320,0.399999018327);
#320 = AXIS2_PLACEMENT_3D('',#321,#322,#323);
#321 = CARTESIAN_POINT('',(94.499999018327,-33.67399901832,0.));
#322 = DIRECTION('',(0.,0.,1.));
#323 = DIRECTION('',(-4.581747124027E-08,1.,0.));
#324 = ORIENTED_EDGE('',*,*,#325,.F.);
#325 = EDGE_CURVE('',#326,#315,#328,.T.);
#326 = VERTEX_POINT('',#327);
#327 = CARTESIAN_POINT('',(108.7,-33.274,0.));
#328 = LINE('',#329,#330);
#329 = CARTESIAN_POINT('',(108.7,-33.274,0.));
#330 = VECTOR('',#331,1.);
#331 = DIRECTION('',(-1.,0.,0.));
#332 = ORIENTED_EDGE('',*,*,#333,.F.);
#333 = EDGE_CURVE('',#334,#326,#336,.T.);
#334 = VERTEX_POINT('',#335);
#335 = CARTESIAN_POINT('',(109.1,-33.674,0.));
#336 = CIRCLE('',#337,0.399999018331);
#337 = AXIS2_PLACEMENT_3D('',#338,#339,#340);
#338 = CARTESIAN_POINT('',(108.70000098167,-33.67399901833,0.));
#339 = DIRECTION('',(0.,0.,1.));
#340 = DIRECTION('',(0.999999999997,-2.454181410341E-06,0.));
#341 = ORIENTED_EDGE('',*,*,#342,.F.);
#342 = EDGE_CURVE('',#343,#334,#345,.T.);
#343 = VERTEX_POINT('',#344);
#344 = CARTESIAN_POINT('',(109.1,-57.874,0.));
#345 = LINE('',#346,#347);
#346 = CARTESIAN_POINT('',(109.1,-57.874,0.));
#347 = VECTOR('',#348,1.);
#348 = DIRECTION('',(0.,1.,0.));
#349 = ORIENTED_EDGE('',*,*,#350,.F.);
#350 = EDGE_CURVE('',#351,#343,#353,.T.);
#351 = VERTEX_POINT('',#352);
#352 = CARTESIAN_POINT('',(108.7,-58.274,0.));
#353 = CIRCLE('',#354,0.399999018331);
#354 = AXIS2_PLACEMENT_3D('',#355,#356,#357);
#355 = CARTESIAN_POINT('',(108.70000098167,-57.87400098167,0.));
#356 = DIRECTION('',(0.,0.,1.));
#357 = DIRECTION('',(-2.454181374813E-06,-0.999999999997,0.));
#358 = ORIENTED_EDGE('',*,*,#359,.F.);
#359 = EDGE_CURVE('',#360,#351,#362,.T.);
#360 = VERTEX_POINT('',#361);
#361 = CARTESIAN_POINT('',(94.499999,-58.274,0.));
#362 = LINE('',#363,#364);
#363 = CARTESIAN_POINT('',(94.499999,-58.274,0.));
#364 = VECTOR('',#365,1.);
#365 = DIRECTION('',(1.,0.,0.));
#366 = ORIENTED_EDGE('',*,*,#367,.F.);
#367 = EDGE_CURVE('',#368,#360,#370,.T.);
#368 = VERTEX_POINT('',#369);
#369 = CARTESIAN_POINT('',(94.1,-57.874001,0.));
#370 = CIRCLE('',#371,0.399999018327);
#371 = AXIS2_PLACEMENT_3D('',#372,#373,#374);
#372 = CARTESIAN_POINT('',(94.499999018327,-57.87400098167,0.));
#373 = DIRECTION('',(0.,0.,1.));
#374 = DIRECTION('',(-1.,-4.581747124027E-08,0.));
#375 = ORIENTED_EDGE('',*,*,#376,.F.);
#376 = EDGE_CURVE('',#317,#368,#377,.T.);
#377 = LINE('',#378,#379);
#378 = CARTESIAN_POINT('',(94.1,-33.673999,0.));
#379 = VECTOR('',#380,1.);
#380 = DIRECTION('',(0.,-1.,0.));
#381 = FACE_BOUND('',#382,.F.);
#382 = EDGE_LOOP('',(#383));
#383 = ORIENTED_EDGE('',*,*,#384,.T.);
#384 = EDGE_CURVE('',#385,#385,#387,.T.);
#385 = VERTEX_POINT('',#386);
#386 = CARTESIAN_POINT('',(121.45,-30.55,0.));
#387 = CIRCLE('',#388,1.35);
#388 = AXIS2_PLACEMENT_3D('',#389,#390,#391);
#389 = CARTESIAN_POINT('',(121.45,-29.2,0.));
#390 = DIRECTION('',(-0.,0.,-1.));
#391 = DIRECTION('',(1.05265590483E-14,-1.,-0.));
#392 = PLANE('',#393);
#393 = AXIS2_PLACEMENT_3D('',#394,#395,#396);
#394 = CARTESIAN_POINT('',(0.,0.,0.));
#395 = DIRECTION('',(0.,0.,1.));
#396 = DIRECTION('',(1.,0.,-0.));
#397 = ADVANCED_FACE('',(#398,#444,#455,#466,#477,#488,#558,#569,#639),
  #650,.T.);
#398 = FACE_BOUND('',#399,.T.);
#399 = EDGE_LOOP('',(#400,#401,#402,#411,#419,#428,#436,#443));
#400 = ORIENTED_EDGE('',*,*,#49,.F.);
#401 = ORIENTED_EDGE('',*,*,#91,.F.);
#402 = ORIENTED_EDGE('',*,*,#403,.F.);
#403 = EDGE_CURVE('',#404,#84,#406,.T.);
#404 = VERTEX_POINT('',#405);
#405 = CARTESIAN_POINT('',(76.2,-25.799999,1.510198));
#406 = CIRCLE('',#407,0.399999018327);
#407 = AXIS2_PLACEMENT_3D('',#408,#409,#410);
#408 = CARTESIAN_POINT('',(76.599999018327,-25.79999901832,1.510198));
#409 = DIRECTION('',(0.,0.,-1.));
#410 = DIRECTION('',(-1.,4.581743571305E-08,0.));
#411 = ORIENTED_EDGE('',*,*,#412,.F.);
#412 = EDGE_CURVE('',#413,#404,#415,.T.);
#413 = VERTEX_POINT('',#414);
#414 = CARTESIAN_POINT('',(76.2,-101.200001,1.510198));
#415 = LINE('',#416,#417);
#416 = CARTESIAN_POINT('',(76.2,-101.200001,1.510198));
#417 = VECTOR('',#418,1.);
#418 = DIRECTION('',(0.,1.,0.));
#419 = ORIENTED_EDGE('',*,*,#420,.F.);
#420 = EDGE_CURVE('',#421,#413,#423,.T.);
#421 = VERTEX_POINT('',#422);
#422 = CARTESIAN_POINT('',(76.599999,-101.6,1.510198));
#423 = CIRCLE('',#424,0.399999018327);
#424 = AXIS2_PLACEMENT_3D('',#425,#426,#427);
#425 = CARTESIAN_POINT('',(76.599999018327,-101.2000009816,1.510198));
#426 = DIRECTION('',(0.,0.,-1.));
#427 = DIRECTION('',(-4.581740018583E-08,-1.,-0.));
#428 = ORIENTED_EDGE('',*,*,#429,.F.);
#429 = EDGE_CURVE('',#430,#421,#432,.T.);
#430 = VERTEX_POINT('',#431);
#431 = CARTESIAN_POINT('',(126.6,-101.6,1.510198));
#432 = LINE('',#433,#434);
#433 = CARTESIAN_POINT('',(126.6,-101.6,1.510198));
#434 = VECTOR('',#435,1.);
#435 = DIRECTION('',(-1.,0.,0.));
#436 = ORIENTED_EDGE('',*,*,#437,.F.);
#437 = EDGE_CURVE('',#114,#430,#438,.T.);
#438 = CIRCLE('',#439,0.399999018331);
#439 = AXIS2_PLACEMENT_3D('',#440,#441,#442);
#440 = CARTESIAN_POINT('',(126.60000098167,-101.2000009816,1.510198));
#441 = DIRECTION('',(0.,0.,-1.));
#442 = DIRECTION('',(0.999999999997,2.454181374813E-06,0.));
#443 = ORIENTED_EDGE('',*,*,#113,.F.);
#444 = FACE_BOUND('',#445,.T.);
#445 = EDGE_LOOP('',(#446));
#446 = ORIENTED_EDGE('',*,*,#447,.T.);
#447 = EDGE_CURVE('',#448,#448,#450,.T.);
#448 = VERTEX_POINT('',#449);
#449 = CARTESIAN_POINT('',(81.75,-99.15,1.510198));
#450 = CIRCLE('',#451,1.35);
#451 = AXIS2_PLACEMENT_3D('',#452,#453,#454);
#452 = CARTESIAN_POINT('',(81.75,-97.8,1.510198));
#453 = DIRECTION('',(-0.,0.,-1.));
#454 = DIRECTION('',(-0.,-1.,0.));
#455 = FACE_BOUND('',#456,.T.);
#456 = EDGE_LOOP('',(#457));
#457 = ORIENTED_EDGE('',*,*,#458,.F.);
#458 = EDGE_CURVE('',#459,#459,#461,.T.);
#459 = VERTEX_POINT('',#460);
#460 = CARTESIAN_POINT('',(83.566,-67.31,1.510198));
#461 = CIRCLE('',#462,1.016);
#462 = AXIS2_PLACEMENT_3D('',#463,#464,#465);
#463 = CARTESIAN_POINT('',(82.55,-67.31,1.510198));
#464 = DIRECTION('',(0.,0.,1.));
#465 = DIRECTION('',(1.,0.,-0.));
#466 = FACE_BOUND('',#467,.T.);
#467 = EDGE_LOOP('',(#468));
#468 = ORIENTED_EDGE('',*,*,#469,.T.);
#469 = EDGE_CURVE('',#470,#470,#472,.T.);
#470 = VERTEX_POINT('',#471);
#471 = CARTESIAN_POINT('',(121.45,-99.15,1.510198));
#472 = CIRCLE('',#473,1.35);
#473 = AXIS2_PLACEMENT_3D('',#474,#475,#476);
#474 = CARTESIAN_POINT('',(121.45,-97.8,1.510198));
#475 = DIRECTION('',(-0.,0.,-1.));
#476 = DIRECTION('',(1.05265590483E-14,-1.,-0.));
#477 = FACE_BOUND('',#478,.T.);
#478 = EDGE_LOOP('',(#479));
#479 = ORIENTED_EDGE('',*,*,#480,.F.);
#480 = EDGE_CURVE('',#481,#481,#483,.T.);
#481 = VERTEX_POINT('',#482);
#482 = CARTESIAN_POINT('',(121.412,-67.31,1.510198));
#483 = CIRCLE('',#484,1.016);
#484 = AXIS2_PLACEMENT_3D('',#485,#486,#487);
#485 = CARTESIAN_POINT('',(120.396,-67.31,1.510198));
#486 = DIRECTION('',(0.,0.,1.));
#487 = DIRECTION('',(1.,0.,-0.));
#488 = FACE_BOUND('',#489,.T.);
#489 = EDGE_LOOP('',(#490,#501,#509,#518,#526,#535,#543,#552));
#490 = ORIENTED_EDGE('',*,*,#491,.F.);
#491 = EDGE_CURVE('',#492,#494,#496,.T.);
#492 = VERTEX_POINT('',#493);
#493 = CARTESIAN_POINT('',(82.569999,-44.828,1.510198));
#494 = VERTEX_POINT('',#495);
#495 = CARTESIAN_POINT('',(82.17,-45.227999,1.510198));
#496 = CIRCLE('',#497,0.399999018327);
#497 = AXIS2_PLACEMENT_3D('',#498,#499,#500);
#498 = CARTESIAN_POINT('',(82.569999018327,-45.22799901832,1.510198));
#499 = DIRECTION('',(0.,0.,1.));
#500 = DIRECTION('',(-4.581743571305E-08,1.,0.));
#501 = ORIENTED_EDGE('',*,*,#502,.F.);
#502 = EDGE_CURVE('',#503,#492,#505,.T.);
#503 = VERTEX_POINT('',#504);
#504 = CARTESIAN_POINT('',(85.07,-44.828,1.510198));
#505 = LINE('',#506,#507);
#506 = CARTESIAN_POINT('',(85.07,-44.828,1.510198));
#507 = VECTOR('',#508,1.);
#508 = DIRECTION('',(-1.,0.,0.));
#509 = ORIENTED_EDGE('',*,*,#510,.F.);
#510 = EDGE_CURVE('',#511,#503,#513,.T.);
#511 = VERTEX_POINT('',#512);
#512 = CARTESIAN_POINT('',(85.47,-45.227999,1.510198));
#513 = CIRCLE('',#514,0.399999018329);
#514 = AXIS2_PLACEMENT_3D('',#515,#516,#517);
#515 = CARTESIAN_POINT('',(85.070000981671,-45.22799901832,1.510198));
#516 = DIRECTION('',(0.,0.,1.));
#517 = DIRECTION('',(1.,4.58196384007E-08,-0.));
#518 = ORIENTED_EDGE('',*,*,#519,.F.);
#519 = EDGE_CURVE('',#520,#511,#522,.T.);
#520 = VERTEX_POINT('',#521);
#521 = CARTESIAN_POINT('',(85.47,-47.228001,1.510198));
#522 = LINE('',#523,#524);
#523 = CARTESIAN_POINT('',(85.47,-47.228001,1.510198));
#524 = VECTOR('',#525,1.);
#525 = DIRECTION('',(0.,1.,0.));
#526 = ORIENTED_EDGE('',*,*,#527,.F.);
#527 = EDGE_CURVE('',#528,#520,#530,.T.);
#528 = VERTEX_POINT('',#529);
#529 = CARTESIAN_POINT('',(85.07,-47.628,1.510198));
#530 = CIRCLE('',#531,0.399999018329);
#531 = AXIS2_PLACEMENT_3D('',#532,#533,#534);
#532 = CARTESIAN_POINT('',(85.070000981671,-47.22800098167,1.510198));
#533 = DIRECTION('',(0.,0.,1.));
#534 = DIRECTION('',(-2.454183541987E-06,-0.999999999997,0.));
#535 = ORIENTED_EDGE('',*,*,#536,.F.);
#536 = EDGE_CURVE('',#537,#528,#539,.T.);
#537 = VERTEX_POINT('',#538);
#538 = CARTESIAN_POINT('',(82.569999,-47.628,1.510198));
#539 = LINE('',#540,#541);
#540 = CARTESIAN_POINT('',(82.569999,-47.628,1.510198));
#541 = VECTOR('',#542,1.);
#542 = DIRECTION('',(1.,0.,0.));
#543 = ORIENTED_EDGE('',*,*,#544,.F.);
#544 = EDGE_CURVE('',#545,#537,#547,.T.);
#545 = VERTEX_POINT('',#546);
#546 = CARTESIAN_POINT('',(82.17,-47.228,1.510198));
#547 = CIRCLE('',#548,0.399999018329);
#548 = AXIS2_PLACEMENT_3D('',#549,#550,#551);
#549 = CARTESIAN_POINT('',(82.569999018328,-47.22800098167,1.510198));
#550 = DIRECTION('',(0.,0.,1.));
#551 = DIRECTION('',(-0.999999999997,2.45418355975E-06,0.));
#552 = ORIENTED_EDGE('',*,*,#553,.F.);
#553 = EDGE_CURVE('',#494,#545,#554,.T.);
#554 = LINE('',#555,#556);
#555 = CARTESIAN_POINT('',(82.17,-45.227999,1.510198));
#556 = VECTOR('',#557,1.);
#557 = DIRECTION('',(0.,-1.,0.));
#558 = FACE_BOUND('',#559,.T.);
#559 = EDGE_LOOP('',(#560));
#560 = ORIENTED_EDGE('',*,*,#561,.T.);
#561 = EDGE_CURVE('',#562,#562,#564,.T.);
#562 = VERTEX_POINT('',#563);
#563 = CARTESIAN_POINT('',(81.75,-30.55,1.510198));
#564 = CIRCLE('',#565,1.35);
#565 = AXIS2_PLACEMENT_3D('',#566,#567,#568);
#566 = CARTESIAN_POINT('',(81.75,-29.2,1.510198));
#567 = DIRECTION('',(-0.,0.,-1.));
#568 = DIRECTION('',(-0.,-1.,0.));
#569 = FACE_BOUND('',#570,.T.);
#570 = EDGE_LOOP('',(#571,#582,#590,#599,#607,#616,#624,#633));
#571 = ORIENTED_EDGE('',*,*,#572,.F.);
#572 = EDGE_CURVE('',#573,#575,#577,.T.);
#573 = VERTEX_POINT('',#574);
#574 = CARTESIAN_POINT('',(94.499999,-33.274,1.510198));
#575 = VERTEX_POINT('',#576);
#576 = CARTESIAN_POINT('',(94.1,-33.673999,1.510198));
#577 = CIRCLE('',#578,0.399999018327);
#578 = AXIS2_PLACEMENT_3D('',#579,#580,#581);
#579 = CARTESIAN_POINT('',(94.499999018327,-33.67399901832,1.510198));
#580 = DIRECTION('',(0.,0.,1.));
#581 = DIRECTION('',(-4.581747124027E-08,1.,0.));
#582 = ORIENTED_EDGE('',*,*,#583,.F.);
#583 = EDGE_CURVE('',#584,#573,#586,.T.);
#584 = VERTEX_POINT('',#585);
#585 = CARTESIAN_POINT('',(108.7,-33.274,1.510198));
#586 = LINE('',#587,#588);
#587 = CARTESIAN_POINT('',(108.7,-33.274,1.510198));
#588 = VECTOR('',#589,1.);
#589 = DIRECTION('',(-1.,0.,0.));
#590 = ORIENTED_EDGE('',*,*,#591,.F.);
#591 = EDGE_CURVE('',#592,#584,#594,.T.);
#592 = VERTEX_POINT('',#593);
#593 = CARTESIAN_POINT('',(109.1,-33.674,1.510198));
#594 = CIRCLE('',#595,0.399999018331);
#595 = AXIS2_PLACEMENT_3D('',#596,#597,#598);
#596 = CARTESIAN_POINT('',(108.70000098167,-33.67399901833,1.510198));
#597 = DIRECTION('',(0.,0.,1.));
#598 = DIRECTION('',(0.999999999997,-2.454181410341E-06,0.));
#599 = ORIENTED_EDGE('',*,*,#600,.F.);
#600 = EDGE_CURVE('',#601,#592,#603,.T.);
#601 = VERTEX_POINT('',#602);
#602 = CARTESIAN_POINT('',(109.1,-57.874,1.510198));
#603 = LINE('',#604,#605);
#604 = CARTESIAN_POINT('',(109.1,-57.874,1.510198));
#605 = VECTOR('',#606,1.);
#606 = DIRECTION('',(0.,1.,0.));
#607 = ORIENTED_EDGE('',*,*,#608,.F.);
#608 = EDGE_CURVE('',#609,#601,#611,.T.);
#609 = VERTEX_POINT('',#610);
#610 = CARTESIAN_POINT('',(108.7,-58.274,1.510198));
#611 = CIRCLE('',#612,0.399999018331);
#612 = AXIS2_PLACEMENT_3D('',#613,#614,#615);
#613 = CARTESIAN_POINT('',(108.70000098167,-57.87400098167,1.510198));
#614 = DIRECTION('',(0.,0.,1.));
#615 = DIRECTION('',(-2.454181374813E-06,-0.999999999997,0.));
#616 = ORIENTED_EDGE('',*,*,#617,.F.);
#617 = EDGE_CURVE('',#618,#609,#620,.T.);
#618 = VERTEX_POINT('',#619);
#619 = CARTESIAN_POINT('',(94.499999,-58.274,1.510198));
#620 = LINE('',#621,#622);
#621 = CARTESIAN_POINT('',(94.499999,-58.274,1.510198));
#622 = VECTOR('',#623,1.);
#623 = DIRECTION('',(1.,0.,0.));
#624 = ORIENTED_EDGE('',*,*,#625,.F.);
#625 = EDGE_CURVE('',#626,#618,#628,.T.);
#626 = VERTEX_POINT('',#627);
#627 = CARTESIAN_POINT('',(94.1,-57.874001,1.510198));
#628 = CIRCLE('',#629,0.399999018327);
#629 = AXIS2_PLACEMENT_3D('',#630,#631,#632);
#630 = CARTESIAN_POINT('',(94.499999018327,-57.87400098167,1.510198));
#631 = DIRECTION('',(0.,0.,1.));
#632 = DIRECTION('',(-1.,-4.581747124027E-08,0.));
#633 = ORIENTED_EDGE('',*,*,#634,.F.);
#634 = EDGE_CURVE('',#575,#626,#635,.T.);
#635 = LINE('',#636,#637);
#636 = CARTESIAN_POINT('',(94.1,-33.673999,1.510198));
#637 = VECTOR('',#638,1.);
#638 = DIRECTION('',(0.,-1.,0.));
#639 = FACE_BOUND('',#640,.T.);
#640 = EDGE_LOOP('',(#641));
#641 = ORIENTED_EDGE('',*,*,#642,.T.);
#642 = EDGE_CURVE('',#643,#643,#645,.T.);
#643 = VERTEX_POINT('',#644);
#644 = CARTESIAN_POINT('',(121.45,-30.55,1.510198));
#645 = CIRCLE('',#646,1.35);
#646 = AXIS2_PLACEMENT_3D('',#647,#648,#649);
#647 = CARTESIAN_POINT('',(121.45,-29.2,1.510198));
#648 = DIRECTION('',(-0.,0.,-1.));
#649 = DIRECTION('',(1.05265590483E-14,-1.,-0.));
#650 = PLANE('',#651);
#651 = AXIS2_PLACEMENT_3D('',#652,#653,#654);
#652 = CARTESIAN_POINT('',(0.,0.,1.510198));
#653 = DIRECTION('',(0.,0.,1.));
#654 = DIRECTION('',(1.,0.,-0.));
#655 = ADVANCED_FACE('',(#656),#667,.T.);
#656 = FACE_BOUND('',#657,.T.);
#657 = EDGE_LOOP('',(#658,#664,#665,#666));
#658 = ORIENTED_EDGE('',*,*,#659,.T.);
#659 = EDGE_CURVE('',#146,#404,#660,.T.);
#660 = LINE('',#661,#662);
#661 = CARTESIAN_POINT('',(76.2,-25.799999,0.));
#662 = VECTOR('',#663,1.);
#663 = DIRECTION('',(0.,0.,1.));
#664 = ORIENTED_EDGE('',*,*,#403,.T.);
#665 = ORIENTED_EDGE('',*,*,#81,.F.);
#666 = ORIENTED_EDGE('',*,*,#145,.F.);
#667 = CYLINDRICAL_SURFACE('',#668,0.399999018327);
#668 = AXIS2_PLACEMENT_3D('',#669,#670,#671);
#669 = CARTESIAN_POINT('',(76.599999018327,-25.79999901832,0.));
#670 = DIRECTION('',(0.,0.,-1.));
#671 = DIRECTION('',(-1.,4.581743571305E-08,0.));
#672 = ADVANCED_FACE('',(#673),#684,.T.);
#673 = FACE_BOUND('',#674,.T.);
#674 = EDGE_LOOP('',(#675,#676,#677,#683));
#675 = ORIENTED_EDGE('',*,*,#121,.T.);
#676 = ORIENTED_EDGE('',*,*,#437,.T.);
#677 = ORIENTED_EDGE('',*,*,#678,.F.);
#678 = EDGE_CURVE('',#172,#430,#679,.T.);
#679 = LINE('',#680,#681);
#680 = CARTESIAN_POINT('',(126.6,-101.6,0.));
#681 = VECTOR('',#682,1.);
#682 = DIRECTION('',(0.,0.,1.));
#683 = ORIENTED_EDGE('',*,*,#179,.F.);
#684 = CYLINDRICAL_SURFACE('',#685,0.399999018331);
#685 = AXIS2_PLACEMENT_3D('',#686,#687,#688);
#686 = CARTESIAN_POINT('',(126.60000098167,-101.2000009816,0.));
#687 = DIRECTION('',(0.,0.,-1.));
#688 = DIRECTION('',(0.999999999997,2.454181374813E-06,0.));
#689 = ADVANCED_FACE('',(#690),#701,.T.);
#690 = FACE_BOUND('',#691,.T.);
#691 = EDGE_LOOP('',(#692,#698,#699,#700));
#692 = ORIENTED_EDGE('',*,*,#693,.T.);
#693 = EDGE_CURVE('',#155,#413,#694,.T.);
#694 = LINE('',#695,#696);
#695 = CARTESIAN_POINT('',(76.2,-101.200001,0.));
#696 = VECTOR('',#697,1.);
#697 = DIRECTION('',(0.,0.,1.));
#698 = ORIENTED_EDGE('',*,*,#412,.T.);
#699 = ORIENTED_EDGE('',*,*,#659,.F.);
#700 = ORIENTED_EDGE('',*,*,#154,.F.);
#701 = PLANE('',#702);
#702 = AXIS2_PLACEMENT_3D('',#703,#704,#705);
#703 = CARTESIAN_POINT('',(76.2,-101.200001,0.));
#704 = DIRECTION('',(-1.,0.,0.));
#705 = DIRECTION('',(0.,1.,0.));
#706 = ADVANCED_FACE('',(#707),#718,.T.);
#707 = FACE_BOUND('',#708,.T.);
#708 = EDGE_LOOP('',(#709,#710,#711,#717));
#709 = ORIENTED_EDGE('',*,*,#678,.T.);
#710 = ORIENTED_EDGE('',*,*,#429,.T.);
#711 = ORIENTED_EDGE('',*,*,#712,.F.);
#712 = EDGE_CURVE('',#163,#421,#713,.T.);
#713 = LINE('',#714,#715);
#714 = CARTESIAN_POINT('',(76.599999,-101.6,0.));
#715 = VECTOR('',#716,1.);
#716 = DIRECTION('',(0.,0.,1.));
#717 = ORIENTED_EDGE('',*,*,#171,.F.);
#718 = PLANE('',#719);
#719 = AXIS2_PLACEMENT_3D('',#720,#721,#722);
#720 = CARTESIAN_POINT('',(126.6,-101.6,0.));
#721 = DIRECTION('',(0.,-1.,0.));
#722 = DIRECTION('',(-1.,0.,0.));
#723 = ADVANCED_FACE('',(#724),#730,.T.);
#724 = FACE_BOUND('',#725,.T.);
#725 = EDGE_LOOP('',(#726,#727,#728,#729));
#726 = ORIENTED_EDGE('',*,*,#712,.T.);
#727 = ORIENTED_EDGE('',*,*,#420,.T.);
#728 = ORIENTED_EDGE('',*,*,#693,.F.);
#729 = ORIENTED_EDGE('',*,*,#162,.F.);
#730 = CYLINDRICAL_SURFACE('',#731,0.399999018327);
#731 = AXIS2_PLACEMENT_3D('',#732,#733,#734);
#732 = CARTESIAN_POINT('',(76.599999018327,-101.2000009816,0.));
#733 = DIRECTION('',(0.,0.,-1.));
#734 = DIRECTION('',(-4.581740018583E-08,-1.,-0.));
#735 = ADVANCED_FACE('',(#736),#747,.F.);
#736 = FACE_BOUND('',#737,.T.);
#737 = EDGE_LOOP('',(#738,#739,#745,#746));
#738 = ORIENTED_EDGE('',*,*,#189,.T.);
#739 = ORIENTED_EDGE('',*,*,#740,.T.);
#740 = EDGE_CURVE('',#190,#448,#741,.T.);
#741 = LINE('',#742,#743);
#742 = CARTESIAN_POINT('',(81.75,-99.15,-4.6E-02));
#743 = VECTOR('',#744,1.);
#744 = DIRECTION('',(0.,0.,1.));
#745 = ORIENTED_EDGE('',*,*,#447,.F.);
#746 = ORIENTED_EDGE('',*,*,#740,.F.);
#747 = CYLINDRICAL_SURFACE('',#748,1.35);
#748 = AXIS2_PLACEMENT_3D('',#749,#750,#751);
#749 = CARTESIAN_POINT('',(81.75,-97.8,-4.6E-02));
#750 = DIRECTION('',(-0.,-0.,-1.));
#751 = DIRECTION('',(-0.,-1.,0.));
#752 = ADVANCED_FACE('',(#753),#764,.F.);
#753 = FACE_BOUND('',#754,.T.);
#754 = EDGE_LOOP('',(#755,#761,#762,#763));
#755 = ORIENTED_EDGE('',*,*,#756,.T.);
#756 = EDGE_CURVE('',#201,#459,#757,.T.);
#757 = LINE('',#758,#759);
#758 = CARTESIAN_POINT('',(83.566,-67.31,0.));
#759 = VECTOR('',#760,1.);
#760 = DIRECTION('',(0.,0.,1.));
#761 = ORIENTED_EDGE('',*,*,#458,.T.);
#762 = ORIENTED_EDGE('',*,*,#756,.F.);
#763 = ORIENTED_EDGE('',*,*,#200,.F.);
#764 = CYLINDRICAL_SURFACE('',#765,1.016);
#765 = AXIS2_PLACEMENT_3D('',#766,#767,#768);
#766 = CARTESIAN_POINT('',(82.55,-67.31,0.));
#767 = DIRECTION('',(-0.,-0.,-1.));
#768 = DIRECTION('',(1.,0.,-0.));
#769 = ADVANCED_FACE('',(#770),#781,.F.);
#770 = FACE_BOUND('',#771,.T.);
#771 = EDGE_LOOP('',(#772,#773,#779,#780));
#772 = ORIENTED_EDGE('',*,*,#211,.T.);
#773 = ORIENTED_EDGE('',*,*,#774,.T.);
#774 = EDGE_CURVE('',#212,#470,#775,.T.);
#775 = LINE('',#776,#777);
#776 = CARTESIAN_POINT('',(121.45,-99.15,-4.6E-02));
#777 = VECTOR('',#778,1.);
#778 = DIRECTION('',(0.,0.,1.));
#779 = ORIENTED_EDGE('',*,*,#469,.F.);
#780 = ORIENTED_EDGE('',*,*,#774,.F.);
#781 = CYLINDRICAL_SURFACE('',#782,1.35);
#782 = AXIS2_PLACEMENT_3D('',#783,#784,#785);
#783 = CARTESIAN_POINT('',(121.45,-97.8,-4.6E-02));
#784 = DIRECTION('',(-0.,0.,-1.));
#785 = DIRECTION('',(1.05265590483E-14,-1.,-0.));
#786 = ADVANCED_FACE('',(#787),#798,.F.);
#787 = FACE_BOUND('',#788,.T.);
#788 = EDGE_LOOP('',(#789,#795,#796,#797));
#789 = ORIENTED_EDGE('',*,*,#790,.T.);
#790 = EDGE_CURVE('',#223,#481,#791,.T.);
#791 = LINE('',#792,#793);
#792 = CARTESIAN_POINT('',(121.412,-67.31,0.));
#793 = VECTOR('',#794,1.);
#794 = DIRECTION('',(0.,0.,1.));
#795 = ORIENTED_EDGE('',*,*,#480,.T.);
#796 = ORIENTED_EDGE('',*,*,#790,.F.);
#797 = ORIENTED_EDGE('',*,*,#222,.F.);
#798 = CYLINDRICAL_SURFACE('',#799,1.016);
#799 = AXIS2_PLACEMENT_3D('',#800,#801,#802);
#800 = CARTESIAN_POINT('',(120.396,-67.31,0.));
#801 = DIRECTION('',(-0.,-0.,-1.));
#802 = DIRECTION('',(1.,0.,-0.));
#803 = ADVANCED_FACE('',(#804),#820,.F.);
#804 = FACE_BOUND('',#805,.T.);
#805 = EDGE_LOOP('',(#806,#812,#813,#819));
#806 = ORIENTED_EDGE('',*,*,#807,.T.);
#807 = EDGE_CURVE('',#234,#492,#808,.T.);
#808 = LINE('',#809,#810);
#809 = CARTESIAN_POINT('',(82.569999,-44.828,0.));
#810 = VECTOR('',#811,1.);
#811 = DIRECTION('',(0.,0.,1.));
#812 = ORIENTED_EDGE('',*,*,#491,.T.);
#813 = ORIENTED_EDGE('',*,*,#814,.F.);
#814 = EDGE_CURVE('',#236,#494,#815,.T.);
#815 = LINE('',#816,#817);
#816 = CARTESIAN_POINT('',(82.17,-45.227999,0.));
#817 = VECTOR('',#818,1.);
#818 = DIRECTION('',(0.,0.,1.));
#819 = ORIENTED_EDGE('',*,*,#233,.F.);
#820 = CYLINDRICAL_SURFACE('',#821,0.399999018327);
#821 = AXIS2_PLACEMENT_3D('',#822,#823,#824);
#822 = CARTESIAN_POINT('',(82.569999018327,-45.22799901832,0.));
#823 = DIRECTION('',(-0.,-0.,-1.));
#824 = DIRECTION('',(-4.581743571305E-08,1.,0.));
#825 = ADVANCED_FACE('',(#826),#837,.T.);
#826 = FACE_BOUND('',#827,.T.);
#827 = EDGE_LOOP('',(#828,#834,#835,#836));
#828 = ORIENTED_EDGE('',*,*,#829,.T.);
#829 = EDGE_CURVE('',#245,#503,#830,.T.);
#830 = LINE('',#831,#832);
#831 = CARTESIAN_POINT('',(85.07,-44.828,0.));
#832 = VECTOR('',#833,1.);
#833 = DIRECTION('',(0.,0.,1.));
#834 = ORIENTED_EDGE('',*,*,#502,.T.);
#835 = ORIENTED_EDGE('',*,*,#807,.F.);
#836 = ORIENTED_EDGE('',*,*,#244,.F.);
#837 = PLANE('',#838);
#838 = AXIS2_PLACEMENT_3D('',#839,#840,#841);
#839 = CARTESIAN_POINT('',(85.07,-44.828,0.));
#840 = DIRECTION('',(0.,-1.,0.));
#841 = DIRECTION('',(-1.,0.,0.));
#842 = ADVANCED_FACE('',(#843),#854,.T.);
#843 = FACE_BOUND('',#844,.T.);
#844 = EDGE_LOOP('',(#845,#846,#847,#853));
#845 = ORIENTED_EDGE('',*,*,#814,.T.);
#846 = ORIENTED_EDGE('',*,*,#553,.T.);
#847 = ORIENTED_EDGE('',*,*,#848,.F.);
#848 = EDGE_CURVE('',#287,#545,#849,.T.);
#849 = LINE('',#850,#851);
#850 = CARTESIAN_POINT('',(82.17,-47.228,0.));
#851 = VECTOR('',#852,1.);
#852 = DIRECTION('',(0.,0.,1.));
#853 = ORIENTED_EDGE('',*,*,#295,.F.);
#854 = PLANE('',#855);
#855 = AXIS2_PLACEMENT_3D('',#856,#857,#858);
#856 = CARTESIAN_POINT('',(82.17,-45.227999,0.));
#857 = DIRECTION('',(1.,0.,-0.));
#858 = DIRECTION('',(0.,-1.,0.));
#859 = ADVANCED_FACE('',(#860),#871,.F.);
#860 = FACE_BOUND('',#861,.T.);
#861 = EDGE_LOOP('',(#862,#868,#869,#870));
#862 = ORIENTED_EDGE('',*,*,#863,.T.);
#863 = EDGE_CURVE('',#253,#511,#864,.T.);
#864 = LINE('',#865,#866);
#865 = CARTESIAN_POINT('',(85.47,-45.227999,0.));
#866 = VECTOR('',#867,1.);
#867 = DIRECTION('',(0.,0.,1.));
#868 = ORIENTED_EDGE('',*,*,#510,.T.);
#869 = ORIENTED_EDGE('',*,*,#829,.F.);
#870 = ORIENTED_EDGE('',*,*,#252,.F.);
#871 = CYLINDRICAL_SURFACE('',#872,0.399999018329);
#872 = AXIS2_PLACEMENT_3D('',#873,#874,#875);
#873 = CARTESIAN_POINT('',(85.070000981671,-45.22799901832,0.));
#874 = DIRECTION('',(-0.,-0.,-1.));
#875 = DIRECTION('',(1.,4.58196384007E-08,-0.));
#876 = ADVANCED_FACE('',(#877),#888,.F.);
#877 = FACE_BOUND('',#878,.T.);
#878 = EDGE_LOOP('',(#879,#880,#881,#887));
#879 = ORIENTED_EDGE('',*,*,#848,.T.);
#880 = ORIENTED_EDGE('',*,*,#544,.T.);
#881 = ORIENTED_EDGE('',*,*,#882,.F.);
#882 = EDGE_CURVE('',#279,#537,#883,.T.);
#883 = LINE('',#884,#885);
#884 = CARTESIAN_POINT('',(82.569999,-47.628,0.));
#885 = VECTOR('',#886,1.);
#886 = DIRECTION('',(0.,0.,1.));
#887 = ORIENTED_EDGE('',*,*,#286,.F.);
#888 = CYLINDRICAL_SURFACE('',#889,0.399999018329);
#889 = AXIS2_PLACEMENT_3D('',#890,#891,#892);
#890 = CARTESIAN_POINT('',(82.569999018328,-47.22800098167,0.));
#891 = DIRECTION('',(-0.,-0.,-1.));
#892 = DIRECTION('',(-0.999999999997,2.45418355975E-06,0.));
#893 = ADVANCED_FACE('',(#894),#905,.T.);
#894 = FACE_BOUND('',#895,.T.);
#895 = EDGE_LOOP('',(#896,#902,#903,#904));
#896 = ORIENTED_EDGE('',*,*,#897,.T.);
#897 = EDGE_CURVE('',#262,#520,#898,.T.);
#898 = LINE('',#899,#900);
#899 = CARTESIAN_POINT('',(85.47,-47.228001,0.));
#900 = VECTOR('',#901,1.);
#901 = DIRECTION('',(0.,0.,1.));
#902 = ORIENTED_EDGE('',*,*,#519,.T.);
#903 = ORIENTED_EDGE('',*,*,#863,.F.);
#904 = ORIENTED_EDGE('',*,*,#261,.F.);
#905 = PLANE('',#906);
#906 = AXIS2_PLACEMENT_3D('',#907,#908,#909);
#907 = CARTESIAN_POINT('',(85.47,-47.228001,0.));
#908 = DIRECTION('',(-1.,0.,0.));
#909 = DIRECTION('',(0.,1.,0.));
#910 = ADVANCED_FACE('',(#911),#922,.T.);
#911 = FACE_BOUND('',#912,.T.);
#912 = EDGE_LOOP('',(#913,#914,#915,#921));
#913 = ORIENTED_EDGE('',*,*,#882,.T.);
#914 = ORIENTED_EDGE('',*,*,#536,.T.);
#915 = ORIENTED_EDGE('',*,*,#916,.F.);
#916 = EDGE_CURVE('',#270,#528,#917,.T.);
#917 = LINE('',#918,#919);
#918 = CARTESIAN_POINT('',(85.07,-47.628,0.));
#919 = VECTOR('',#920,1.);
#920 = DIRECTION('',(0.,0.,1.));
#921 = ORIENTED_EDGE('',*,*,#278,.F.);
#922 = PLANE('',#923);
#923 = AXIS2_PLACEMENT_3D('',#924,#925,#926);
#924 = CARTESIAN_POINT('',(82.569999,-47.628,0.));
#925 = DIRECTION('',(0.,1.,0.));
#926 = DIRECTION('',(1.,0.,0.));
#927 = ADVANCED_FACE('',(#928),#934,.F.);
#928 = FACE_BOUND('',#929,.T.);
#929 = EDGE_LOOP('',(#930,#931,#932,#933));
#930 = ORIENTED_EDGE('',*,*,#916,.T.);
#931 = ORIENTED_EDGE('',*,*,#527,.T.);
#932 = ORIENTED_EDGE('',*,*,#897,.F.);
#933 = ORIENTED_EDGE('',*,*,#269,.F.);
#934 = CYLINDRICAL_SURFACE('',#935,0.399999018329);
#935 = AXIS2_PLACEMENT_3D('',#936,#937,#938);
#936 = CARTESIAN_POINT('',(85.070000981671,-47.22800098167,0.));
#937 = DIRECTION('',(-0.,-0.,-1.));
#938 = DIRECTION('',(-2.454183541987E-06,-0.999999999997,0.));
#939 = ADVANCED_FACE('',(#940),#951,.F.);
#940 = FACE_BOUND('',#941,.T.);
#941 = EDGE_LOOP('',(#942,#943,#949,#950));
#942 = ORIENTED_EDGE('',*,*,#303,.T.);
#943 = ORIENTED_EDGE('',*,*,#944,.T.);
#944 = EDGE_CURVE('',#304,#562,#945,.T.);
#945 = LINE('',#946,#947);
#946 = CARTESIAN_POINT('',(81.75,-30.55,-4.6E-02));
#947 = VECTOR('',#948,1.);
#948 = DIRECTION('',(0.,0.,1.));
#949 = ORIENTED_EDGE('',*,*,#561,.F.);
#950 = ORIENTED_EDGE('',*,*,#944,.F.);
#951 = CYLINDRICAL_SURFACE('',#952,1.35);
#952 = AXIS2_PLACEMENT_3D('',#953,#954,#955);
#953 = CARTESIAN_POINT('',(81.75,-29.2,-4.6E-02));
#954 = DIRECTION('',(-0.,-0.,-1.));
#955 = DIRECTION('',(-0.,-1.,0.));
#956 = ADVANCED_FACE('',(#957),#973,.F.);
#957 = FACE_BOUND('',#958,.T.);
#958 = EDGE_LOOP('',(#959,#965,#966,#972));
#959 = ORIENTED_EDGE('',*,*,#960,.T.);
#960 = EDGE_CURVE('',#315,#573,#961,.T.);
#961 = LINE('',#962,#963);
#962 = CARTESIAN_POINT('',(94.499999,-33.274,0.));
#963 = VECTOR('',#964,1.);
#964 = DIRECTION('',(0.,0.,1.));
#965 = ORIENTED_EDGE('',*,*,#572,.T.);
#966 = ORIENTED_EDGE('',*,*,#967,.F.);
#967 = EDGE_CURVE('',#317,#575,#968,.T.);
#968 = LINE('',#969,#970);
#969 = CARTESIAN_POINT('',(94.1,-33.673999,0.));
#970 = VECTOR('',#971,1.);
#971 = DIRECTION('',(0.,0.,1.));
#972 = ORIENTED_EDGE('',*,*,#314,.F.);
#973 = CYLINDRICAL_SURFACE('',#974,0.399999018327);
#974 = AXIS2_PLACEMENT_3D('',#975,#976,#977);
#975 = CARTESIAN_POINT('',(94.499999018327,-33.67399901832,0.));
#976 = DIRECTION('',(-0.,-0.,-1.));
#977 = DIRECTION('',(-4.581747124027E-08,1.,0.));
#978 = ADVANCED_FACE('',(#979),#990,.T.);
#979 = FACE_BOUND('',#980,.T.);
#980 = EDGE_LOOP('',(#981,#987,#988,#989));
#981 = ORIENTED_EDGE('',*,*,#982,.T.);
#982 = EDGE_CURVE('',#326,#584,#983,.T.);
#983 = LINE('',#984,#985);
#984 = CARTESIAN_POINT('',(108.7,-33.274,0.));
#985 = VECTOR('',#986,1.);
#986 = DIRECTION('',(0.,0.,1.));
#987 = ORIENTED_EDGE('',*,*,#583,.T.);
#988 = ORIENTED_EDGE('',*,*,#960,.F.);
#989 = ORIENTED_EDGE('',*,*,#325,.F.);
#990 = PLANE('',#991);
#991 = AXIS2_PLACEMENT_3D('',#992,#993,#994);
#992 = CARTESIAN_POINT('',(108.7,-33.274,0.));
#993 = DIRECTION('',(0.,-1.,0.));
#994 = DIRECTION('',(-1.,0.,0.));
#995 = ADVANCED_FACE('',(#996),#1007,.T.);
#996 = FACE_BOUND('',#997,.T.);
#997 = EDGE_LOOP('',(#998,#999,#1000,#1006));
#998 = ORIENTED_EDGE('',*,*,#967,.T.);
#999 = ORIENTED_EDGE('',*,*,#634,.T.);
#1000 = ORIENTED_EDGE('',*,*,#1001,.F.);
#1001 = EDGE_CURVE('',#368,#626,#1002,.T.);
#1002 = LINE('',#1003,#1004);
#1003 = CARTESIAN_POINT('',(94.1,-57.874001,0.));
#1004 = VECTOR('',#1005,1.);
#1005 = DIRECTION('',(0.,0.,1.));
#1006 = ORIENTED_EDGE('',*,*,#376,.F.);
#1007 = PLANE('',#1008);
#1008 = AXIS2_PLACEMENT_3D('',#1009,#1010,#1011);
#1009 = CARTESIAN_POINT('',(94.1,-33.673999,0.));
#1010 = DIRECTION('',(1.,0.,-0.));
#1011 = DIRECTION('',(0.,-1.,0.));
#1012 = ADVANCED_FACE('',(#1013),#1024,.F.);
#1013 = FACE_BOUND('',#1014,.T.);
#1014 = EDGE_LOOP('',(#1015,#1021,#1022,#1023));
#1015 = ORIENTED_EDGE('',*,*,#1016,.T.);
#1016 = EDGE_CURVE('',#334,#592,#1017,.T.);
#1017 = LINE('',#1018,#1019);
#1018 = CARTESIAN_POINT('',(109.1,-33.674,0.));
#1019 = VECTOR('',#1020,1.);
#1020 = DIRECTION('',(0.,0.,1.));
#1021 = ORIENTED_EDGE('',*,*,#591,.T.);
#1022 = ORIENTED_EDGE('',*,*,#982,.F.);
#1023 = ORIENTED_EDGE('',*,*,#333,.F.);
#1024 = CYLINDRICAL_SURFACE('',#1025,0.399999018331);
#1025 = AXIS2_PLACEMENT_3D('',#1026,#1027,#1028);
#1026 = CARTESIAN_POINT('',(108.70000098167,-33.67399901833,0.));
#1027 = DIRECTION('',(-0.,-0.,-1.));
#1028 = DIRECTION('',(0.999999999997,-2.454181410341E-06,0.));
#1029 = ADVANCED_FACE('',(#1030),#1041,.F.);
#1030 = FACE_BOUND('',#1031,.T.);
#1031 = EDGE_LOOP('',(#1032,#1033,#1034,#1040));
#1032 = ORIENTED_EDGE('',*,*,#1001,.T.);
#1033 = ORIENTED_EDGE('',*,*,#625,.T.);
#1034 = ORIENTED_EDGE('',*,*,#1035,.F.);
#1035 = EDGE_CURVE('',#360,#618,#1036,.T.);
#1036 = LINE('',#1037,#1038);
#1037 = CARTESIAN_POINT('',(94.499999,-58.274,0.));
#1038 = VECTOR('',#1039,1.);
#1039 = DIRECTION('',(0.,0.,1.));
#1040 = ORIENTED_EDGE('',*,*,#367,.F.);
#1041 = CYLINDRICAL_SURFACE('',#1042,0.399999018327);
#1042 = AXIS2_PLACEMENT_3D('',#1043,#1044,#1045);
#1043 = CARTESIAN_POINT('',(94.499999018327,-57.87400098167,0.));
#1044 = DIRECTION('',(-0.,-0.,-1.));
#1045 = DIRECTION('',(-1.,-4.581747124027E-08,0.));
#1046 = ADVANCED_FACE('',(#1047),#1058,.T.);
#1047 = FACE_BOUND('',#1048,.T.);
#1048 = EDGE_LOOP('',(#1049,#1055,#1056,#1057));
#1049 = ORIENTED_EDGE('',*,*,#1050,.T.);
#1050 = EDGE_CURVE('',#343,#601,#1051,.T.);
#1051 = LINE('',#1052,#1053);
#1052 = CARTESIAN_POINT('',(109.1,-57.874,0.));
#1053 = VECTOR('',#1054,1.);
#1054 = DIRECTION('',(0.,0.,1.));
#1055 = ORIENTED_EDGE('',*,*,#600,.T.);
#1056 = ORIENTED_EDGE('',*,*,#1016,.F.);
#1057 = ORIENTED_EDGE('',*,*,#342,.F.);
#1058 = PLANE('',#1059);
#1059 = AXIS2_PLACEMENT_3D('',#1060,#1061,#1062);
#1060 = CARTESIAN_POINT('',(109.1,-57.874,0.));
#1061 = DIRECTION('',(-1.,0.,0.));
#1062 = DIRECTION('',(0.,1.,0.));
#1063 = ADVANCED_FACE('',(#1064),#1075,.T.);
#1064 = FACE_BOUND('',#1065,.T.);
#1065 = EDGE_LOOP('',(#1066,#1067,#1068,#1074));
#1066 = ORIENTED_EDGE('',*,*,#1035,.T.);
#1067 = ORIENTED_EDGE('',*,*,#617,.T.);
#1068 = ORIENTED_EDGE('',*,*,#1069,.F.);
#1069 = EDGE_CURVE('',#351,#609,#1070,.T.);
#1070 = LINE('',#1071,#1072);
#1071 = CARTESIAN_POINT('',(108.7,-58.274,0.));
#1072 = VECTOR('',#1073,1.);
#1073 = DIRECTION('',(0.,0.,1.));
#1074 = ORIENTED_EDGE('',*,*,#359,.F.);
#1075 = PLANE('',#1076);
#1076 = AXIS2_PLACEMENT_3D('',#1077,#1078,#1079);
#1077 = CARTESIAN_POINT('',(94.499999,-58.274,0.));
#1078 = DIRECTION('',(0.,1.,0.));
#1079 = DIRECTION('',(1.,0.,0.));
#1080 = ADVANCED_FACE('',(#1081),#1087,.F.);
#1081 = FACE_BOUND('',#1082,.T.);
#1082 = EDGE_LOOP('',(#1083,#1084,#1085,#1086));
#1083 = ORIENTED_EDGE('',*,*,#1069,.T.);
#1084 = ORIENTED_EDGE('',*,*,#608,.T.);
#1085 = ORIENTED_EDGE('',*,*,#1050,.F.);
#1086 = ORIENTED_EDGE('',*,*,#350,.F.);
#1087 = CYLINDRICAL_SURFACE('',#1088,0.399999018331);
#1088 = AXIS2_PLACEMENT_3D('',#1089,#1090,#1091);
#1089 = CARTESIAN_POINT('',(108.70000098167,-57.87400098167,0.));
#1090 = DIRECTION('',(-0.,-0.,-1.));
#1091 = DIRECTION('',(-2.454181374813E-06,-0.999999999997,0.));
#1092 = ADVANCED_FACE('',(#1093),#1104,.F.);
#1093 = FACE_BOUND('',#1094,.T.);
#1094 = EDGE_LOOP('',(#1095,#1096,#1102,#1103));
#1095 = ORIENTED_EDGE('',*,*,#384,.T.);
#1096 = ORIENTED_EDGE('',*,*,#1097,.T.);
#1097 = EDGE_CURVE('',#385,#643,#1098,.T.);
#1098 = LINE('',#1099,#1100);
#1099 = CARTESIAN_POINT('',(121.45,-30.55,-4.6E-02));
#1100 = VECTOR('',#1101,1.);
#1101 = DIRECTION('',(0.,0.,1.));
#1102 = ORIENTED_EDGE('',*,*,#642,.F.);
#1103 = ORIENTED_EDGE('',*,*,#1097,.F.);
#1104 = CYLINDRICAL_SURFACE('',#1105,1.35);
#1105 = AXIS2_PLACEMENT_3D('',#1106,#1107,#1108);
#1106 = CARTESIAN_POINT('',(121.45,-29.2,-4.6E-02));
#1107 = DIRECTION('',(-0.,0.,-1.));
#1108 = DIRECTION('',(1.05265590483E-14,-1.,-0.));
#1109 = ( GEOMETRIC_REPRESENTATION_CONTEXT(3) 
GLOBAL_UNCERTAINTY_ASSIGNED_CONTEXT((#1113)) 
GLOBAL_UNIT_ASSIGNED_CONTEXT((#1110,#1111,#1112)) REPRESENTATION_CONTEXT
('Context #1','3D Context with UNIT and UNCERTAINTY') );
#1110 = ( LENGTH_UNIT() NAMED_UNIT(*) SI_UNIT(.MILLI.,.METRE.) );
#1111 = ( NAMED_UNIT(*) PLANE_ANGLE_UNIT() SI_UNIT($,.RADIAN.) );
#1112 = ( NAMED_UNIT(*) SI_UNIT($,.STERADIAN.) SOLID_ANGLE_UNIT() );
#1113 = UNCERTAINTY_MEASURE_WITH_UNIT(LENGTH_MEASURE(1.E-07),#1110,
  'distance_accuracy_value','confusion accuracy');
#1114 = CONTEXT_DEPENDENT_SHAPE_REPRESENTATION(#1115,#1117);
#1115 = ( REPRESENTATION_RELATIONSHIP('','',#32,#10) 
REPRESENTATION_RELATIONSHIP_WITH_TRANSFORMATION(#1116) 
SHAPE_REPRESENTATION_RELATIONSHIP() );
#1116 = ITEM_DEFINED_TRANSFORMATION('','',#11,#15);
#1117 = PRODUCT_DEFINITION_SHAPE('Placement','Placement of an item',
  #1118);
#1118 = NEXT_ASSEMBLY_USAGE_OCCURRENCE('1','=>[0:1:1:2]','',#5,#27,$);
#1119 = PRODUCT_RELATED_PRODUCT_CATEGORY('part',$,(#29));
#1120 = MECHANICAL_DESIGN_GEOMETRIC_PRESENTATION_REPRESENTATION('',(
    #1121),#1109);
#1121 = STYLED_ITEM('color',(#1122),#33);
#1122 = PRESENTATION_STYLE_ASSIGNMENT((#1123));
#1123 = SURFACE_STYLE_USAGE(.BOTH.,#1124);
#1124 = SURFACE_SIDE_STYLE('',(#1125));
#1125 = SURFACE_STYLE_FILL_AREA(#1126);
#1126 = FILL_AREA_STYLE('',(#1127));
#1127 = FILL_AREA_STYLE_COLOUR('',#1128);
#1128 = COLOUR_RGB('',0.313304153717,0.484529207832,0.410020903123);
ENDSEC;
END-ISO-10303-21;
