ISO-10303-21;
HEADER;
/*Generated by software containing ST-Developer
 * from STEP Tools, Inc. (www.steptools.com) 
 */
/*OPTION: using custom renumber hook */
/*description */
/*implementation_level */
FILE_DESCRIPTION(('STEP AP242 Edition 2','STEP AP242 Edition 2''CAx-IF Rec.Pracs.---Representation and Presentation of Product Manufa
cturing Information (PMI)---4.0---2014-10-13','STEP AP242 Edition 2''CAx-IF Rec.Pracs.---Representation and Presentation of Product Manufa
cturing Information (PMI)---4.0---2014-10-13''CAx-IF Rec.Pracs.---3D Tessellated Geometry---0.4---2014-09-14','STEP AP242 Edition 2''CAx-IF Rec.Pracs.---Representation and Presentation of Product Manufa
cturing Information (PMI)---4.0---2014-10-13''CAx-IF Rec.Pracs.---3D Tessellated Geometry---0.4---2014-09-14''2;1','STEP AP242 Edition 2''CAx-IF Rec.Pracs.---Representation and Presentation of Product Manufa
cturing Information (PMI)---4.0---2014-10-13''CAx-IF Rec.Pracs.---3D Tessellated Geometry---0.4---2014-09-14''2;1''CAx-IF Rec.Pracs.---User Defined Attributes---1.5---2016-08-15'),'2;1');
/*name */
/*time_stamp */
/*author */
/*organization */
/*preprocessor_version */
/*originating_system */
/*authorisation */
FILE_NAME('/vol/tmp/translate-11133264838909710793/core - mods_core_side_l.step','2026-03-26T10:50:53',(''),(''),'ST-DEVELOPER v20','ONSHAPE BY PTC INC, 1.212','  ');
FILE_SCHEMA(('AP242_MANAGED_MODEL_BASED_3D_ENGINEERING_MIM_LF { 1 0 10303 442 3 1 4 }'));
ENDSEC;
DATA;
#10=SHAPE_REPRESENTATION_RELATIONSHIP('','',#604,#11);
#11=ADVANCED_BREP_SHAPE_REPRESENTATION('',(#602),#1034);
#12=ORIENTED_CLOSED_SHELL('',*,#590,.F.);
#13=ORIENTED_CLOSED_SHELL('',*,#591,.F.);
#14=ORIENTED_CLOSED_SHELL('',*,#592,.F.);
#15=ORIENTED_CLOSED_SHELL('',*,#593,.F.);
#16=B_SPLINE_CURVE_WITH_KNOTS('',3,(#974,#975,#976,#977),.UNSPECIFIED.,.F.,.F.,(4,4),(0.,1.),.UNSPECIFIED.);
#17=B_SPLINE_CURVE_WITH_KNOTS('',3,(#986,#987,#988,#989),.UNSPECIFIED.,.F.,.F.,(4,4),(0.,1.),.UNSPECIFIED.);
#18=LINE('',#873,#57);
#19=LINE('',#876,#58);
#20=LINE('',#878,#59);
#21=LINE('',#880,#60);
#22=LINE('',#884,#61);
#23=LINE('',#889,#62);
#24=LINE('',#893,#63);
#25=LINE('',#897,#64);
#26=LINE('',#902,#65);
#27=LINE('',#906,#66);
#28=LINE('',#910,#67);
#29=LINE('',#914,#68);
#30=LINE('',#916,#69);
#31=LINE('',#918,#70);
#32=LINE('',#920,#71);
#33=LINE('',#922,#72);
#34=LINE('',#924,#73);
#35=LINE('',#926,#74);
#36=LINE('',#928,#75);
#37=LINE('',#930,#76);
#38=LINE('',#932,#77);
#39=LINE('',#935,#78);
#40=LINE('',#936,#79);
#41=LINE('',#938,#80);
#42=LINE('',#940,#81);
#43=LINE('',#942,#82);
#44=LINE('',#946,#83);
#45=LINE('',#948,#84);
#46=LINE('',#953,#85);
#47=LINE('',#958,#86);
#48=LINE('',#962,#87);
#49=LINE('',#966,#88);
#50=LINE('',#978,#89);
#51=LINE('',#980,#90);
#52=LINE('',#981,#91);
#53=LINE('',#983,#92);
#54=LINE('',#984,#93);
#55=LINE('',#990,#94);
#56=LINE('',#992,#95);
#57=VECTOR('',#695,1.);
#58=VECTOR('',#696,1.);
#59=VECTOR('',#697,1.);
#60=VECTOR('',#698,1.);
#61=VECTOR('',#703,1.);
#62=VECTOR('',#706,1.);
#63=VECTOR('',#709,1.);
#64=VECTOR('',#712,1.);
#65=VECTOR('',#717,1.);
#66=VECTOR('',#720,1.);
#67=VECTOR('',#723,1.);
#68=VECTOR('',#726,1.);
#69=VECTOR('',#727,1.);
#70=VECTOR('',#728,1.);
#71=VECTOR('',#731,1.);
#72=VECTOR('',#732,1.);
#73=VECTOR('',#733,1.);
#74=VECTOR('',#736,1.);
#75=VECTOR('',#737,1.);
#76=VECTOR('',#738,1.);
#77=VECTOR('',#741,1.);
#78=VECTOR('',#742,1.);
#79=VECTOR('',#743,1.);
#80=VECTOR('',#746,1.);
#81=VECTOR('',#747,1.);
#82=VECTOR('',#748,1.);
#83=VECTOR('',#753,1.);
#84=VECTOR('',#754,1.);
#85=VECTOR('',#763,1.);
#86=VECTOR('',#766,1.);
#87=VECTOR('',#769,1.);
#88=VECTOR('',#772,1.);
#89=VECTOR('',#785,1.);
#90=VECTOR('',#788,1.);
#91=VECTOR('',#789,1.);
#92=VECTOR('',#792,1.);
#93=VECTOR('',#793,1.);
#94=VECTOR('',#796,1.);
#95=VECTOR('',#799,1.);
#96=PLANE('',#612);
#97=PLANE('',#613);
#98=PLANE('',#614);
#99=PLANE('',#624);
#100=PLANE('',#625);
#101=PLANE('',#626);
#102=PLANE('',#627);
#103=PLANE('',#628);
#104=PLANE('',#642);
#105=PLANE('',#643);
#106=PLANE('',#644);
#107=PLANE('',#645);
#108=PLANE('',#646);
#109=PLANE('',#647);
#110=PLANE('',#650);
#111=PLANE('',#657);
#112=PLANE('',#661);
#113=PLANE('',#662);
#114=PLANE('',#666);
#115=PLANE('',#667);
#116=PLANE('',#669);
#117=PLANE('',#672);
#118=PLANE('',#674);
#119=ORIENTED_EDGE('',*,*,#265,.T.);
#120=ORIENTED_EDGE('',*,*,#266,.F.);
#121=ORIENTED_EDGE('',*,*,#267,.F.);
#122=ORIENTED_EDGE('',*,*,#268,.T.);
#123=ORIENTED_EDGE('',*,*,#265,.F.);
#124=ORIENTED_EDGE('',*,*,#267,.T.);
#125=ORIENTED_EDGE('',*,*,#269,.T.);
#126=ORIENTED_EDGE('',*,*,#270,.F.);
#127=ORIENTED_EDGE('',*,*,#271,.F.);
#128=ORIENTED_EDGE('',*,*,#272,.T.);
#129=ORIENTED_EDGE('',*,*,#266,.T.);
#130=ORIENTED_EDGE('',*,*,#273,.F.);
#131=ORIENTED_EDGE('',*,*,#274,.F.);
#132=ORIENTED_EDGE('',*,*,#275,.F.);
#133=ORIENTED_EDGE('',*,*,#276,.F.);
#134=ORIENTED_EDGE('',*,*,#277,.F.);
#135=ORIENTED_EDGE('',*,*,#278,.T.);
#136=ORIENTED_EDGE('',*,*,#279,.F.);
#137=ORIENTED_EDGE('',*,*,#280,.F.);
#138=ORIENTED_EDGE('',*,*,#281,.F.);
#139=ORIENTED_EDGE('',*,*,#272,.F.);
#140=ORIENTED_EDGE('',*,*,#282,.F.);
#141=ORIENTED_EDGE('',*,*,#283,.T.);
#142=ORIENTED_EDGE('',*,*,#284,.F.);
#143=ORIENTED_EDGE('',*,*,#285,.T.);
#144=ORIENTED_EDGE('',*,*,#286,.F.);
#145=ORIENTED_EDGE('',*,*,#287,.F.);
#146=ORIENTED_EDGE('',*,*,#288,.F.);
#147=ORIENTED_EDGE('',*,*,#289,.F.);
#148=ORIENTED_EDGE('',*,*,#290,.F.);
#149=ORIENTED_EDGE('',*,*,#291,.F.);
#150=ORIENTED_EDGE('',*,*,#283,.F.);
#151=ORIENTED_EDGE('',*,*,#292,.F.);
#152=ORIENTED_EDGE('',*,*,#293,.T.);
#153=ORIENTED_EDGE('',*,*,#294,.F.);
#154=ORIENTED_EDGE('',*,*,#285,.F.);
#155=ORIENTED_EDGE('',*,*,#295,.F.);
#156=ORIENTED_EDGE('',*,*,#296,.T.);
#157=ORIENTED_EDGE('',*,*,#297,.F.);
#158=ORIENTED_EDGE('',*,*,#298,.F.);
#159=ORIENTED_EDGE('',*,*,#299,.F.);
#160=ORIENTED_EDGE('',*,*,#287,.T.);
#161=ORIENTED_EDGE('',*,*,#300,.F.);
#162=ORIENTED_EDGE('',*,*,#289,.T.);
#163=ORIENTED_EDGE('',*,*,#301,.F.);
#164=ORIENTED_EDGE('',*,*,#302,.F.);
#165=ORIENTED_EDGE('',*,*,#303,.F.);
#166=ORIENTED_EDGE('',*,*,#268,.F.);
#167=ORIENTED_EDGE('',*,*,#304,.T.);
#168=ORIENTED_EDGE('',*,*,#305,.T.);
#169=ORIENTED_EDGE('',*,*,#306,.T.);
#170=ORIENTED_EDGE('',*,*,#302,.T.);
#171=ORIENTED_EDGE('',*,*,#307,.F.);
#172=ORIENTED_EDGE('',*,*,#298,.T.);
#173=ORIENTED_EDGE('',*,*,#308,.F.);
#174=ORIENTED_EDGE('',*,*,#296,.F.);
#175=ORIENTED_EDGE('',*,*,#309,.F.);
#176=ORIENTED_EDGE('',*,*,#293,.F.);
#177=ORIENTED_EDGE('',*,*,#310,.F.);
#178=ORIENTED_EDGE('',*,*,#270,.T.);
#179=ORIENTED_EDGE('',*,*,#311,.T.);
#180=ORIENTED_EDGE('',*,*,#312,.F.);
#181=ORIENTED_EDGE('',*,*,#313,.F.);
#182=ORIENTED_EDGE('',*,*,#314,.F.);
#183=ORIENTED_EDGE('',*,*,#315,.T.);
#184=ORIENTED_EDGE('',*,*,#316,.F.);
#185=ORIENTED_EDGE('',*,*,#317,.T.);
#186=ORIENTED_EDGE('',*,*,#318,.F.);
#187=ORIENTED_EDGE('',*,*,#286,.T.);
#188=ORIENTED_EDGE('',*,*,#297,.T.);
#189=ORIENTED_EDGE('',*,*,#308,.T.);
#190=ORIENTED_EDGE('',*,*,#300,.T.);
#191=ORIENTED_EDGE('',*,*,#284,.T.);
#192=ORIENTED_EDGE('',*,*,#294,.T.);
#193=ORIENTED_EDGE('',*,*,#309,.T.);
#194=ORIENTED_EDGE('',*,*,#295,.T.);
#195=ORIENTED_EDGE('',*,*,#288,.T.);
#196=ORIENTED_EDGE('',*,*,#299,.T.);
#197=ORIENTED_EDGE('',*,*,#307,.T.);
#198=ORIENTED_EDGE('',*,*,#301,.T.);
#199=ORIENTED_EDGE('',*,*,#282,.T.);
#200=ORIENTED_EDGE('',*,*,#271,.T.);
#201=ORIENTED_EDGE('',*,*,#310,.T.);
#202=ORIENTED_EDGE('',*,*,#292,.T.);
#203=ORIENTED_EDGE('',*,*,#319,.F.);
#204=ORIENTED_EDGE('',*,*,#311,.F.);
#205=ORIENTED_EDGE('',*,*,#320,.F.);
#206=ORIENTED_EDGE('',*,*,#280,.T.);
#207=ORIENTED_EDGE('',*,*,#274,.T.);
#208=ORIENTED_EDGE('',*,*,#321,.F.);
#209=ORIENTED_EDGE('',*,*,#317,.F.);
#210=ORIENTED_EDGE('',*,*,#322,.F.);
#211=ORIENTED_EDGE('',*,*,#313,.T.);
#212=ORIENTED_EDGE('',*,*,#323,.F.);
#213=ORIENTED_EDGE('',*,*,#278,.F.);
#214=ORIENTED_EDGE('',*,*,#324,.F.);
#215=ORIENTED_EDGE('',*,*,#325,.F.);
#216=ORIENTED_EDGE('',*,*,#276,.T.);
#217=ORIENTED_EDGE('',*,*,#326,.F.);
#218=ORIENTED_EDGE('',*,*,#315,.F.);
#219=ORIENTED_EDGE('',*,*,#269,.F.);
#220=ORIENTED_EDGE('',*,*,#291,.T.);
#221=ORIENTED_EDGE('',*,*,#327,.T.);
#222=ORIENTED_EDGE('',*,*,#305,.F.);
#223=ORIENTED_EDGE('',*,*,#327,.F.);
#224=ORIENTED_EDGE('',*,*,#290,.T.);
#225=ORIENTED_EDGE('',*,*,#303,.T.);
#226=ORIENTED_EDGE('',*,*,#306,.F.);
#227=ORIENTED_EDGE('',*,*,#328,.T.);
#228=ORIENTED_EDGE('',*,*,#304,.F.);
#229=ORIENTED_EDGE('',*,*,#329,.T.);
#230=ORIENTED_EDGE('',*,*,#328,.F.);
#231=ORIENTED_EDGE('',*,*,#329,.F.);
#232=ORIENTED_EDGE('',*,*,#273,.T.);
#233=ORIENTED_EDGE('',*,*,#277,.T.);
#234=ORIENTED_EDGE('',*,*,#325,.T.);
#235=ORIENTED_EDGE('',*,*,#314,.T.);
#236=ORIENTED_EDGE('',*,*,#324,.T.);
#237=ORIENTED_EDGE('',*,*,#275,.T.);
#238=ORIENTED_EDGE('',*,*,#322,.T.);
#239=ORIENTED_EDGE('',*,*,#316,.T.);
#240=ORIENTED_EDGE('',*,*,#326,.T.);
#241=ORIENTED_EDGE('',*,*,#279,.T.);
#242=ORIENTED_EDGE('',*,*,#323,.T.);
#243=ORIENTED_EDGE('',*,*,#312,.T.);
#244=ORIENTED_EDGE('',*,*,#319,.T.);
#245=ORIENTED_EDGE('',*,*,#281,.T.);
#246=ORIENTED_EDGE('',*,*,#320,.T.);
#247=ORIENTED_EDGE('',*,*,#318,.T.);
#248=ORIENTED_EDGE('',*,*,#321,.T.);
#249=ORIENTED_EDGE('',*,*,#330,.F.);
#250=ORIENTED_EDGE('',*,*,#331,.F.);
#251=ORIENTED_EDGE('',*,*,#330,.T.);
#252=ORIENTED_EDGE('',*,*,#331,.T.);
#253=ORIENTED_EDGE('',*,*,#332,.F.);
#254=ORIENTED_EDGE('',*,*,#333,.F.);
#255=ORIENTED_EDGE('',*,*,#332,.T.);
#256=ORIENTED_EDGE('',*,*,#333,.T.);
#257=ORIENTED_EDGE('',*,*,#334,.F.);
#258=ORIENTED_EDGE('',*,*,#335,.T.);
#259=ORIENTED_EDGE('',*,*,#334,.T.);
#260=ORIENTED_EDGE('',*,*,#335,.F.);
#261=ORIENTED_EDGE('',*,*,#336,.F.);
#262=ORIENTED_EDGE('',*,*,#337,.T.);
#263=ORIENTED_EDGE('',*,*,#336,.T.);
#264=ORIENTED_EDGE('',*,*,#337,.F.);
#265=EDGE_CURVE('',#338,#338,#392,.T.);
#266=EDGE_CURVE('',#339,#339,#393,.F.);
#267=EDGE_CURVE('',#340,#340,#394,.T.);
#268=EDGE_CURVE('',#341,#341,#395,.T.);
#269=EDGE_CURVE('',#342,#343,#18,.T.);
#270=EDGE_CURVE('',#344,#343,#19,.T.);
#271=EDGE_CURVE('',#345,#344,#20,.T.);
#272=EDGE_CURVE('',#345,#342,#21,.T.);
#273=EDGE_CURVE('',#346,#346,#396,.F.);
#274=EDGE_CURVE('',#347,#348,#22,.T.);
#275=EDGE_CURVE('',#349,#347,#397,.F.);
#276=EDGE_CURVE('',#350,#349,#23,.T.);
#277=EDGE_CURVE('',#351,#350,#398,.F.);
#278=EDGE_CURVE('',#351,#352,#24,.T.);
#279=EDGE_CURVE('',#353,#352,#399,.F.);
#280=EDGE_CURVE('',#354,#353,#25,.T.);
#281=EDGE_CURVE('',#348,#354,#400,.F.);
#282=EDGE_CURVE('',#355,#345,#401,.T.);
#283=EDGE_CURVE('',#355,#356,#26,.T.);
#284=EDGE_CURVE('',#357,#356,#402,.T.);
#285=EDGE_CURVE('',#357,#358,#27,.T.);
#286=EDGE_CURVE('',#359,#358,#403,.T.);
#287=EDGE_CURVE('',#360,#359,#28,.T.);
#288=EDGE_CURVE('',#361,#360,#404,.T.);
#289=EDGE_CURVE('',#362,#361,#29,.T.);
#290=EDGE_CURVE('',#363,#362,#30,.T.);
#291=EDGE_CURVE('',#342,#363,#31,.T.);
#292=EDGE_CURVE('',#364,#355,#32,.F.);
#293=EDGE_CURVE('',#364,#365,#33,.T.);
#294=EDGE_CURVE('',#356,#365,#34,.T.);
#295=EDGE_CURVE('',#366,#357,#35,.F.);
#296=EDGE_CURVE('',#366,#367,#36,.T.);
#297=EDGE_CURVE('',#358,#367,#37,.T.);
#298=EDGE_CURVE('',#368,#369,#38,.T.);
#299=EDGE_CURVE('',#360,#368,#39,.T.);
#300=EDGE_CURVE('',#369,#359,#40,.F.);
#301=EDGE_CURVE('',#370,#361,#41,.F.);
#302=EDGE_CURVE('',#371,#370,#42,.T.);
#303=EDGE_CURVE('',#362,#371,#43,.T.);
#304=EDGE_CURVE('',#372,#372,#405,.T.);
#305=EDGE_CURVE('',#343,#373,#44,.T.);
#306=EDGE_CURVE('',#373,#371,#45,.T.);
#307=EDGE_CURVE('',#368,#370,#406,.T.);
#308=EDGE_CURVE('',#367,#369,#407,.T.);
#309=EDGE_CURVE('',#365,#366,#408,.T.);
#310=EDGE_CURVE('',#344,#364,#409,.T.);
#311=EDGE_CURVE('',#374,#375,#46,.T.);
#312=EDGE_CURVE('',#376,#375,#410,.F.);
#313=EDGE_CURVE('',#377,#376,#47,.T.);
#314=EDGE_CURVE('',#378,#377,#411,.F.);
#315=EDGE_CURVE('',#378,#379,#48,.T.);
#316=EDGE_CURVE('',#380,#379,#412,.F.);
#317=EDGE_CURVE('',#380,#381,#49,.T.);
#318=EDGE_CURVE('',#374,#381,#413,.F.);
#319=EDGE_CURVE('',#375,#353,#16,.F.);
#320=EDGE_CURVE('',#354,#374,#50,.F.);
#321=EDGE_CURVE('',#381,#348,#51,.F.);
#322=EDGE_CURVE('',#347,#380,#52,.T.);
#323=EDGE_CURVE('',#352,#376,#53,.T.);
#324=EDGE_CURVE('',#377,#351,#54,.F.);
#325=EDGE_CURVE('',#350,#378,#17,.F.);
#326=EDGE_CURVE('',#379,#349,#55,.T.);
#327=EDGE_CURVE('',#363,#373,#56,.T.);
#328=EDGE_CURVE('',#382,#382,#414,.T.);
#329=EDGE_CURVE('',#383,#383,#415,.T.);
#330=EDGE_CURVE('',#384,#384,#416,.T.);
#331=EDGE_CURVE('',#385,#385,#417,.T.);
#332=EDGE_CURVE('',#386,#386,#418,.T.);
#333=EDGE_CURVE('',#387,#387,#419,.T.);
#334=EDGE_CURVE('',#388,#388,#420,.T.);
#335=EDGE_CURVE('',#389,#389,#421,.T.);
#336=EDGE_CURVE('',#390,#390,#422,.T.);
#337=EDGE_CURVE('',#391,#391,#423,.T.);
#338=VERTEX_POINT('',#863);
#339=VERTEX_POINT('',#865);
#340=VERTEX_POINT('',#868);
#341=VERTEX_POINT('',#870);
#342=VERTEX_POINT('',#874);
#343=VERTEX_POINT('',#875);
#344=VERTEX_POINT('',#877);
#345=VERTEX_POINT('',#879);
#346=VERTEX_POINT('',#883);
#347=VERTEX_POINT('',#885);
#348=VERTEX_POINT('',#886);
#349=VERTEX_POINT('',#888);
#350=VERTEX_POINT('',#890);
#351=VERTEX_POINT('',#892);
#352=VERTEX_POINT('',#894);
#353=VERTEX_POINT('',#896);
#354=VERTEX_POINT('',#898);
#355=VERTEX_POINT('',#901);
#356=VERTEX_POINT('',#903);
#357=VERTEX_POINT('',#905);
#358=VERTEX_POINT('',#907);
#359=VERTEX_POINT('',#909);
#360=VERTEX_POINT('',#911);
#361=VERTEX_POINT('',#913);
#362=VERTEX_POINT('',#915);
#363=VERTEX_POINT('',#917);
#364=VERTEX_POINT('',#921);
#365=VERTEX_POINT('',#923);
#366=VERTEX_POINT('',#927);
#367=VERTEX_POINT('',#929);
#368=VERTEX_POINT('',#933);
#369=VERTEX_POINT('',#934);
#370=VERTEX_POINT('',#939);
#371=VERTEX_POINT('',#941);
#372=VERTEX_POINT('',#945);
#373=VERTEX_POINT('',#947);
#374=VERTEX_POINT('',#954);
#375=VERTEX_POINT('',#955);
#376=VERTEX_POINT('',#957);
#377=VERTEX_POINT('',#959);
#378=VERTEX_POINT('',#961);
#379=VERTEX_POINT('',#963);
#380=VERTEX_POINT('',#965);
#381=VERTEX_POINT('',#967);
#382=VERTEX_POINT('',#996);
#383=VERTEX_POINT('',#999);
#384=VERTEX_POINT('',#1007);
#385=VERTEX_POINT('',#1010);
#386=VERTEX_POINT('',#1014);
#387=VERTEX_POINT('',#1017);
#388=VERTEX_POINT('',#1021);
#389=VERTEX_POINT('',#1024);
#390=VERTEX_POINT('',#1028);
#391=VERTEX_POINT('',#1031);
#392=CIRCLE('',#607,0.0015);
#393=CIRCLE('',#608,0.0015);
#394=CIRCLE('',#610,0.003);
#395=CIRCLE('',#611,0.003);
#396=CIRCLE('',#615,0.0015);
#397=CIRCLE('',#616,0.0004);
#398=CIRCLE('',#617,0.0004);
#399=CIRCLE('',#618,0.0004);
#400=CIRCLE('',#619,0.0004);
#401=CIRCLE('',#620,0.0004);
#402=CIRCLE('',#621,0.0004);
#403=CIRCLE('',#622,0.0004);
#404=CIRCLE('',#623,0.0004);
#405=CIRCLE('',#629,0.003);
#406=CIRCLE('',#630,0.0004);
#407=CIRCLE('',#631,0.0004);
#408=CIRCLE('',#632,0.0004);
#409=CIRCLE('',#633,0.0004);
#410=CIRCLE('',#634,0.0004);
#411=CIRCLE('',#635,0.0004);
#412=CIRCLE('',#636,0.0004);
#413=CIRCLE('',#637,0.0004);
#414=CIRCLE('',#649,0.003);
#415=CIRCLE('',#651,0.0015);
#416=CIRCLE('',#658,0.00275);
#417=CIRCLE('',#660,0.00275);
#418=CIRCLE('',#663,0.00275);
#419=CIRCLE('',#665,0.00275);
#420=CIRCLE('',#668,0.00275);
#421=CIRCLE('',#670,0.00275);
#422=CIRCLE('',#673,0.00275);
#423=CIRCLE('',#675,0.00275);
#424=EDGE_LOOP('',(#119));
#425=EDGE_LOOP('',(#120));
#426=EDGE_LOOP('',(#121));
#427=EDGE_LOOP('',(#122));
#428=EDGE_LOOP('',(#123));
#429=EDGE_LOOP('',(#124));
#430=EDGE_LOOP('',(#125,#126,#127,#128));
#431=EDGE_LOOP('',(#129));
#432=EDGE_LOOP('',(#130));
#433=EDGE_LOOP('',(#131,#132,#133,#134,#135,#136,#137,#138));
#434=EDGE_LOOP('',(#139,#140,#141,#142,#143,#144,#145,#146,#147,#148,#149));
#435=EDGE_LOOP('',(#150,#151,#152,#153));
#436=EDGE_LOOP('',(#154,#155,#156,#157));
#437=EDGE_LOOP('',(#158,#159,#160,#161));
#438=EDGE_LOOP('',(#162,#163,#164,#165));
#439=EDGE_LOOP('',(#166));
#440=EDGE_LOOP('',(#167));
#441=EDGE_LOOP('',(#168,#169,#170,#171,#172,#173,#174,#175,#176,#177,#178));
#442=EDGE_LOOP('',(#179,#180,#181,#182,#183,#184,#185,#186));
#443=EDGE_LOOP('',(#187,#188,#189,#190));
#444=EDGE_LOOP('',(#191,#192,#193,#194));
#445=EDGE_LOOP('',(#195,#196,#197,#198));
#446=EDGE_LOOP('',(#199,#200,#201,#202));
#447=EDGE_LOOP('',(#203,#204,#205,#206));
#448=EDGE_LOOP('',(#207,#208,#209,#210));
#449=EDGE_LOOP('',(#211,#212,#213,#214));
#450=EDGE_LOOP('',(#215,#216,#217,#218));
#451=EDGE_LOOP('',(#219,#220,#221,#222));
#452=EDGE_LOOP('',(#223,#224,#225,#226));
#453=EDGE_LOOP('',(#227));
#454=EDGE_LOOP('',(#228));
#455=EDGE_LOOP('',(#229));
#456=EDGE_LOOP('',(#230));
#457=EDGE_LOOP('',(#231));
#458=EDGE_LOOP('',(#232));
#459=EDGE_LOOP('',(#233,#234,#235,#236));
#460=EDGE_LOOP('',(#237,#238,#239,#240));
#461=EDGE_LOOP('',(#241,#242,#243,#244));
#462=EDGE_LOOP('',(#245,#246,#247,#248));
#463=EDGE_LOOP('',(#249));
#464=EDGE_LOOP('',(#250));
#465=EDGE_LOOP('',(#251));
#466=EDGE_LOOP('',(#252));
#467=EDGE_LOOP('',(#253));
#468=EDGE_LOOP('',(#254));
#469=EDGE_LOOP('',(#255));
#470=EDGE_LOOP('',(#256));
#471=EDGE_LOOP('',(#257));
#472=EDGE_LOOP('',(#258));
#473=EDGE_LOOP('',(#259));
#474=EDGE_LOOP('',(#260));
#475=EDGE_LOOP('',(#261));
#476=EDGE_LOOP('',(#262));
#477=EDGE_LOOP('',(#263));
#478=EDGE_LOOP('',(#264));
#479=FACE_BOUND('',#424,.T.);
#480=FACE_BOUND('',#425,.T.);
#481=FACE_BOUND('',#426,.T.);
#482=FACE_BOUND('',#427,.T.);
#483=FACE_BOUND('',#428,.T.);
#484=FACE_BOUND('',#429,.T.);
#485=FACE_BOUND('',#430,.T.);
#486=FACE_BOUND('',#431,.T.);
#487=FACE_BOUND('',#432,.T.);
#488=FACE_BOUND('',#433,.T.);
#489=FACE_BOUND('',#434,.T.);
#490=FACE_BOUND('',#435,.T.);
#491=FACE_BOUND('',#436,.T.);
#492=FACE_BOUND('',#437,.T.);
#493=FACE_BOUND('',#438,.T.);
#494=FACE_BOUND('',#439,.T.);
#495=FACE_BOUND('',#440,.T.);
#496=FACE_BOUND('',#441,.T.);
#497=FACE_BOUND('',#442,.T.);
#498=FACE_BOUND('',#443,.T.);
#499=FACE_BOUND('',#444,.T.);
#500=FACE_BOUND('',#445,.T.);
#501=FACE_BOUND('',#446,.T.);
#502=FACE_BOUND('',#447,.T.);
#503=FACE_BOUND('',#448,.T.);
#504=FACE_BOUND('',#449,.T.);
#505=FACE_BOUND('',#450,.T.);
#506=FACE_BOUND('',#451,.T.);
#507=FACE_BOUND('',#452,.T.);
#508=FACE_BOUND('',#453,.T.);
#509=FACE_BOUND('',#454,.T.);
#510=FACE_BOUND('',#455,.T.);
#511=FACE_BOUND('',#456,.T.);
#512=FACE_BOUND('',#457,.T.);
#513=FACE_BOUND('',#458,.T.);
#514=FACE_BOUND('',#459,.T.);
#515=FACE_BOUND('',#460,.T.);
#516=FACE_BOUND('',#461,.T.);
#517=FACE_BOUND('',#462,.T.);
#518=FACE_BOUND('',#463,.T.);
#519=FACE_BOUND('',#464,.T.);
#520=FACE_BOUND('',#465,.T.);
#521=FACE_BOUND('',#466,.T.);
#522=FACE_BOUND('',#467,.T.);
#523=FACE_BOUND('',#468,.T.);
#524=FACE_BOUND('',#469,.T.);
#525=FACE_BOUND('',#470,.T.);
#526=FACE_BOUND('',#471,.T.);
#527=FACE_BOUND('',#472,.T.);
#528=FACE_BOUND('',#473,.T.);
#529=FACE_BOUND('',#474,.T.);
#530=FACE_BOUND('',#475,.T.);
#531=FACE_BOUND('',#476,.T.);
#532=FACE_BOUND('',#477,.T.);
#533=FACE_BOUND('',#478,.T.);
#534=CYLINDRICAL_SURFACE('',#606,0.0015);
#535=CYLINDRICAL_SURFACE('',#609,0.003);
#536=CYLINDRICAL_SURFACE('',#638,0.0004);
#537=CYLINDRICAL_SURFACE('',#639,0.0004);
#538=CYLINDRICAL_SURFACE('',#640,0.0004);
#539=CYLINDRICAL_SURFACE('',#641,0.0004);
#540=CYLINDRICAL_SURFACE('',#648,0.003);
#541=CYLINDRICAL_SURFACE('',#652,0.0015);
#542=CYLINDRICAL_SURFACE('',#653,0.0004);
#543=CYLINDRICAL_SURFACE('',#654,0.0004);
#544=CYLINDRICAL_SURFACE('',#655,0.0004);
#545=CYLINDRICAL_SURFACE('',#656,0.0004);
#546=CYLINDRICAL_SURFACE('',#659,0.00275);
#547=CYLINDRICAL_SURFACE('',#664,0.00275);
#548=CYLINDRICAL_SURFACE('',#671,0.00275);
#549=CYLINDRICAL_SURFACE('',#676,0.00275);
#550=ADVANCED_FACE('',(#479,#480),#534,.F.);
#551=ADVANCED_FACE('',(#481,#482),#535,.F.);
#552=ADVANCED_FACE('',(#483,#484),#96,.T.);
#553=ADVANCED_FACE('',(#485),#97,.F.);
#554=ADVANCED_FACE('',(#486,#487,#488,#489),#98,.T.);
#555=ADVANCED_FACE('',(#490),#99,.T.);
#556=ADVANCED_FACE('',(#491),#100,.T.);
#557=ADVANCED_FACE('',(#492),#101,.F.);
#558=ADVANCED_FACE('',(#493),#102,.F.);
#559=ADVANCED_FACE('',(#494,#495,#496,#497),#103,.T.);
#560=ADVANCED_FACE('',(#498),#536,.T.);
#561=ADVANCED_FACE('',(#499),#537,.T.);
#562=ADVANCED_FACE('',(#500),#538,.T.);
#563=ADVANCED_FACE('',(#501),#539,.T.);
#564=ADVANCED_FACE('',(#502),#104,.F.);
#565=ADVANCED_FACE('',(#503),#105,.F.);
#566=ADVANCED_FACE('',(#504),#106,.T.);
#567=ADVANCED_FACE('',(#505),#107,.F.);
#568=ADVANCED_FACE('',(#506),#108,.F.);
#569=ADVANCED_FACE('',(#507),#109,.F.);
#570=ADVANCED_FACE('',(#508,#509),#540,.F.);
#571=ADVANCED_FACE('',(#510,#511),#110,.T.);
#572=ADVANCED_FACE('',(#512,#513),#541,.F.);
#573=ADVANCED_FACE('',(#514),#542,.F.);
#574=ADVANCED_FACE('',(#515),#543,.F.);
#575=ADVANCED_FACE('',(#516),#544,.F.);
#576=ADVANCED_FACE('',(#517),#545,.F.);
#577=ADVANCED_FACE('',(#518),#111,.F.);
#578=ADVANCED_FACE('',(#519,#520),#546,.F.);
#579=ADVANCED_FACE('',(#521),#112,.F.);
#580=ADVANCED_FACE('',(#522),#113,.F.);
#581=ADVANCED_FACE('',(#523,#524),#547,.F.);
#582=ADVANCED_FACE('',(#525),#114,.F.);
#583=ADVANCED_FACE('',(#526),#115,.F.);
#584=ADVANCED_FACE('',(#527),#116,.F.);
#585=ADVANCED_FACE('',(#528,#529),#548,.F.);
#586=ADVANCED_FACE('',(#530),#117,.F.);
#587=ADVANCED_FACE('',(#531),#118,.F.);
#588=ADVANCED_FACE('',(#532,#533),#549,.F.);
#589=CLOSED_SHELL('',(#550,#551,#552,#553,#554,#555,#556,#557,#558,#559,#560,#561,#562,#563,#564,#565,#566,#567,#568,#569,#570,#571,#572,#573,#574,#575,#576));
#590=CLOSED_SHELL('',(#577,#578,#579));
#591=CLOSED_SHELL('',(#580,#581,#582));
#592=CLOSED_SHELL('',(#583,#584,#585));
#593=CLOSED_SHELL('',(#586,#587,#588));
#594=STYLED_ITEM('',(#595),#602);
#595=PRESENTATION_STYLE_ASSIGNMENT((#596));
#596=SURFACE_STYLE_USAGE(.BOTH.,#597);
#597=SURFACE_SIDE_STYLE('',(#598));
#598=SURFACE_STYLE_FILL_AREA(#599);
#599=FILL_AREA_STYLE('',(#600));
#600=FILL_AREA_STYLE_COLOUR('',#601);
#601=COLOUR_RGB('',0.615686274509804,0.811764705882353,0.929411764705882);
#602=BREP_WITH_VOIDS('mods_core_side_l',#589,(#12,#13,#14,#15));
#603=SHAPE_DEFINITION_REPRESENTATION(#1039,#604);
#604=SHAPE_REPRESENTATION('mods_core_side_l',(#605),#1034);
#605=AXIS2_PLACEMENT_3D('',#860,#677,#678);
#606=AXIS2_PLACEMENT_3D('',#861,#679,#680);
#607=AXIS2_PLACEMENT_3D('',#862,#681,#682);
#608=AXIS2_PLACEMENT_3D('',#864,#683,#684);
#609=AXIS2_PLACEMENT_3D('',#866,#685,#686);
#610=AXIS2_PLACEMENT_3D('',#867,#687,#688);
#611=AXIS2_PLACEMENT_3D('',#869,#689,#690);
#612=AXIS2_PLACEMENT_3D('',#871,#691,#692);
#613=AXIS2_PLACEMENT_3D('',#872,#693,#694);
#614=AXIS2_PLACEMENT_3D('',#881,#699,#700);
#615=AXIS2_PLACEMENT_3D('',#882,#701,#702);
#616=AXIS2_PLACEMENT_3D('',#887,#704,#705);
#617=AXIS2_PLACEMENT_3D('',#891,#707,#708);
#618=AXIS2_PLACEMENT_3D('',#895,#710,#711);
#619=AXIS2_PLACEMENT_3D('',#899,#713,#714);
#620=AXIS2_PLACEMENT_3D('',#900,#715,#716);
#621=AXIS2_PLACEMENT_3D('',#904,#718,#719);
#622=AXIS2_PLACEMENT_3D('',#908,#721,#722);
#623=AXIS2_PLACEMENT_3D('',#912,#724,#725);
#624=AXIS2_PLACEMENT_3D('',#919,#729,#730);
#625=AXIS2_PLACEMENT_3D('',#925,#734,#735);
#626=AXIS2_PLACEMENT_3D('',#931,#739,#740);
#627=AXIS2_PLACEMENT_3D('',#937,#744,#745);
#628=AXIS2_PLACEMENT_3D('',#943,#749,#750);
#629=AXIS2_PLACEMENT_3D('',#944,#751,#752);
#630=AXIS2_PLACEMENT_3D('',#949,#755,#756);
#631=AXIS2_PLACEMENT_3D('',#950,#757,#758);
#632=AXIS2_PLACEMENT_3D('',#951,#759,#760);
#633=AXIS2_PLACEMENT_3D('',#952,#761,#762);
#634=AXIS2_PLACEMENT_3D('',#956,#764,#765);
#635=AXIS2_PLACEMENT_3D('',#960,#767,#768);
#636=AXIS2_PLACEMENT_3D('',#964,#770,#771);
#637=AXIS2_PLACEMENT_3D('',#968,#773,#774);
#638=AXIS2_PLACEMENT_3D('',#969,#775,#776);
#639=AXIS2_PLACEMENT_3D('',#970,#777,#778);
#640=AXIS2_PLACEMENT_3D('',#971,#779,#780);
#641=AXIS2_PLACEMENT_3D('',#972,#781,#782);
#642=AXIS2_PLACEMENT_3D('',#973,#783,#784);
#643=AXIS2_PLACEMENT_3D('',#979,#786,#787);
#644=AXIS2_PLACEMENT_3D('',#982,#790,#791);
#645=AXIS2_PLACEMENT_3D('',#985,#794,#795);
#646=AXIS2_PLACEMENT_3D('',#991,#797,#798);
#647=AXIS2_PLACEMENT_3D('',#993,#800,#801);
#648=AXIS2_PLACEMENT_3D('',#994,#802,#803);
#649=AXIS2_PLACEMENT_3D('',#995,#804,#805);
#650=AXIS2_PLACEMENT_3D('',#997,#806,#807);
#651=AXIS2_PLACEMENT_3D('',#998,#808,#809);
#652=AXIS2_PLACEMENT_3D('',#1000,#810,#811);
#653=AXIS2_PLACEMENT_3D('',#1001,#812,#813);
#654=AXIS2_PLACEMENT_3D('',#1002,#814,#815);
#655=AXIS2_PLACEMENT_3D('',#1003,#816,#817);
#656=AXIS2_PLACEMENT_3D('',#1004,#818,#819);
#657=AXIS2_PLACEMENT_3D('',#1005,#820,#821);
#658=AXIS2_PLACEMENT_3D('',#1006,#822,#823);
#659=AXIS2_PLACEMENT_3D('',#1008,#824,#825);
#660=AXIS2_PLACEMENT_3D('',#1009,#826,#827);
#661=AXIS2_PLACEMENT_3D('',#1011,#828,#829);
#662=AXIS2_PLACEMENT_3D('',#1012,#830,#831);
#663=AXIS2_PLACEMENT_3D('',#1013,#832,#833);
#664=AXIS2_PLACEMENT_3D('',#1015,#834,#835);
#665=AXIS2_PLACEMENT_3D('',#1016,#836,#837);
#666=AXIS2_PLACEMENT_3D('',#1018,#838,#839);
#667=AXIS2_PLACEMENT_3D('',#1019,#840,#841);
#668=AXIS2_PLACEMENT_3D('',#1020,#842,#843);
#669=AXIS2_PLACEMENT_3D('',#1022,#844,#845);
#670=AXIS2_PLACEMENT_3D('',#1023,#846,#847);
#671=AXIS2_PLACEMENT_3D('',#1025,#848,#849);
#672=AXIS2_PLACEMENT_3D('',#1026,#850,#851);
#673=AXIS2_PLACEMENT_3D('',#1027,#852,#853);
#674=AXIS2_PLACEMENT_3D('',#1029,#854,#855);
#675=AXIS2_PLACEMENT_3D('',#1030,#856,#857);
#676=AXIS2_PLACEMENT_3D('',#1032,#858,#859);
#677=DIRECTION('',(0.,0.,1.));
#678=DIRECTION('',(1.,0.,0.));
#679=DIRECTION('',(-1.,0.,0.));
#680=DIRECTION('',(0.,0.,-1.));
#681=DIRECTION('',(-1.,0.,0.));
#682=DIRECTION('',(0.,0.,-1.));
#683=DIRECTION('',(1.,0.,0.));
#684=DIRECTION('',(0.,0.,1.));
#685=DIRECTION('',(-1.,0.,0.));
#686=DIRECTION('',(0.,0.,-1.));
#687=DIRECTION('',(-1.,0.,0.));
#688=DIRECTION('',(0.,0.,-1.));
#689=DIRECTION('',(-1.,0.,0.));
#690=DIRECTION('',(0.,0.,-1.));
#691=DIRECTION('',(-1.,0.,0.));
#692=DIRECTION('',(0.,-1.,0.));
#693=DIRECTION('',(0.,-1.,0.));
#694=DIRECTION('',(0.,0.,-1.));
#695=DIRECTION('',(-1.,0.,0.));
#696=DIRECTION('',(0.,0.,-1.));
#697=DIRECTION('',(-1.,0.,0.));
#698=DIRECTION('',(0.,0.,-1.));
#699=DIRECTION('',(1.,0.,0.));
#700=DIRECTION('',(0.,-1.,0.));
#701=DIRECTION('',(-1.,0.,0.));
#702=DIRECTION('',(0.,0.,1.));
#703=DIRECTION('',(0.,-1.,0.));
#704=DIRECTION('',(-1.,0.,0.));
#705=DIRECTION('',(0.,0.,1.));
#706=DIRECTION('',(0.,0.,1.));
#707=DIRECTION('',(-1.,0.,0.));
#708=DIRECTION('',(0.,0.,1.));
#709=DIRECTION('',(0.,-1.,0.));
#710=DIRECTION('',(-1.,0.,0.));
#711=DIRECTION('',(0.,0.,1.));
#712=DIRECTION('',(0.,0.,-1.));
#713=DIRECTION('',(-1.,0.,0.));
#714=DIRECTION('',(0.,0.,1.));
#715=DIRECTION('',(-1.,0.,0.));
#716=DIRECTION('',(0.,0.,1.));
#717=DIRECTION('',(0.,-1.,0.));
#718=DIRECTION('',(-1.,0.,0.));
#719=DIRECTION('',(0.,0.,1.));
#720=DIRECTION('',(0.,0.,-1.));
#721=DIRECTION('',(-1.,0.,0.));
#722=DIRECTION('',(0.,0.,1.));
#723=DIRECTION('',(0.,-1.,0.));
#724=DIRECTION('',(-1.,0.,0.));
#725=DIRECTION('',(0.,0.,1.));
#726=DIRECTION('',(0.,0.,-1.));
#727=DIRECTION('',(0.,0.707106781186548,-0.707106781186548));
#728=DIRECTION('',(0.,-0.707106781186548,-0.707106781186547));
#729=DIRECTION('',(0.,0.,1.));
#730=DIRECTION('',(-1.,0.,0.));
#731=DIRECTION('',(-1.,0.,0.));
#732=DIRECTION('',(0.,-1.,0.));
#733=DIRECTION('',(-1.,0.,0.));
#734=DIRECTION('',(0.,-1.,0.));
#735=DIRECTION('',(0.,0.,-1.));
#736=DIRECTION('',(-1.,0.,0.));
#737=DIRECTION('',(0.,0.,-1.));
#738=DIRECTION('',(-1.,0.,0.));
#739=DIRECTION('',(0.,0.,1.));
#740=DIRECTION('',(-1.,0.,0.));
#741=DIRECTION('',(0.,-1.,0.));
#742=DIRECTION('',(-1.,0.,0.));
#743=DIRECTION('',(-1.,0.,0.));
#744=DIRECTION('',(0.,-1.,0.));
#745=DIRECTION('',(0.,0.,-1.));
#746=DIRECTION('',(-1.,0.,0.));
#747=DIRECTION('',(0.,0.,-1.));
#748=DIRECTION('',(-1.,0.,0.));
#749=DIRECTION('',(-1.,0.,0.));
#750=DIRECTION('',(0.,1.,0.));
#751=DIRECTION('',(1.,0.,0.));
#752=DIRECTION('',(0.,0.,-1.));
#753=DIRECTION('',(0.,-0.707106781186548,-0.707106781186547));
#754=DIRECTION('',(0.,0.707106781186547,-0.707106781186548));
#755=DIRECTION('',(1.,0.,0.));
#756=DIRECTION('',(0.,0.,-1.));
#757=DIRECTION('',(1.,0.,0.));
#758=DIRECTION('',(0.,0.,-1.));
#759=DIRECTION('',(1.,0.,0.));
#760=DIRECTION('',(0.,0.,-1.));
#761=DIRECTION('',(1.,0.,0.));
#762=DIRECTION('',(0.,0.,-1.));
#763=DIRECTION('',(0.,0.,-1.));
#764=DIRECTION('',(1.,0.,0.));
#765=DIRECTION('',(0.,0.,-1.));
#766=DIRECTION('',(0.,-1.,0.));
#767=DIRECTION('',(1.,0.,0.));
#768=DIRECTION('',(0.,0.,-1.));
#769=DIRECTION('',(0.,0.,1.));
#770=DIRECTION('',(1.,0.,0.));
#771=DIRECTION('',(0.,0.,-1.));
#772=DIRECTION('',(0.,-1.,0.));
#773=DIRECTION('',(1.,0.,0.));
#774=DIRECTION('',(0.,0.,-1.));
#775=DIRECTION('',(1.,0.,0.));
#776=DIRECTION('',(0.,0.,1.));
#777=DIRECTION('',(-1.,0.,0.));
#778=DIRECTION('',(0.,0.,-1.));
#779=DIRECTION('',(-1.,0.,0.));
#780=DIRECTION('',(0.,0.,-1.));
#781=DIRECTION('',(1.,0.,0.));
#782=DIRECTION('',(0.,0.,1.));
#783=DIRECTION('',(0.,-1.,0.));
#784=DIRECTION('',(0.,0.,-1.));
#785=DIRECTION('',(1.,0.,0.));
#786=DIRECTION('',(0.,0.,1.));
#787=DIRECTION('',(-1.,0.,0.));
#788=DIRECTION('',(-1.,0.,0.));
#789=DIRECTION('',(-1.,0.,0.));
#790=DIRECTION('',(0.,0.,1.));
#791=DIRECTION('',(-1.,0.,0.));
#792=DIRECTION('',(-1.,0.,0.));
#793=DIRECTION('',(-1.,0.,0.));
#794=DIRECTION('',(0.,1.,0.));
#795=DIRECTION('',(0.,0.,1.));
#796=DIRECTION('',(1.,0.,0.));
#797=DIRECTION('',(0.,-0.707106781186547,0.707106781186548));
#798=DIRECTION('',(0.,-0.707106781186548,-0.707106781186547));
#799=DIRECTION('',(-1.,0.,0.));
#800=DIRECTION('',(0.,-0.707106781186548,-0.707106781186548));
#801=DIRECTION('',(0.,0.707106781186548,-0.707106781186548));
#802=DIRECTION('',(-1.,0.,0.));
#803=DIRECTION('',(0.,0.,-1.));
#804=DIRECTION('',(1.,0.,0.));
#805=DIRECTION('',(0.,0.,-1.));
#806=DIRECTION('',(-1.,0.,0.));
#807=DIRECTION('',(0.,1.,0.));
#808=DIRECTION('',(1.,0.,0.));
#809=DIRECTION('',(0.,0.,-1.));
#810=DIRECTION('',(-1.,0.,0.));
#811=DIRECTION('',(0.,0.,-1.));
#812=DIRECTION('',(-1.,0.,0.));
#813=DIRECTION('',(0.,0.,-1.));
#814=DIRECTION('',(1.,0.,0.));
#815=DIRECTION('',(0.,0.,1.));
#816=DIRECTION('',(-1.,0.,0.));
#817=DIRECTION('',(0.,0.,-1.));
#818=DIRECTION('',(1.,0.,0.));
#819=DIRECTION('',(0.,0.,1.));
#820=DIRECTION('',(-1.,0.,0.));
#821=DIRECTION('',(0.,1.,0.));
#822=DIRECTION('',(-1.,0.,0.));
#823=DIRECTION('',(0.,0.,1.));
#824=DIRECTION('',(-1.,0.,0.));
#825=DIRECTION('',(0.,0.,-1.));
#826=DIRECTION('',(-1.,0.,0.));
#827=DIRECTION('',(0.,0.,1.));
#828=DIRECTION('',(1.,0.,0.));
#829=DIRECTION('',(0.,-1.,0.));
#830=DIRECTION('',(-1.,0.,0.));
#831=DIRECTION('',(0.,1.,0.));
#832=DIRECTION('',(-1.,0.,0.));
#833=DIRECTION('',(0.,0.,1.));
#834=DIRECTION('',(-1.,0.,0.));
#835=DIRECTION('',(0.,0.,-1.));
#836=DIRECTION('',(-1.,0.,0.));
#837=DIRECTION('',(0.,0.,1.));
#838=DIRECTION('',(1.,0.,0.));
#839=DIRECTION('',(0.,-1.,0.));
#840=DIRECTION('',(1.,0.,0.));
#841=DIRECTION('',(0.,-1.,0.));
#842=DIRECTION('',(1.,0.,0.));
#843=DIRECTION('',(0.,0.,1.));
#844=DIRECTION('',(-1.,0.,0.));
#845=DIRECTION('',(0.,1.,0.));
#846=DIRECTION('',(1.,0.,0.));
#847=DIRECTION('',(0.,0.,1.));
#848=DIRECTION('',(-1.,0.,0.));
#849=DIRECTION('',(0.,0.,-1.));
#850=DIRECTION('',(1.,0.,0.));
#851=DIRECTION('',(0.,-1.,0.));
#852=DIRECTION('',(1.,0.,0.));
#853=DIRECTION('',(0.,0.,1.));
#854=DIRECTION('',(-1.,0.,0.));
#855=DIRECTION('',(0.,1.,0.));
#856=DIRECTION('',(1.,0.,0.));
#857=DIRECTION('',(0.,0.,1.));
#858=DIRECTION('',(-1.,0.,0.));
#859=DIRECTION('',(0.,0.,-1.));
#860=CARTESIAN_POINT('',(0.,0.,0.));
#861=CARTESIAN_POINT('',(0.061202,-0.025500000000034,-0.0096));
#862=CARTESIAN_POINT('',(0.0608,-0.025500000000034,-0.0096));
#863=CARTESIAN_POINT('',(0.0608,-0.025500000000034,-0.0111));
#864=CARTESIAN_POINT('',(0.0612,-0.025500000000034,-0.0096));
#865=CARTESIAN_POINT('',(0.0612,-0.025500000000034,-0.0081));
#866=CARTESIAN_POINT('',(0.0608,-0.025500000000034,-0.0096));
#867=CARTESIAN_POINT('',(0.0608,-0.025500000000034,-0.0096));
#868=CARTESIAN_POINT('',(0.0608,-0.025500000000034,-0.0126));
#869=CARTESIAN_POINT('',(0.0596,-0.025500000000034,-0.0096));
#870=CARTESIAN_POINT('',(0.0596,-0.025500000000034,-0.0126));
#871=CARTESIAN_POINT('',(0.0608,-0.0591,-0.0066));
#872=CARTESIAN_POINT('',(0.0599,-0.021000000000034,-0.0066));
#873=CARTESIAN_POINT('',(0.061202,-0.021000000000034,-0.0056));
#874=CARTESIAN_POINT('',(0.0612,-0.021000000000034,-0.0056));
#875=CARTESIAN_POINT('',(0.0596,-0.021000000000034,-0.0056));
#876=CARTESIAN_POINT('',(0.0596,-0.021000000000034,-0.0066));
#877=CARTESIAN_POINT('',(0.0596,-0.021000000000034,-0.0004));
#878=CARTESIAN_POINT('',(0.0596,-0.021000000000034,-0.0004));
#879=CARTESIAN_POINT('',(0.0612,-0.021000000000034,-0.0004));
#880=CARTESIAN_POINT('',(0.0612,-0.021000000000034,-0.0066));
#881=CARTESIAN_POINT('',(0.0612,-0.0591,-0.0066));
#882=CARTESIAN_POINT('',(0.0612,-0.092699999999966,-0.0096));
#883=CARTESIAN_POINT('',(0.0612,-0.092699999999966,-0.0081));
#884=CARTESIAN_POINT('',(0.0612,-0.0590681910869677,-0.0052));
#885=CARTESIAN_POINT('',(0.0612,-0.0529681921739005,-0.0052));
#886=CARTESIAN_POINT('',(0.0612,-0.065168190000035,-0.0052));
#887=CARTESIAN_POINT('',(0.0612,-0.0529681921739005,-0.0056));
#888=CARTESIAN_POINT('',(0.0612,-0.0525681921739005,-0.0056));
#889=CARTESIAN_POINT('',(0.0612,-0.0525681921739005,-0.0083));
#890=CARTESIAN_POINT('',(0.0612,-0.0525681921739005,-0.009895198));
#891=CARTESIAN_POINT('',(0.0612,-0.0529681921739005,-0.009895198));
#892=CARTESIAN_POINT('',(0.0612,-0.0529681921739005,-0.010295198));
#893=CARTESIAN_POINT('',(0.0612,-0.0590681910869677,-0.010295198));
#894=CARTESIAN_POINT('',(0.0612,-0.065168190000035,-0.010295198));
#895=CARTESIAN_POINT('',(0.0612,-0.065168190000035,-0.009895198));
#896=CARTESIAN_POINT('',(0.0612,-0.065568190000035,-0.009895198));
#897=CARTESIAN_POINT('',(0.0612,-0.065568190000035,-0.0083));
#898=CARTESIAN_POINT('',(0.0612,-0.065568190000035,-0.0056));
#899=CARTESIAN_POINT('',(0.0612,-0.065168190000035,-0.0056));
#900=CARTESIAN_POINT('',(0.0612,-0.021400000000034,-0.0004));
#901=CARTESIAN_POINT('',(0.0612,-0.021400000000034,0.));
#902=CARTESIAN_POINT('',(0.0612,-0.0212000000000345,0.));
#903=CARTESIAN_POINT('',(0.0612,-0.096799999999966,0.));
#904=CARTESIAN_POINT('',(0.0612,-0.096799999999966,-0.0004));
#905=CARTESIAN_POINT('',(0.0612,-0.097199999999966,-0.0004));
#906=CARTESIAN_POINT('',(0.0612,-0.097199999999966,-0.0066));
#907=CARTESIAN_POINT('',(0.0612,-0.097199999999966,-0.0128));
#908=CARTESIAN_POINT('',(0.0612,-0.096799999999966,-0.0128));
#909=CARTESIAN_POINT('',(0.0612,-0.096799999999966,-0.0132));
#910=CARTESIAN_POINT('',(0.0612,-0.097,-0.0132));
#911=CARTESIAN_POINT('',(0.0612,-0.021400000000034,-0.0132));
#912=CARTESIAN_POINT('',(0.0612,-0.021400000000034,-0.0128));
#913=CARTESIAN_POINT('',(0.0612,-0.021000000000034,-0.0128));
#914=CARTESIAN_POINT('',(0.0612,-0.021000000000034,-0.0066));
#915=CARTESIAN_POINT('',(0.0612,-0.021000000000034,-0.0076));
#916=CARTESIAN_POINT('',(0.0612,-0.021500000000034,-0.0071));
#917=CARTESIAN_POINT('',(0.0612,-0.022000000000034,-0.0066));
#918=CARTESIAN_POINT('',(0.0612,-0.021500000000034,-0.0061));
#919=CARTESIAN_POINT('',(0.0599,-0.0212000000000345,0.));
#920=CARTESIAN_POINT('',(0.0612,-0.021400000000034,0.));
#921=CARTESIAN_POINT('',(0.0596,-0.021400000000034,0.));
#922=CARTESIAN_POINT('',(0.0596,-0.0212000000000345,0.));
#923=CARTESIAN_POINT('',(0.0596,-0.096799999999966,0.));
#924=CARTESIAN_POINT('',(0.0599,-0.096799999999966,0.));
#925=CARTESIAN_POINT('',(0.0599,-0.097199999999966,-0.0066));
#926=CARTESIAN_POINT('',(0.0599,-0.097199999999966,-0.0004));
#927=CARTESIAN_POINT('',(0.0596,-0.097199999999966,-0.0004));
#928=CARTESIAN_POINT('',(0.0596,-0.097199999999966,-0.0066));
#929=CARTESIAN_POINT('',(0.0596,-0.097199999999966,-0.0128));
#930=CARTESIAN_POINT('',(0.0596,-0.097199999999966,-0.0128));
#931=CARTESIAN_POINT('',(0.0599,-0.097,-0.0132));
#932=CARTESIAN_POINT('',(0.0596,-0.097,-0.0132));
#933=CARTESIAN_POINT('',(0.0596,-0.021400000000034,-0.0132));
#934=CARTESIAN_POINT('',(0.0596,-0.096799999999966,-0.0132));
#935=CARTESIAN_POINT('',(0.0599,-0.021400000000034,-0.0132));
#936=CARTESIAN_POINT('',(0.0612,-0.096799999999966,-0.0132));
#937=CARTESIAN_POINT('',(0.0599,-0.021000000000034,-0.0066));
#938=CARTESIAN_POINT('',(0.0599,-0.021000000000034,-0.0128));
#939=CARTESIAN_POINT('',(0.0596,-0.021000000000034,-0.0128));
#940=CARTESIAN_POINT('',(0.0596,-0.021000000000034,-0.0066));
#941=CARTESIAN_POINT('',(0.0596,-0.021000000000034,-0.0076));
#942=CARTESIAN_POINT('',(0.061202,-0.021000000000034,-0.0076));
#943=CARTESIAN_POINT('',(0.0596,-0.0591,-0.0066));
#944=CARTESIAN_POINT('',(0.0596,-0.092699999999966,-0.0096));
#945=CARTESIAN_POINT('',(0.0596,-0.092699999999966,-0.0126));
#946=CARTESIAN_POINT('',(0.0596,-0.021500000000034,-0.0061));
#947=CARTESIAN_POINT('',(0.0596,-0.022000000000034,-0.0066));
#948=CARTESIAN_POINT('',(0.0596,-0.021500000000034,-0.0071));
#949=CARTESIAN_POINT('',(0.0596,-0.021400000000034,-0.0128));
#950=CARTESIAN_POINT('',(0.0596,-0.096799999999966,-0.0128));
#951=CARTESIAN_POINT('',(0.0596,-0.096799999999966,-0.0004));
#952=CARTESIAN_POINT('',(0.0596,-0.021400000000034,-0.0004));
#953=CARTESIAN_POINT('',(0.0596,-0.065568190000035,-0.007997599));
#954=CARTESIAN_POINT('',(0.0596,-0.065568190000035,-0.0056));
#955=CARTESIAN_POINT('',(0.0596,-0.065568190000035,-0.009895198));
#956=CARTESIAN_POINT('',(0.0596,-0.065168190000035,-0.009895198));
#957=CARTESIAN_POINT('',(0.0596,-0.065168190000035,-0.010295198));
#958=CARTESIAN_POINT('',(0.0596,-0.0590681910869677,-0.010295198));
#959=CARTESIAN_POINT('',(0.0596,-0.0529681921739005,-0.010295198));
#960=CARTESIAN_POINT('',(0.0596,-0.0529681921739005,-0.009895198));
#961=CARTESIAN_POINT('',(0.0596,-0.0525681921739005,-0.009895198));
#962=CARTESIAN_POINT('',(0.0596,-0.0525681921739005,-0.007997599));
#963=CARTESIAN_POINT('',(0.0596,-0.0525681921739005,-0.0056));
#964=CARTESIAN_POINT('',(0.0596,-0.0529681921739005,-0.0056));
#965=CARTESIAN_POINT('',(0.0596,-0.0529681921739005,-0.0052));
#966=CARTESIAN_POINT('',(0.0596,-0.0590681910869677,-0.0052));
#967=CARTESIAN_POINT('',(0.0596,-0.065168190000035,-0.0052));
#968=CARTESIAN_POINT('',(0.0596,-0.065168190000035,-0.0056));
#969=CARTESIAN_POINT('',(0.0599,-0.096799999999966,-0.0128));
#970=CARTESIAN_POINT('',(0.0599,-0.096799999999966,-0.0004));
#971=CARTESIAN_POINT('',(0.0599,-0.021400000000034,-0.0128));
#972=CARTESIAN_POINT('',(0.0599,-0.021400000000034,-0.0004));
#973=CARTESIAN_POINT('',(0.061202,-0.065568190000035,-0.007997599));
#974=CARTESIAN_POINT('',(0.0612,-0.065568190000035,-0.009895198));
#975=CARTESIAN_POINT('',(0.0606666666666667,-0.065568190000035,-0.009895198));
#976=CARTESIAN_POINT('',(0.0601333333333333,-0.065568190000035,-0.009895198));
#977=CARTESIAN_POINT('',(0.0596,-0.065568190000035,-0.009895198));
#978=CARTESIAN_POINT('',(0.061202,-0.065568190000035,-0.0056));
#979=CARTESIAN_POINT('',(0.061202,-0.0590681910869677,-0.0052));
#980=CARTESIAN_POINT('',(0.0612,-0.065168190000035,-0.0052));
#981=CARTESIAN_POINT('',(0.0596,-0.0529681921739005,-0.0052));
#982=CARTESIAN_POINT('',(0.061202,-0.0590681910869677,-0.010295198));
#983=CARTESIAN_POINT('',(0.061202,-0.065168190000035,-0.010295198));
#984=CARTESIAN_POINT('',(0.061202,-0.0529681921739005,-0.010295198));
#985=CARTESIAN_POINT('',(0.061202,-0.0525681921739005,-0.007997599));
#986=CARTESIAN_POINT('',(0.0596,-0.0525681921739005,-0.009895198));
#987=CARTESIAN_POINT('',(0.0601333333333333,-0.0525681921739005,-0.009895198));
#988=CARTESIAN_POINT('',(0.0606666666666667,-0.0525681921739005,-0.009895198));
#989=CARTESIAN_POINT('',(0.0612,-0.0525681921739005,-0.009895198));
#990=CARTESIAN_POINT('',(0.061202,-0.0525681921739005,-0.0056));
#991=CARTESIAN_POINT('',(0.061202,-0.021500000000034,-0.0061));
#992=CARTESIAN_POINT('',(0.061202,-0.022000000000034,-0.0066));
#993=CARTESIAN_POINT('',(0.061202,-0.021500000000034,-0.0071));
#994=CARTESIAN_POINT('',(0.0608,-0.092699999999966,-0.0096));
#995=CARTESIAN_POINT('',(0.0608,-0.092699999999966,-0.0096));
#996=CARTESIAN_POINT('',(0.0608,-0.092699999999966,-0.0126));
#997=CARTESIAN_POINT('',(0.0608,-0.0591,-0.0066));
#998=CARTESIAN_POINT('',(0.0608,-0.092699999999966,-0.0096));
#999=CARTESIAN_POINT('',(0.0608,-0.092699999999966,-0.0111));
#1000=CARTESIAN_POINT('',(0.061202,-0.092699999999966,-0.0096));
#1001=CARTESIAN_POINT('',(0.061202,-0.0529681921739005,-0.009895198));
#1002=CARTESIAN_POINT('',(0.061202,-0.0529681921739005,-0.0056));
#1003=CARTESIAN_POINT('',(0.061202,-0.065168190000035,-0.009895198));
#1004=CARTESIAN_POINT('',(0.061202,-0.065168190000035,-0.0056));
#1005=CARTESIAN_POINT('',(0.0599,-0.0591,-0.0066));
#1006=CARTESIAN_POINT('',(0.0599,-0.0716,-0.0035));
#1007=CARTESIAN_POINT('',(0.0599,-0.0716,-0.00075));
#1008=CARTESIAN_POINT('',(0.0609,-0.0716,-0.0035));
#1009=CARTESIAN_POINT('',(0.0609,-0.0716,-0.0035));
#1010=CARTESIAN_POINT('',(0.0609,-0.0716,-0.00075));
#1011=CARTESIAN_POINT('',(0.0609,-0.0591,-0.0066));
#1012=CARTESIAN_POINT('',(0.0599,-0.0591,-0.0066));
#1013=CARTESIAN_POINT('',(0.0599,-0.0716,-0.0097));
#1014=CARTESIAN_POINT('',(0.0599,-0.0716,-0.00695));
#1015=CARTESIAN_POINT('',(0.0609,-0.0716,-0.0097));
#1016=CARTESIAN_POINT('',(0.0609,-0.0716,-0.0097));
#1017=CARTESIAN_POINT('',(0.0609,-0.0716,-0.00695));
#1018=CARTESIAN_POINT('',(0.0609,-0.0591,-0.0066));
#1019=CARTESIAN_POINT('',(0.0609,-0.0591,-0.0066));
#1020=CARTESIAN_POINT('',(0.0609,-0.0466,-0.0097));
#1021=CARTESIAN_POINT('',(0.0609,-0.0466,-0.00695));
#1022=CARTESIAN_POINT('',(0.0599,-0.0591,-0.0066));
#1023=CARTESIAN_POINT('',(0.0599,-0.0466,-0.0097));
#1024=CARTESIAN_POINT('',(0.0599,-0.0466,-0.00695));
#1025=CARTESIAN_POINT('',(0.0609,-0.0466,-0.0097));
#1026=CARTESIAN_POINT('',(0.0609,-0.0591,-0.0066));
#1027=CARTESIAN_POINT('',(0.0609,-0.0466,-0.0035));
#1028=CARTESIAN_POINT('',(0.0609,-0.0466,-0.00075));
#1029=CARTESIAN_POINT('',(0.0599,-0.0591,-0.0066));
#1030=CARTESIAN_POINT('',(0.0599,-0.0466,-0.0035));
#1031=CARTESIAN_POINT('',(0.0599,-0.0466,-0.00075));
#1032=CARTESIAN_POINT('',(0.0609,-0.0466,-0.0035));
#1033=MECHANICAL_DESIGN_GEOMETRIC_PRESENTATION_REPRESENTATION('',(#594),#1034);
#1034=(
GEOMETRIC_REPRESENTATION_CONTEXT(3)
GLOBAL_UNCERTAINTY_ASSIGNED_CONTEXT((#1035))
GLOBAL_UNIT_ASSIGNED_CONTEXT((#1038,#1037,#1036))
REPRESENTATION_CONTEXT('mods_core_side_l','TOP_LEVEL_ASSEMBLY_PART')
);
#1035=UNCERTAINTY_MEASURE_WITH_UNIT(LENGTH_MEASURE(2.E-05),#1038,'DISTANCE_ACCURACY_VALUE','Maximum Tolerance applied to model');
#1036=(
NAMED_UNIT(*)
SI_UNIT($,.STERADIAN.)
SOLID_ANGLE_UNIT()
);
#1037=(
NAMED_UNIT(*)
PLANE_ANGLE_UNIT()
SI_UNIT($,.RADIAN.)
);
#1038=(
LENGTH_UNIT()
NAMED_UNIT(*)
SI_UNIT($,.METRE.)
);
#1039=PRODUCT_DEFINITION_SHAPE('','',#1040);
#1040=PRODUCT_DEFINITION('','',#1042,#1041);
#1041=PRODUCT_DEFINITION_CONTEXT('',#1048,'design');
#1042=PRODUCT_DEFINITION_FORMATION_WITH_SPECIFIED_SOURCE('','',#1044,.NOT_KNOWN.);
#1043=PRODUCT_RELATED_PRODUCT_CATEGORY('','',(#1044));
#1044=PRODUCT('mods_core_side_l','mods_core_side_l','mods_core_side_l',(#1046));
#1045=PRODUCT_CATEGORY('','');
#1046=PRODUCT_CONTEXT('',#1048,'mechanical');
#1047=APPLICATION_PROTOCOL_DEFINITION('international standard','ap242_managed_model_based_3d_engineering',2020,#1048);
#1048=APPLICATION_CONTEXT('managed model based 3d engineering');
ENDSEC;
END-ISO-10303-21;
