ISO-10303-21;
HEADER;
/*Generated by software containing ST-Developer
 * from STEP Tools, Inc. (www.steptools.com) 
 */
/*OPTION: using custom renumber hook */
/*description */
/*implementation_level */
FILE_DESCRIPTION(('STEP AP242 Edition 2','STEP AP242 Edition 2''CAx-IF Rec.Pracs.---Representation and Presentation of Product Manufa
cturing Information (PMI)---4.0---2014-10-13','STEP AP242 Edition 2''CAx-IF Rec.Pracs.---Representation and Presentation of Product Manufa
cturing Information (PMI)---4.0---2014-10-13''CAx-IF Rec.Pracs.---3D Tessellated Geometry---0.4---2014-09-14','STEP AP242 Edition 2''CAx-IF Rec.Pracs.---Representation and Presentation of Product Manufa
cturing Information (PMI)---4.0---2014-10-13''CAx-IF Rec.Pracs.---3D Tessellated Geometry---0.4---2014-09-14''2;1','STEP AP242 Edition 2''CAx-IF Rec.Pracs.---Representation and Presentation of Product Manufa
cturing Information (PMI)---4.0---2014-10-13''CAx-IF Rec.Pracs.---3D Tessellated Geometry---0.4---2014-09-14''2;1''CAx-IF Rec.Pracs.---User Defined Attributes---1.5---2016-08-15'),'2;1');
/*name */
/*time_stamp */
/*author */
/*organization */
/*preprocessor_version */
/*originating_system */
/*authorisation */
FILE_NAME('/vol/tmp/translate-4241097665795110266/core - mods_core_side_r.step','2026-03-26T10:50:48',(''),(''),'ST-DEVELOPER v20','ONSHAPE BY PTC INC, 1.212','  ');
FILE_SCHEMA(('AP242_MANAGED_MODEL_BASED_3D_ENGINEERING_MIM_LF { 1 0 10303 442 3 1 4 }'));
ENDSEC;
DATA;
#10=SHAPE_REPRESENTATION_RELATIONSHIP('','',#606,#11);
#11=ADVANCED_BREP_SHAPE_REPRESENTATION('',(#604),#1032);
#12=ORIENTED_CLOSED_SHELL('',*,#592,.F.);
#13=ORIENTED_CLOSED_SHELL('',*,#593,.F.);
#14=ORIENTED_CLOSED_SHELL('',*,#594,.F.);
#15=ORIENTED_CLOSED_SHELL('',*,#595,.F.);
#16=LINE('',#877,#57);
#17=LINE('',#880,#58);
#18=LINE('',#882,#59);
#19=LINE('',#884,#60);
#20=LINE('',#888,#61);
#21=LINE('',#893,#62);
#22=LINE('',#897,#63);
#23=LINE('',#901,#64);
#24=LINE('',#904,#65);
#25=LINE('',#906,#66);
#26=LINE('',#908,#67);
#27=LINE('',#912,#68);
#28=LINE('',#916,#69);
#29=LINE('',#920,#70);
#30=LINE('',#924,#71);
#31=LINE('',#926,#72);
#32=LINE('',#928,#73);
#33=LINE('',#930,#74);
#34=LINE('',#932,#75);
#35=LINE('',#934,#76);
#36=LINE('',#936,#77);
#37=LINE('',#939,#78);
#38=LINE('',#940,#79);
#39=LINE('',#942,#80);
#40=LINE('',#944,#81);
#41=LINE('',#946,#82);
#42=LINE('',#950,#83);
#43=LINE('',#956,#84);
#44=LINE('',#957,#85);
#45=LINE('',#962,#86);
#46=LINE('',#966,#87);
#47=LINE('',#970,#88);
#48=LINE('',#978,#89);
#49=LINE('',#979,#90);
#50=LINE('',#981,#91);
#51=LINE('',#982,#92);
#52=LINE('',#984,#93);
#53=LINE('',#985,#94);
#54=LINE('',#987,#95);
#55=LINE('',#988,#96);
#56=LINE('',#990,#97);
#57=VECTOR('',#697,1.);
#58=VECTOR('',#698,1.);
#59=VECTOR('',#699,1.);
#60=VECTOR('',#700,1.);
#61=VECTOR('',#705,1.);
#62=VECTOR('',#708,1.);
#63=VECTOR('',#711,1.);
#64=VECTOR('',#714,1.);
#65=VECTOR('',#717,1.);
#66=VECTOR('',#718,1.);
#67=VECTOR('',#719,1.);
#68=VECTOR('',#722,1.);
#69=VECTOR('',#725,1.);
#70=VECTOR('',#728,1.);
#71=VECTOR('',#733,1.);
#72=VECTOR('',#734,1.);
#73=VECTOR('',#735,1.);
#74=VECTOR('',#738,1.);
#75=VECTOR('',#739,1.);
#76=VECTOR('',#740,1.);
#77=VECTOR('',#743,1.);
#78=VECTOR('',#744,1.);
#79=VECTOR('',#745,1.);
#80=VECTOR('',#748,1.);
#81=VECTOR('',#749,1.);
#82=VECTOR('',#750,1.);
#83=VECTOR('',#755,1.);
#84=VECTOR('',#764,1.);
#85=VECTOR('',#765,1.);
#86=VECTOR('',#768,1.);
#87=VECTOR('',#771,1.);
#88=VECTOR('',#774,1.);
#89=VECTOR('',#787,1.);
#90=VECTOR('',#788,1.);
#91=VECTOR('',#791,1.);
#92=VECTOR('',#792,1.);
#93=VECTOR('',#795,1.);
#94=VECTOR('',#796,1.);
#95=VECTOR('',#799,1.);
#96=VECTOR('',#800,1.);
#97=VECTOR('',#803,1.);
#98=PLANE('',#614);
#99=PLANE('',#615);
#100=PLANE('',#616);
#101=PLANE('',#626);
#102=PLANE('',#627);
#103=PLANE('',#628);
#104=PLANE('',#629);
#105=PLANE('',#630);
#106=PLANE('',#644);
#107=PLANE('',#645);
#108=PLANE('',#646);
#109=PLANE('',#647);
#110=PLANE('',#648);
#111=PLANE('',#649);
#112=PLANE('',#652);
#113=PLANE('',#659);
#114=PLANE('',#663);
#115=PLANE('',#664);
#116=PLANE('',#668);
#117=PLANE('',#669);
#118=PLANE('',#671);
#119=PLANE('',#674);
#120=PLANE('',#676);
#121=ORIENTED_EDGE('',*,*,#267,.F.);
#122=ORIENTED_EDGE('',*,*,#268,.T.);
#123=ORIENTED_EDGE('',*,*,#269,.T.);
#124=ORIENTED_EDGE('',*,*,#270,.F.);
#125=ORIENTED_EDGE('',*,*,#267,.T.);
#126=ORIENTED_EDGE('',*,*,#269,.F.);
#127=ORIENTED_EDGE('',*,*,#271,.F.);
#128=ORIENTED_EDGE('',*,*,#272,.F.);
#129=ORIENTED_EDGE('',*,*,#273,.T.);
#130=ORIENTED_EDGE('',*,*,#274,.T.);
#131=ORIENTED_EDGE('',*,*,#268,.F.);
#132=ORIENTED_EDGE('',*,*,#275,.T.);
#133=ORIENTED_EDGE('',*,*,#276,.T.);
#134=ORIENTED_EDGE('',*,*,#277,.T.);
#135=ORIENTED_EDGE('',*,*,#278,.T.);
#136=ORIENTED_EDGE('',*,*,#279,.T.);
#137=ORIENTED_EDGE('',*,*,#280,.F.);
#138=ORIENTED_EDGE('',*,*,#281,.T.);
#139=ORIENTED_EDGE('',*,*,#282,.T.);
#140=ORIENTED_EDGE('',*,*,#283,.T.);
#141=ORIENTED_EDGE('',*,*,#272,.T.);
#142=ORIENTED_EDGE('',*,*,#284,.T.);
#143=ORIENTED_EDGE('',*,*,#285,.T.);
#144=ORIENTED_EDGE('',*,*,#286,.T.);
#145=ORIENTED_EDGE('',*,*,#287,.T.);
#146=ORIENTED_EDGE('',*,*,#288,.T.);
#147=ORIENTED_EDGE('',*,*,#289,.T.);
#148=ORIENTED_EDGE('',*,*,#290,.F.);
#149=ORIENTED_EDGE('',*,*,#291,.T.);
#150=ORIENTED_EDGE('',*,*,#292,.F.);
#151=ORIENTED_EDGE('',*,*,#293,.T.);
#152=ORIENTED_EDGE('',*,*,#292,.T.);
#153=ORIENTED_EDGE('',*,*,#294,.T.);
#154=ORIENTED_EDGE('',*,*,#295,.F.);
#155=ORIENTED_EDGE('',*,*,#296,.T.);
#156=ORIENTED_EDGE('',*,*,#290,.T.);
#157=ORIENTED_EDGE('',*,*,#297,.T.);
#158=ORIENTED_EDGE('',*,*,#298,.F.);
#159=ORIENTED_EDGE('',*,*,#299,.T.);
#160=ORIENTED_EDGE('',*,*,#300,.T.);
#161=ORIENTED_EDGE('',*,*,#301,.T.);
#162=ORIENTED_EDGE('',*,*,#288,.F.);
#163=ORIENTED_EDGE('',*,*,#302,.T.);
#164=ORIENTED_EDGE('',*,*,#286,.F.);
#165=ORIENTED_EDGE('',*,*,#303,.T.);
#166=ORIENTED_EDGE('',*,*,#304,.T.);
#167=ORIENTED_EDGE('',*,*,#305,.T.);
#168=ORIENTED_EDGE('',*,*,#270,.T.);
#169=ORIENTED_EDGE('',*,*,#306,.F.);
#170=ORIENTED_EDGE('',*,*,#307,.F.);
#171=ORIENTED_EDGE('',*,*,#274,.F.);
#172=ORIENTED_EDGE('',*,*,#308,.T.);
#173=ORIENTED_EDGE('',*,*,#295,.T.);
#174=ORIENTED_EDGE('',*,*,#309,.T.);
#175=ORIENTED_EDGE('',*,*,#298,.T.);
#176=ORIENTED_EDGE('',*,*,#310,.T.);
#177=ORIENTED_EDGE('',*,*,#300,.F.);
#178=ORIENTED_EDGE('',*,*,#311,.T.);
#179=ORIENTED_EDGE('',*,*,#304,.F.);
#180=ORIENTED_EDGE('',*,*,#312,.F.);
#181=ORIENTED_EDGE('',*,*,#313,.F.);
#182=ORIENTED_EDGE('',*,*,#314,.T.);
#183=ORIENTED_EDGE('',*,*,#315,.F.);
#184=ORIENTED_EDGE('',*,*,#316,.T.);
#185=ORIENTED_EDGE('',*,*,#317,.F.);
#186=ORIENTED_EDGE('',*,*,#318,.T.);
#187=ORIENTED_EDGE('',*,*,#319,.T.);
#188=ORIENTED_EDGE('',*,*,#320,.T.);
#189=ORIENTED_EDGE('',*,*,#289,.F.);
#190=ORIENTED_EDGE('',*,*,#301,.F.);
#191=ORIENTED_EDGE('',*,*,#310,.F.);
#192=ORIENTED_EDGE('',*,*,#297,.F.);
#193=ORIENTED_EDGE('',*,*,#291,.F.);
#194=ORIENTED_EDGE('',*,*,#299,.F.);
#195=ORIENTED_EDGE('',*,*,#309,.F.);
#196=ORIENTED_EDGE('',*,*,#294,.F.);
#197=ORIENTED_EDGE('',*,*,#287,.F.);
#198=ORIENTED_EDGE('',*,*,#305,.F.);
#199=ORIENTED_EDGE('',*,*,#311,.F.);
#200=ORIENTED_EDGE('',*,*,#302,.F.);
#201=ORIENTED_EDGE('',*,*,#293,.F.);
#202=ORIENTED_EDGE('',*,*,#296,.F.);
#203=ORIENTED_EDGE('',*,*,#308,.F.);
#204=ORIENTED_EDGE('',*,*,#273,.F.);
#205=ORIENTED_EDGE('',*,*,#313,.T.);
#206=ORIENTED_EDGE('',*,*,#321,.T.);
#207=ORIENTED_EDGE('',*,*,#278,.F.);
#208=ORIENTED_EDGE('',*,*,#322,.T.);
#209=ORIENTED_EDGE('',*,*,#276,.F.);
#210=ORIENTED_EDGE('',*,*,#323,.T.);
#211=ORIENTED_EDGE('',*,*,#315,.T.);
#212=ORIENTED_EDGE('',*,*,#324,.T.);
#213=ORIENTED_EDGE('',*,*,#319,.F.);
#214=ORIENTED_EDGE('',*,*,#325,.T.);
#215=ORIENTED_EDGE('',*,*,#280,.T.);
#216=ORIENTED_EDGE('',*,*,#326,.T.);
#217=ORIENTED_EDGE('',*,*,#282,.F.);
#218=ORIENTED_EDGE('',*,*,#327,.T.);
#219=ORIENTED_EDGE('',*,*,#317,.T.);
#220=ORIENTED_EDGE('',*,*,#328,.T.);
#221=ORIENTED_EDGE('',*,*,#271,.T.);
#222=ORIENTED_EDGE('',*,*,#307,.T.);
#223=ORIENTED_EDGE('',*,*,#329,.F.);
#224=ORIENTED_EDGE('',*,*,#284,.F.);
#225=ORIENTED_EDGE('',*,*,#329,.T.);
#226=ORIENTED_EDGE('',*,*,#312,.T.);
#227=ORIENTED_EDGE('',*,*,#303,.F.);
#228=ORIENTED_EDGE('',*,*,#285,.F.);
#229=ORIENTED_EDGE('',*,*,#330,.F.);
#230=ORIENTED_EDGE('',*,*,#306,.T.);
#231=ORIENTED_EDGE('',*,*,#331,.F.);
#232=ORIENTED_EDGE('',*,*,#330,.T.);
#233=ORIENTED_EDGE('',*,*,#331,.T.);
#234=ORIENTED_EDGE('',*,*,#275,.F.);
#235=ORIENTED_EDGE('',*,*,#281,.F.);
#236=ORIENTED_EDGE('',*,*,#325,.F.);
#237=ORIENTED_EDGE('',*,*,#318,.F.);
#238=ORIENTED_EDGE('',*,*,#327,.F.);
#239=ORIENTED_EDGE('',*,*,#283,.F.);
#240=ORIENTED_EDGE('',*,*,#328,.F.);
#241=ORIENTED_EDGE('',*,*,#316,.F.);
#242=ORIENTED_EDGE('',*,*,#323,.F.);
#243=ORIENTED_EDGE('',*,*,#279,.F.);
#244=ORIENTED_EDGE('',*,*,#321,.F.);
#245=ORIENTED_EDGE('',*,*,#320,.F.);
#246=ORIENTED_EDGE('',*,*,#326,.F.);
#247=ORIENTED_EDGE('',*,*,#277,.F.);
#248=ORIENTED_EDGE('',*,*,#324,.F.);
#249=ORIENTED_EDGE('',*,*,#314,.F.);
#250=ORIENTED_EDGE('',*,*,#322,.F.);
#251=ORIENTED_EDGE('',*,*,#332,.T.);
#252=ORIENTED_EDGE('',*,*,#333,.T.);
#253=ORIENTED_EDGE('',*,*,#332,.F.);
#254=ORIENTED_EDGE('',*,*,#333,.F.);
#255=ORIENTED_EDGE('',*,*,#334,.T.);
#256=ORIENTED_EDGE('',*,*,#335,.T.);
#257=ORIENTED_EDGE('',*,*,#334,.F.);
#258=ORIENTED_EDGE('',*,*,#335,.F.);
#259=ORIENTED_EDGE('',*,*,#336,.T.);
#260=ORIENTED_EDGE('',*,*,#337,.F.);
#261=ORIENTED_EDGE('',*,*,#336,.F.);
#262=ORIENTED_EDGE('',*,*,#337,.T.);
#263=ORIENTED_EDGE('',*,*,#338,.T.);
#264=ORIENTED_EDGE('',*,*,#339,.F.);
#265=ORIENTED_EDGE('',*,*,#338,.F.);
#266=ORIENTED_EDGE('',*,*,#339,.T.);
#267=EDGE_CURVE('',#340,#340,#394,.T.);
#268=EDGE_CURVE('',#341,#341,#395,.F.);
#269=EDGE_CURVE('',#342,#342,#396,.T.);
#270=EDGE_CURVE('',#343,#343,#397,.T.);
#271=EDGE_CURVE('',#344,#345,#16,.T.);
#272=EDGE_CURVE('',#346,#344,#17,.T.);
#273=EDGE_CURVE('',#346,#347,#18,.T.);
#274=EDGE_CURVE('',#347,#345,#19,.T.);
#275=EDGE_CURVE('',#348,#348,#398,.F.);
#276=EDGE_CURVE('',#349,#350,#20,.T.);
#277=EDGE_CURVE('',#350,#351,#399,.F.);
#278=EDGE_CURVE('',#351,#352,#21,.T.);
#279=EDGE_CURVE('',#352,#353,#400,.F.);
#280=EDGE_CURVE('',#354,#353,#22,.T.);
#281=EDGE_CURVE('',#354,#355,#401,.F.);
#282=EDGE_CURVE('',#355,#356,#23,.T.);
#283=EDGE_CURVE('',#356,#349,#402,.F.);
#284=EDGE_CURVE('',#344,#357,#24,.T.);
#285=EDGE_CURVE('',#357,#358,#25,.T.);
#286=EDGE_CURVE('',#358,#359,#26,.T.);
#287=EDGE_CURVE('',#359,#360,#403,.T.);
#288=EDGE_CURVE('',#360,#361,#27,.T.);
#289=EDGE_CURVE('',#361,#362,#404,.T.);
#290=EDGE_CURVE('',#363,#362,#28,.T.);
#291=EDGE_CURVE('',#363,#364,#405,.T.);
#292=EDGE_CURVE('',#365,#364,#29,.T.);
#293=EDGE_CURVE('',#365,#346,#406,.T.);
#294=EDGE_CURVE('',#364,#366,#30,.T.);
#295=EDGE_CURVE('',#367,#366,#31,.T.);
#296=EDGE_CURVE('',#367,#365,#32,.F.);
#297=EDGE_CURVE('',#362,#368,#33,.T.);
#298=EDGE_CURVE('',#369,#368,#34,.T.);
#299=EDGE_CURVE('',#369,#363,#35,.F.);
#300=EDGE_CURVE('',#370,#371,#36,.T.);
#301=EDGE_CURVE('',#371,#361,#37,.F.);
#302=EDGE_CURVE('',#360,#370,#38,.T.);
#303=EDGE_CURVE('',#358,#372,#39,.T.);
#304=EDGE_CURVE('',#372,#373,#40,.T.);
#305=EDGE_CURVE('',#373,#359,#41,.F.);
#306=EDGE_CURVE('',#374,#374,#407,.T.);
#307=EDGE_CURVE('',#345,#375,#42,.T.);
#308=EDGE_CURVE('',#347,#367,#408,.T.);
#309=EDGE_CURVE('',#366,#369,#409,.T.);
#310=EDGE_CURVE('',#368,#371,#410,.T.);
#311=EDGE_CURVE('',#370,#373,#411,.T.);
#312=EDGE_CURVE('',#375,#372,#43,.T.);
#313=EDGE_CURVE('',#376,#377,#44,.T.);
#314=EDGE_CURVE('',#376,#378,#412,.F.);
#315=EDGE_CURVE('',#379,#378,#45,.T.);
#316=EDGE_CURVE('',#379,#380,#413,.F.);
#317=EDGE_CURVE('',#381,#380,#46,.T.);
#318=EDGE_CURVE('',#381,#382,#414,.F.);
#319=EDGE_CURVE('',#382,#383,#47,.T.);
#320=EDGE_CURVE('',#383,#377,#415,.F.);
#321=EDGE_CURVE('',#377,#352,#48,.F.);
#322=EDGE_CURVE('',#351,#376,#49,.T.);
#323=EDGE_CURVE('',#349,#379,#50,.T.);
#324=EDGE_CURVE('',#378,#350,#51,.F.);
#325=EDGE_CURVE('',#382,#354,#52,.F.);
#326=EDGE_CURVE('',#353,#383,#53,.T.);
#327=EDGE_CURVE('',#355,#381,#54,.T.);
#328=EDGE_CURVE('',#380,#356,#55,.F.);
#329=EDGE_CURVE('',#357,#375,#56,.T.);
#330=EDGE_CURVE('',#384,#384,#416,.T.);
#331=EDGE_CURVE('',#385,#385,#417,.T.);
#332=EDGE_CURVE('',#386,#386,#418,.T.);
#333=EDGE_CURVE('',#387,#387,#419,.T.);
#334=EDGE_CURVE('',#388,#388,#420,.T.);
#335=EDGE_CURVE('',#389,#389,#421,.T.);
#336=EDGE_CURVE('',#390,#390,#422,.T.);
#337=EDGE_CURVE('',#391,#391,#423,.T.);
#338=EDGE_CURVE('',#392,#392,#424,.T.);
#339=EDGE_CURVE('',#393,#393,#425,.T.);
#340=VERTEX_POINT('',#867);
#341=VERTEX_POINT('',#869);
#342=VERTEX_POINT('',#872);
#343=VERTEX_POINT('',#874);
#344=VERTEX_POINT('',#878);
#345=VERTEX_POINT('',#879);
#346=VERTEX_POINT('',#881);
#347=VERTEX_POINT('',#883);
#348=VERTEX_POINT('',#887);
#349=VERTEX_POINT('',#889);
#350=VERTEX_POINT('',#890);
#351=VERTEX_POINT('',#892);
#352=VERTEX_POINT('',#894);
#353=VERTEX_POINT('',#896);
#354=VERTEX_POINT('',#898);
#355=VERTEX_POINT('',#900);
#356=VERTEX_POINT('',#902);
#357=VERTEX_POINT('',#905);
#358=VERTEX_POINT('',#907);
#359=VERTEX_POINT('',#909);
#360=VERTEX_POINT('',#911);
#361=VERTEX_POINT('',#913);
#362=VERTEX_POINT('',#915);
#363=VERTEX_POINT('',#917);
#364=VERTEX_POINT('',#919);
#365=VERTEX_POINT('',#921);
#366=VERTEX_POINT('',#925);
#367=VERTEX_POINT('',#927);
#368=VERTEX_POINT('',#931);
#369=VERTEX_POINT('',#933);
#370=VERTEX_POINT('',#937);
#371=VERTEX_POINT('',#938);
#372=VERTEX_POINT('',#943);
#373=VERTEX_POINT('',#945);
#374=VERTEX_POINT('',#949);
#375=VERTEX_POINT('',#951);
#376=VERTEX_POINT('',#958);
#377=VERTEX_POINT('',#959);
#378=VERTEX_POINT('',#961);
#379=VERTEX_POINT('',#963);
#380=VERTEX_POINT('',#965);
#381=VERTEX_POINT('',#967);
#382=VERTEX_POINT('',#969);
#383=VERTEX_POINT('',#971);
#384=VERTEX_POINT('',#994);
#385=VERTEX_POINT('',#997);
#386=VERTEX_POINT('',#1005);
#387=VERTEX_POINT('',#1008);
#388=VERTEX_POINT('',#1012);
#389=VERTEX_POINT('',#1015);
#390=VERTEX_POINT('',#1019);
#391=VERTEX_POINT('',#1022);
#392=VERTEX_POINT('',#1026);
#393=VERTEX_POINT('',#1029);
#394=CIRCLE('',#609,0.0015);
#395=CIRCLE('',#610,0.0015);
#396=CIRCLE('',#612,0.003);
#397=CIRCLE('',#613,0.003);
#398=CIRCLE('',#617,0.0015);
#399=CIRCLE('',#618,0.0004);
#400=CIRCLE('',#619,0.0004);
#401=CIRCLE('',#620,0.0004);
#402=CIRCLE('',#621,0.0004);
#403=CIRCLE('',#622,0.0004);
#404=CIRCLE('',#623,0.0004);
#405=CIRCLE('',#624,0.0004);
#406=CIRCLE('',#625,0.0004);
#407=CIRCLE('',#631,0.003);
#408=CIRCLE('',#632,0.0004);
#409=CIRCLE('',#633,0.0004);
#410=CIRCLE('',#634,0.0004);
#411=CIRCLE('',#635,0.0004);
#412=CIRCLE('',#636,0.0004);
#413=CIRCLE('',#637,0.0004);
#414=CIRCLE('',#638,0.0004);
#415=CIRCLE('',#639,0.0004);
#416=CIRCLE('',#651,0.003);
#417=CIRCLE('',#653,0.0015);
#418=CIRCLE('',#660,0.00275);
#419=CIRCLE('',#662,0.00275);
#420=CIRCLE('',#665,0.00275);
#421=CIRCLE('',#667,0.00275);
#422=CIRCLE('',#670,0.00275);
#423=CIRCLE('',#672,0.00275);
#424=CIRCLE('',#675,0.00275);
#425=CIRCLE('',#677,0.00275);
#426=EDGE_LOOP('',(#121));
#427=EDGE_LOOP('',(#122));
#428=EDGE_LOOP('',(#123));
#429=EDGE_LOOP('',(#124));
#430=EDGE_LOOP('',(#125));
#431=EDGE_LOOP('',(#126));
#432=EDGE_LOOP('',(#127,#128,#129,#130));
#433=EDGE_LOOP('',(#131));
#434=EDGE_LOOP('',(#132));
#435=EDGE_LOOP('',(#133,#134,#135,#136,#137,#138,#139,#140));
#436=EDGE_LOOP('',(#141,#142,#143,#144,#145,#146,#147,#148,#149,#150,#151));
#437=EDGE_LOOP('',(#152,#153,#154,#155));
#438=EDGE_LOOP('',(#156,#157,#158,#159));
#439=EDGE_LOOP('',(#160,#161,#162,#163));
#440=EDGE_LOOP('',(#164,#165,#166,#167));
#441=EDGE_LOOP('',(#168));
#442=EDGE_LOOP('',(#169));
#443=EDGE_LOOP('',(#170,#171,#172,#173,#174,#175,#176,#177,#178,#179,#180));
#444=EDGE_LOOP('',(#181,#182,#183,#184,#185,#186,#187,#188));
#445=EDGE_LOOP('',(#189,#190,#191,#192));
#446=EDGE_LOOP('',(#193,#194,#195,#196));
#447=EDGE_LOOP('',(#197,#198,#199,#200));
#448=EDGE_LOOP('',(#201,#202,#203,#204));
#449=EDGE_LOOP('',(#205,#206,#207,#208));
#450=EDGE_LOOP('',(#209,#210,#211,#212));
#451=EDGE_LOOP('',(#213,#214,#215,#216));
#452=EDGE_LOOP('',(#217,#218,#219,#220));
#453=EDGE_LOOP('',(#221,#222,#223,#224));
#454=EDGE_LOOP('',(#225,#226,#227,#228));
#455=EDGE_LOOP('',(#229));
#456=EDGE_LOOP('',(#230));
#457=EDGE_LOOP('',(#231));
#458=EDGE_LOOP('',(#232));
#459=EDGE_LOOP('',(#233));
#460=EDGE_LOOP('',(#234));
#461=EDGE_LOOP('',(#235,#236,#237,#238));
#462=EDGE_LOOP('',(#239,#240,#241,#242));
#463=EDGE_LOOP('',(#243,#244,#245,#246));
#464=EDGE_LOOP('',(#247,#248,#249,#250));
#465=EDGE_LOOP('',(#251));
#466=EDGE_LOOP('',(#252));
#467=EDGE_LOOP('',(#253));
#468=EDGE_LOOP('',(#254));
#469=EDGE_LOOP('',(#255));
#470=EDGE_LOOP('',(#256));
#471=EDGE_LOOP('',(#257));
#472=EDGE_LOOP('',(#258));
#473=EDGE_LOOP('',(#259));
#474=EDGE_LOOP('',(#260));
#475=EDGE_LOOP('',(#261));
#476=EDGE_LOOP('',(#262));
#477=EDGE_LOOP('',(#263));
#478=EDGE_LOOP('',(#264));
#479=EDGE_LOOP('',(#265));
#480=EDGE_LOOP('',(#266));
#481=FACE_BOUND('',#426,.T.);
#482=FACE_BOUND('',#427,.T.);
#483=FACE_BOUND('',#428,.T.);
#484=FACE_BOUND('',#429,.T.);
#485=FACE_BOUND('',#430,.T.);
#486=FACE_BOUND('',#431,.T.);
#487=FACE_BOUND('',#432,.T.);
#488=FACE_BOUND('',#433,.T.);
#489=FACE_BOUND('',#434,.T.);
#490=FACE_BOUND('',#435,.T.);
#491=FACE_BOUND('',#436,.T.);
#492=FACE_BOUND('',#437,.T.);
#493=FACE_BOUND('',#438,.T.);
#494=FACE_BOUND('',#439,.T.);
#495=FACE_BOUND('',#440,.T.);
#496=FACE_BOUND('',#441,.T.);
#497=FACE_BOUND('',#442,.T.);
#498=FACE_BOUND('',#443,.T.);
#499=FACE_BOUND('',#444,.T.);
#500=FACE_BOUND('',#445,.T.);
#501=FACE_BOUND('',#446,.T.);
#502=FACE_BOUND('',#447,.T.);
#503=FACE_BOUND('',#448,.T.);
#504=FACE_BOUND('',#449,.T.);
#505=FACE_BOUND('',#450,.T.);
#506=FACE_BOUND('',#451,.T.);
#507=FACE_BOUND('',#452,.T.);
#508=FACE_BOUND('',#453,.T.);
#509=FACE_BOUND('',#454,.T.);
#510=FACE_BOUND('',#455,.T.);
#511=FACE_BOUND('',#456,.T.);
#512=FACE_BOUND('',#457,.T.);
#513=FACE_BOUND('',#458,.T.);
#514=FACE_BOUND('',#459,.T.);
#515=FACE_BOUND('',#460,.T.);
#516=FACE_BOUND('',#461,.T.);
#517=FACE_BOUND('',#462,.T.);
#518=FACE_BOUND('',#463,.T.);
#519=FACE_BOUND('',#464,.T.);
#520=FACE_BOUND('',#465,.T.);
#521=FACE_BOUND('',#466,.T.);
#522=FACE_BOUND('',#467,.T.);
#523=FACE_BOUND('',#468,.T.);
#524=FACE_BOUND('',#469,.T.);
#525=FACE_BOUND('',#470,.T.);
#526=FACE_BOUND('',#471,.T.);
#527=FACE_BOUND('',#472,.T.);
#528=FACE_BOUND('',#473,.T.);
#529=FACE_BOUND('',#474,.T.);
#530=FACE_BOUND('',#475,.T.);
#531=FACE_BOUND('',#476,.T.);
#532=FACE_BOUND('',#477,.T.);
#533=FACE_BOUND('',#478,.T.);
#534=FACE_BOUND('',#479,.T.);
#535=FACE_BOUND('',#480,.T.);
#536=CYLINDRICAL_SURFACE('',#608,0.0015);
#537=CYLINDRICAL_SURFACE('',#611,0.003);
#538=CYLINDRICAL_SURFACE('',#640,0.0004);
#539=CYLINDRICAL_SURFACE('',#641,0.0004);
#540=CYLINDRICAL_SURFACE('',#642,0.0004);
#541=CYLINDRICAL_SURFACE('',#643,0.0004);
#542=CYLINDRICAL_SURFACE('',#650,0.003);
#543=CYLINDRICAL_SURFACE('',#654,0.0015);
#544=CYLINDRICAL_SURFACE('',#655,0.0004);
#545=CYLINDRICAL_SURFACE('',#656,0.0004);
#546=CYLINDRICAL_SURFACE('',#657,0.0004);
#547=CYLINDRICAL_SURFACE('',#658,0.0004);
#548=CYLINDRICAL_SURFACE('',#661,0.00275);
#549=CYLINDRICAL_SURFACE('',#666,0.00275);
#550=CYLINDRICAL_SURFACE('',#673,0.00275);
#551=CYLINDRICAL_SURFACE('',#678,0.00275);
#552=ADVANCED_FACE('',(#481,#482),#536,.F.);
#553=ADVANCED_FACE('',(#483,#484),#537,.F.);
#554=ADVANCED_FACE('',(#485,#486),#98,.T.);
#555=ADVANCED_FACE('',(#487),#99,.F.);
#556=ADVANCED_FACE('',(#488,#489,#490,#491),#100,.T.);
#557=ADVANCED_FACE('',(#492),#101,.T.);
#558=ADVANCED_FACE('',(#493),#102,.T.);
#559=ADVANCED_FACE('',(#494),#103,.F.);
#560=ADVANCED_FACE('',(#495),#104,.F.);
#561=ADVANCED_FACE('',(#496,#497,#498,#499),#105,.T.);
#562=ADVANCED_FACE('',(#500),#538,.T.);
#563=ADVANCED_FACE('',(#501),#539,.T.);
#564=ADVANCED_FACE('',(#502),#540,.T.);
#565=ADVANCED_FACE('',(#503),#541,.T.);
#566=ADVANCED_FACE('',(#504),#106,.F.);
#567=ADVANCED_FACE('',(#505),#107,.F.);
#568=ADVANCED_FACE('',(#506),#108,.T.);
#569=ADVANCED_FACE('',(#507),#109,.F.);
#570=ADVANCED_FACE('',(#508),#110,.F.);
#571=ADVANCED_FACE('',(#509),#111,.F.);
#572=ADVANCED_FACE('',(#510,#511),#542,.F.);
#573=ADVANCED_FACE('',(#512,#513),#112,.T.);
#574=ADVANCED_FACE('',(#514,#515),#543,.F.);
#575=ADVANCED_FACE('',(#516),#544,.F.);
#576=ADVANCED_FACE('',(#517),#545,.F.);
#577=ADVANCED_FACE('',(#518),#546,.F.);
#578=ADVANCED_FACE('',(#519),#547,.F.);
#579=ADVANCED_FACE('',(#520),#113,.F.);
#580=ADVANCED_FACE('',(#521,#522),#548,.F.);
#581=ADVANCED_FACE('',(#523),#114,.F.);
#582=ADVANCED_FACE('',(#524),#115,.F.);
#583=ADVANCED_FACE('',(#525,#526),#549,.F.);
#584=ADVANCED_FACE('',(#527),#116,.F.);
#585=ADVANCED_FACE('',(#528),#117,.F.);
#586=ADVANCED_FACE('',(#529),#118,.F.);
#587=ADVANCED_FACE('',(#530,#531),#550,.F.);
#588=ADVANCED_FACE('',(#532),#119,.F.);
#589=ADVANCED_FACE('',(#533),#120,.F.);
#590=ADVANCED_FACE('',(#534,#535),#551,.F.);
#591=CLOSED_SHELL('',(#552,#553,#554,#555,#556,#557,#558,#559,#560,#561,#562,#563,#564,#565,#566,#567,#568,#569,#570,#571,#572,#573,#574,#575,#576,#577,#578));
#592=CLOSED_SHELL('',(#579,#580,#581));
#593=CLOSED_SHELL('',(#582,#583,#584));
#594=CLOSED_SHELL('',(#585,#586,#587));
#595=CLOSED_SHELL('',(#588,#589,#590));
#596=STYLED_ITEM('',(#597),#604);
#597=PRESENTATION_STYLE_ASSIGNMENT((#598));
#598=SURFACE_STYLE_USAGE(.BOTH.,#599);
#599=SURFACE_SIDE_STYLE('',(#600));
#600=SURFACE_STYLE_FILL_AREA(#601);
#601=FILL_AREA_STYLE('',(#602));
#602=FILL_AREA_STYLE_COLOUR('',#603);
#603=COLOUR_RGB('',0.615686274509804,0.811764705882353,0.929411764705882);
#604=BREP_WITH_VOIDS('mods_core_side_r',#591,(#12,#13,#14,#15));
#605=SHAPE_DEFINITION_REPRESENTATION(#1037,#606);
#606=SHAPE_REPRESENTATION('mods_core_side_r',(#607),#1032);
#607=AXIS2_PLACEMENT_3D('',#864,#679,#680);
#608=AXIS2_PLACEMENT_3D('',#865,#681,#682);
#609=AXIS2_PLACEMENT_3D('',#866,#683,#684);
#610=AXIS2_PLACEMENT_3D('',#868,#685,#686);
#611=AXIS2_PLACEMENT_3D('',#870,#687,#688);
#612=AXIS2_PLACEMENT_3D('',#871,#689,#690);
#613=AXIS2_PLACEMENT_3D('',#873,#691,#692);
#614=AXIS2_PLACEMENT_3D('',#875,#693,#694);
#615=AXIS2_PLACEMENT_3D('',#876,#695,#696);
#616=AXIS2_PLACEMENT_3D('',#885,#701,#702);
#617=AXIS2_PLACEMENT_3D('',#886,#703,#704);
#618=AXIS2_PLACEMENT_3D('',#891,#706,#707);
#619=AXIS2_PLACEMENT_3D('',#895,#709,#710);
#620=AXIS2_PLACEMENT_3D('',#899,#712,#713);
#621=AXIS2_PLACEMENT_3D('',#903,#715,#716);
#622=AXIS2_PLACEMENT_3D('',#910,#720,#721);
#623=AXIS2_PLACEMENT_3D('',#914,#723,#724);
#624=AXIS2_PLACEMENT_3D('',#918,#726,#727);
#625=AXIS2_PLACEMENT_3D('',#922,#729,#730);
#626=AXIS2_PLACEMENT_3D('',#923,#731,#732);
#627=AXIS2_PLACEMENT_3D('',#929,#736,#737);
#628=AXIS2_PLACEMENT_3D('',#935,#741,#742);
#629=AXIS2_PLACEMENT_3D('',#941,#746,#747);
#630=AXIS2_PLACEMENT_3D('',#947,#751,#752);
#631=AXIS2_PLACEMENT_3D('',#948,#753,#754);
#632=AXIS2_PLACEMENT_3D('',#952,#756,#757);
#633=AXIS2_PLACEMENT_3D('',#953,#758,#759);
#634=AXIS2_PLACEMENT_3D('',#954,#760,#761);
#635=AXIS2_PLACEMENT_3D('',#955,#762,#763);
#636=AXIS2_PLACEMENT_3D('',#960,#766,#767);
#637=AXIS2_PLACEMENT_3D('',#964,#769,#770);
#638=AXIS2_PLACEMENT_3D('',#968,#772,#773);
#639=AXIS2_PLACEMENT_3D('',#972,#775,#776);
#640=AXIS2_PLACEMENT_3D('',#973,#777,#778);
#641=AXIS2_PLACEMENT_3D('',#974,#779,#780);
#642=AXIS2_PLACEMENT_3D('',#975,#781,#782);
#643=AXIS2_PLACEMENT_3D('',#976,#783,#784);
#644=AXIS2_PLACEMENT_3D('',#977,#785,#786);
#645=AXIS2_PLACEMENT_3D('',#980,#789,#790);
#646=AXIS2_PLACEMENT_3D('',#983,#793,#794);
#647=AXIS2_PLACEMENT_3D('',#986,#797,#798);
#648=AXIS2_PLACEMENT_3D('',#989,#801,#802);
#649=AXIS2_PLACEMENT_3D('',#991,#804,#805);
#650=AXIS2_PLACEMENT_3D('',#992,#806,#807);
#651=AXIS2_PLACEMENT_3D('',#993,#808,#809);
#652=AXIS2_PLACEMENT_3D('',#995,#810,#811);
#653=AXIS2_PLACEMENT_3D('',#996,#812,#813);
#654=AXIS2_PLACEMENT_3D('',#998,#814,#815);
#655=AXIS2_PLACEMENT_3D('',#999,#816,#817);
#656=AXIS2_PLACEMENT_3D('',#1000,#818,#819);
#657=AXIS2_PLACEMENT_3D('',#1001,#820,#821);
#658=AXIS2_PLACEMENT_3D('',#1002,#822,#823);
#659=AXIS2_PLACEMENT_3D('',#1003,#824,#825);
#660=AXIS2_PLACEMENT_3D('',#1004,#826,#827);
#661=AXIS2_PLACEMENT_3D('',#1006,#828,#829);
#662=AXIS2_PLACEMENT_3D('',#1007,#830,#831);
#663=AXIS2_PLACEMENT_3D('',#1009,#832,#833);
#664=AXIS2_PLACEMENT_3D('',#1010,#834,#835);
#665=AXIS2_PLACEMENT_3D('',#1011,#836,#837);
#666=AXIS2_PLACEMENT_3D('',#1013,#838,#839);
#667=AXIS2_PLACEMENT_3D('',#1014,#840,#841);
#668=AXIS2_PLACEMENT_3D('',#1016,#842,#843);
#669=AXIS2_PLACEMENT_3D('',#1017,#844,#845);
#670=AXIS2_PLACEMENT_3D('',#1018,#846,#847);
#671=AXIS2_PLACEMENT_3D('',#1020,#848,#849);
#672=AXIS2_PLACEMENT_3D('',#1021,#850,#851);
#673=AXIS2_PLACEMENT_3D('',#1023,#852,#853);
#674=AXIS2_PLACEMENT_3D('',#1024,#854,#855);
#675=AXIS2_PLACEMENT_3D('',#1025,#856,#857);
#676=AXIS2_PLACEMENT_3D('',#1027,#858,#859);
#677=AXIS2_PLACEMENT_3D('',#1028,#860,#861);
#678=AXIS2_PLACEMENT_3D('',#1030,#862,#863);
#679=DIRECTION('',(0.,0.,1.));
#680=DIRECTION('',(1.,0.,0.));
#681=DIRECTION('',(1.,0.,0.));
#682=DIRECTION('',(0.,0.,-1.));
#683=DIRECTION('',(-1.,0.,0.));
#684=DIRECTION('',(0.,0.,-1.));
#685=DIRECTION('',(1.,0.,0.));
#686=DIRECTION('',(0.,0.,1.));
#687=DIRECTION('',(1.,0.,0.));
#688=DIRECTION('',(0.,0.,-1.));
#689=DIRECTION('',(-1.,0.,0.));
#690=DIRECTION('',(0.,0.,-1.));
#691=DIRECTION('',(-1.,0.,0.));
#692=DIRECTION('',(0.,0.,-1.));
#693=DIRECTION('',(1.,0.,0.));
#694=DIRECTION('',(0.,-1.,0.));
#695=DIRECTION('',(0.,-1.,0.));
#696=DIRECTION('',(0.,0.,-1.));
#697=DIRECTION('',(1.,0.,0.));
#698=DIRECTION('',(0.,0.,-1.));
#699=DIRECTION('',(1.,0.,0.));
#700=DIRECTION('',(0.,0.,-1.));
#701=DIRECTION('',(-1.,0.,0.));
#702=DIRECTION('',(0.,-1.,0.));
#703=DIRECTION('',(-1.,0.,0.));
#704=DIRECTION('',(0.,0.,1.));
#705=DIRECTION('',(0.,-1.,0.));
#706=DIRECTION('',(-1.,0.,0.));
#707=DIRECTION('',(0.,0.,1.));
#708=DIRECTION('',(0.,0.,-1.));
#709=DIRECTION('',(-1.,0.,0.));
#710=DIRECTION('',(0.,0.,1.));
#711=DIRECTION('',(0.,-1.,0.));
#712=DIRECTION('',(-1.,0.,0.));
#713=DIRECTION('',(0.,0.,1.));
#714=DIRECTION('',(0.,0.,1.));
#715=DIRECTION('',(-1.,0.,0.));
#716=DIRECTION('',(0.,0.,1.));
#717=DIRECTION('',(0.,-0.707106781186548,-0.707106781186547));
#718=DIRECTION('',(0.,0.707106781186548,-0.707106781186548));
#719=DIRECTION('',(0.,0.,-1.));
#720=DIRECTION('',(-1.,0.,0.));
#721=DIRECTION('',(0.,0.,1.));
#722=DIRECTION('',(0.,-1.,0.));
#723=DIRECTION('',(-1.,0.,0.));
#724=DIRECTION('',(0.,0.,1.));
#725=DIRECTION('',(0.,0.,-1.));
#726=DIRECTION('',(-1.,0.,0.));
#727=DIRECTION('',(0.,0.,1.));
#728=DIRECTION('',(0.,-1.,0.));
#729=DIRECTION('',(-1.,0.,0.));
#730=DIRECTION('',(0.,0.,1.));
#731=DIRECTION('',(0.,0.,1.));
#732=DIRECTION('',(1.,0.,0.));
#733=DIRECTION('',(1.,0.,0.));
#734=DIRECTION('',(0.,-1.,0.));
#735=DIRECTION('',(1.,0.,0.));
#736=DIRECTION('',(0.,-1.,0.));
#737=DIRECTION('',(0.,0.,-1.));
#738=DIRECTION('',(1.,0.,0.));
#739=DIRECTION('',(0.,0.,-1.));
#740=DIRECTION('',(1.,0.,0.));
#741=DIRECTION('',(0.,0.,1.));
#742=DIRECTION('',(1.,0.,0.));
#743=DIRECTION('',(0.,-1.,0.));
#744=DIRECTION('',(1.,0.,0.));
#745=DIRECTION('',(1.,0.,0.));
#746=DIRECTION('',(0.,-1.,0.));
#747=DIRECTION('',(0.,0.,-1.));
#748=DIRECTION('',(1.,0.,0.));
#749=DIRECTION('',(0.,0.,-1.));
#750=DIRECTION('',(1.,0.,0.));
#751=DIRECTION('',(1.,0.,0.));
#752=DIRECTION('',(0.,1.,0.));
#753=DIRECTION('',(1.,0.,0.));
#754=DIRECTION('',(0.,0.,-1.));
#755=DIRECTION('',(0.,-0.707106781186548,-0.707106781186547));
#756=DIRECTION('',(1.,0.,0.));
#757=DIRECTION('',(0.,0.,-1.));
#758=DIRECTION('',(1.,0.,0.));
#759=DIRECTION('',(0.,0.,-1.));
#760=DIRECTION('',(1.,0.,0.));
#761=DIRECTION('',(0.,0.,-1.));
#762=DIRECTION('',(1.,0.,0.));
#763=DIRECTION('',(0.,0.,-1.));
#764=DIRECTION('',(0.,0.707106781186547,-0.707106781186548));
#765=DIRECTION('',(0.,0.,-1.));
#766=DIRECTION('',(1.,0.,0.));
#767=DIRECTION('',(0.,0.,-1.));
#768=DIRECTION('',(0.,-1.,0.));
#769=DIRECTION('',(1.,0.,0.));
#770=DIRECTION('',(0.,0.,-1.));
#771=DIRECTION('',(0.,0.,1.));
#772=DIRECTION('',(1.,0.,0.));
#773=DIRECTION('',(0.,0.,-1.));
#774=DIRECTION('',(0.,-1.,0.));
#775=DIRECTION('',(1.,0.,0.));
#776=DIRECTION('',(0.,0.,-1.));
#777=DIRECTION('',(-1.,0.,0.));
#778=DIRECTION('',(0.,0.,1.));
#779=DIRECTION('',(1.,0.,0.));
#780=DIRECTION('',(0.,0.,-1.));
#781=DIRECTION('',(1.,0.,0.));
#782=DIRECTION('',(0.,0.,-1.));
#783=DIRECTION('',(-1.,0.,0.));
#784=DIRECTION('',(0.,0.,1.));
#785=DIRECTION('',(0.,-1.,0.));
#786=DIRECTION('',(0.,0.,-1.));
#787=DIRECTION('',(1.,0.,0.));
#788=DIRECTION('',(1.,0.,0.));
#789=DIRECTION('',(0.,0.,1.));
#790=DIRECTION('',(1.,0.,0.));
#791=DIRECTION('',(1.,0.,0.));
#792=DIRECTION('',(1.,0.,0.));
#793=DIRECTION('',(0.,0.,1.));
#794=DIRECTION('',(1.,0.,0.));
#795=DIRECTION('',(1.,0.,0.));
#796=DIRECTION('',(1.,0.,0.));
#797=DIRECTION('',(0.,1.,0.));
#798=DIRECTION('',(0.,0.,1.));
#799=DIRECTION('',(1.,0.,0.));
#800=DIRECTION('',(1.,0.,0.));
#801=DIRECTION('',(0.,-0.707106781186547,0.707106781186548));
#802=DIRECTION('',(0.,-0.707106781186548,-0.707106781186547));
#803=DIRECTION('',(1.,0.,0.));
#804=DIRECTION('',(0.,-0.707106781186548,-0.707106781186548));
#805=DIRECTION('',(0.,0.707106781186548,-0.707106781186548));
#806=DIRECTION('',(1.,0.,0.));
#807=DIRECTION('',(0.,0.,-1.));
#808=DIRECTION('',(1.,0.,0.));
#809=DIRECTION('',(0.,0.,-1.));
#810=DIRECTION('',(1.,0.,0.));
#811=DIRECTION('',(0.,1.,0.));
#812=DIRECTION('',(1.,0.,0.));
#813=DIRECTION('',(0.,0.,-1.));
#814=DIRECTION('',(1.,0.,0.));
#815=DIRECTION('',(0.,0.,-1.));
#816=DIRECTION('',(1.,0.,0.));
#817=DIRECTION('',(0.,0.,-1.));
#818=DIRECTION('',(-1.,0.,0.));
#819=DIRECTION('',(0.,0.,1.));
#820=DIRECTION('',(1.,0.,0.));
#821=DIRECTION('',(0.,0.,-1.));
#822=DIRECTION('',(-1.,0.,0.));
#823=DIRECTION('',(0.,0.,1.));
#824=DIRECTION('',(1.,0.,0.));
#825=DIRECTION('',(0.,1.,0.));
#826=DIRECTION('',(-1.,0.,0.));
#827=DIRECTION('',(0.,0.,1.));
#828=DIRECTION('',(1.,0.,0.));
#829=DIRECTION('',(0.,0.,-1.));
#830=DIRECTION('',(-1.,0.,0.));
#831=DIRECTION('',(0.,0.,1.));
#832=DIRECTION('',(-1.,0.,0.));
#833=DIRECTION('',(0.,-1.,0.));
#834=DIRECTION('',(1.,0.,0.));
#835=DIRECTION('',(0.,1.,0.));
#836=DIRECTION('',(-1.,0.,0.));
#837=DIRECTION('',(0.,0.,1.));
#838=DIRECTION('',(1.,0.,0.));
#839=DIRECTION('',(0.,0.,-1.));
#840=DIRECTION('',(-1.,0.,0.));
#841=DIRECTION('',(0.,0.,1.));
#842=DIRECTION('',(-1.,0.,0.));
#843=DIRECTION('',(0.,-1.,0.));
#844=DIRECTION('',(-1.,0.,0.));
#845=DIRECTION('',(0.,-1.,0.));
#846=DIRECTION('',(1.,0.,0.));
#847=DIRECTION('',(0.,0.,1.));
#848=DIRECTION('',(1.,0.,0.));
#849=DIRECTION('',(0.,1.,0.));
#850=DIRECTION('',(1.,0.,0.));
#851=DIRECTION('',(0.,0.,1.));
#852=DIRECTION('',(1.,0.,0.));
#853=DIRECTION('',(0.,0.,-1.));
#854=DIRECTION('',(-1.,0.,0.));
#855=DIRECTION('',(0.,-1.,0.));
#856=DIRECTION('',(1.,0.,0.));
#857=DIRECTION('',(0.,0.,1.));
#858=DIRECTION('',(1.,0.,0.));
#859=DIRECTION('',(0.,1.,0.));
#860=DIRECTION('',(1.,0.,0.));
#861=DIRECTION('',(0.,0.,1.));
#862=DIRECTION('',(1.,0.,0.));
#863=DIRECTION('',(0.,0.,-1.));
#864=CARTESIAN_POINT('',(0.,0.,0.));
#865=CARTESIAN_POINT('',(0.108798,-0.025500000000034,-0.0096));
#866=CARTESIAN_POINT('',(0.1092,-0.025500000000034,-0.0096));
#867=CARTESIAN_POINT('',(0.1092,-0.025500000000034,-0.0111));
#868=CARTESIAN_POINT('',(0.1088,-0.025500000000034,-0.0096));
#869=CARTESIAN_POINT('',(0.1088,-0.025500000000034,-0.0081));
#870=CARTESIAN_POINT('',(0.1092,-0.025500000000034,-0.0096));
#871=CARTESIAN_POINT('',(0.1092,-0.025500000000034,-0.0096));
#872=CARTESIAN_POINT('',(0.1092,-0.025500000000034,-0.0126));
#873=CARTESIAN_POINT('',(0.1104,-0.025500000000034,-0.0096));
#874=CARTESIAN_POINT('',(0.1104,-0.025500000000034,-0.0126));
#875=CARTESIAN_POINT('',(0.1092,-0.0591,-0.0066));
#876=CARTESIAN_POINT('',(0.1101,-0.021000000000034,-0.0066));
#877=CARTESIAN_POINT('',(0.108798,-0.021000000000034,-0.0056));
#878=CARTESIAN_POINT('',(0.1088,-0.021000000000034,-0.0056));
#879=CARTESIAN_POINT('',(0.1104,-0.021000000000034,-0.0056));
#880=CARTESIAN_POINT('',(0.1088,-0.021000000000034,-0.0066));
#881=CARTESIAN_POINT('',(0.1088,-0.021000000000034,-0.0004));
#882=CARTESIAN_POINT('',(0.1104,-0.021000000000034,-0.0004));
#883=CARTESIAN_POINT('',(0.1104,-0.021000000000034,-0.0004));
#884=CARTESIAN_POINT('',(0.1104,-0.021000000000034,-0.0066));
#885=CARTESIAN_POINT('',(0.1088,-0.0591,-0.0066));
#886=CARTESIAN_POINT('',(0.1088,-0.092699999999966,-0.0096));
#887=CARTESIAN_POINT('',(0.1088,-0.092699999999966,-0.0081));
#888=CARTESIAN_POINT('',(0.1088,-0.0590681910869677,-0.0047));
#889=CARTESIAN_POINT('',(0.1088,-0.0529681921739005,-0.0047));
#890=CARTESIAN_POINT('',(0.1088,-0.065168190000035,-0.0047));
#891=CARTESIAN_POINT('',(0.1088,-0.065168190000035,-0.0051));
#892=CARTESIAN_POINT('',(0.1088,-0.065568190000035,-0.0051));
#893=CARTESIAN_POINT('',(0.1088,-0.065568190000035,-0.007497599));
#894=CARTESIAN_POINT('',(0.1088,-0.065568190000035,-0.009895198));
#895=CARTESIAN_POINT('',(0.1088,-0.065168190000035,-0.009895198));
#896=CARTESIAN_POINT('',(0.1088,-0.065168190000035,-0.010295198));
#897=CARTESIAN_POINT('',(0.1088,-0.0590681910869677,-0.010295198));
#898=CARTESIAN_POINT('',(0.1088,-0.0529681921739005,-0.010295198));
#899=CARTESIAN_POINT('',(0.1088,-0.0529681921739005,-0.009895198));
#900=CARTESIAN_POINT('',(0.1088,-0.0525681921739005,-0.009895198));
#901=CARTESIAN_POINT('',(0.1088,-0.0525681921739005,-0.007497599));
#902=CARTESIAN_POINT('',(0.1088,-0.0525681921739005,-0.0051));
#903=CARTESIAN_POINT('',(0.1088,-0.0529681921739005,-0.0051));
#904=CARTESIAN_POINT('',(0.1088,-0.021500000000034,-0.0061));
#905=CARTESIAN_POINT('',(0.1088,-0.022000000000034,-0.0066));
#906=CARTESIAN_POINT('',(0.1088,-0.021500000000034,-0.0071));
#907=CARTESIAN_POINT('',(0.1088,-0.021000000000034,-0.0076));
#908=CARTESIAN_POINT('',(0.1088,-0.021000000000034,-0.0066));
#909=CARTESIAN_POINT('',(0.1088,-0.021000000000034,-0.0128));
#910=CARTESIAN_POINT('',(0.1088,-0.021400000000034,-0.0128));
#911=CARTESIAN_POINT('',(0.1088,-0.021400000000034,-0.0132));
#912=CARTESIAN_POINT('',(0.1088,-0.097,-0.0132));
#913=CARTESIAN_POINT('',(0.1088,-0.096799999999966,-0.0132));
#914=CARTESIAN_POINT('',(0.1088,-0.096799999999966,-0.0128));
#915=CARTESIAN_POINT('',(0.1088,-0.097199999999966,-0.0128));
#916=CARTESIAN_POINT('',(0.1088,-0.097199999999966,-0.0066));
#917=CARTESIAN_POINT('',(0.1088,-0.097199999999966,-0.0004));
#918=CARTESIAN_POINT('',(0.1088,-0.096799999999966,-0.0004));
#919=CARTESIAN_POINT('',(0.1088,-0.096799999999966,0.));
#920=CARTESIAN_POINT('',(0.1088,-0.0212000000000345,0.));
#921=CARTESIAN_POINT('',(0.1088,-0.021400000000034,0.));
#922=CARTESIAN_POINT('',(0.1088,-0.021400000000034,-0.0004));
#923=CARTESIAN_POINT('',(0.1101,-0.0212000000000345,0.));
#924=CARTESIAN_POINT('',(0.1101,-0.096799999999966,0.));
#925=CARTESIAN_POINT('',(0.1104,-0.096799999999966,0.));
#926=CARTESIAN_POINT('',(0.1104,-0.0212000000000345,0.));
#927=CARTESIAN_POINT('',(0.1104,-0.021400000000034,0.));
#928=CARTESIAN_POINT('',(0.1088,-0.021400000000034,0.));
#929=CARTESIAN_POINT('',(0.1101,-0.097199999999966,-0.0066));
#930=CARTESIAN_POINT('',(0.1104,-0.097199999999966,-0.0128));
#931=CARTESIAN_POINT('',(0.1104,-0.097199999999966,-0.0128));
#932=CARTESIAN_POINT('',(0.1104,-0.097199999999966,-0.0066));
#933=CARTESIAN_POINT('',(0.1104,-0.097199999999966,-0.0004));
#934=CARTESIAN_POINT('',(0.1101,-0.097199999999966,-0.0004));
#935=CARTESIAN_POINT('',(0.1101,-0.097,-0.0132));
#936=CARTESIAN_POINT('',(0.1104,-0.097,-0.0132));
#937=CARTESIAN_POINT('',(0.1104,-0.021400000000034,-0.0132));
#938=CARTESIAN_POINT('',(0.1104,-0.096799999999966,-0.0132));
#939=CARTESIAN_POINT('',(0.1088,-0.096799999999966,-0.0132));
#940=CARTESIAN_POINT('',(0.1101,-0.021400000000034,-0.0132));
#941=CARTESIAN_POINT('',(0.1101,-0.021000000000034,-0.0066));
#942=CARTESIAN_POINT('',(0.108798,-0.021000000000034,-0.0076));
#943=CARTESIAN_POINT('',(0.1104,-0.021000000000034,-0.0076));
#944=CARTESIAN_POINT('',(0.1104,-0.021000000000034,-0.0066));
#945=CARTESIAN_POINT('',(0.1104,-0.021000000000034,-0.0128));
#946=CARTESIAN_POINT('',(0.1101,-0.021000000000034,-0.0128));
#947=CARTESIAN_POINT('',(0.1104,-0.0591,-0.0066));
#948=CARTESIAN_POINT('',(0.1104,-0.092699999999966,-0.0096));
#949=CARTESIAN_POINT('',(0.1104,-0.092699999999966,-0.0126));
#950=CARTESIAN_POINT('',(0.1104,-0.021500000000034,-0.0061));
#951=CARTESIAN_POINT('',(0.1104,-0.022000000000034,-0.0066));
#952=CARTESIAN_POINT('',(0.1104,-0.021400000000034,-0.0004));
#953=CARTESIAN_POINT('',(0.1104,-0.096799999999966,-0.0004));
#954=CARTESIAN_POINT('',(0.1104,-0.096799999999966,-0.0128));
#955=CARTESIAN_POINT('',(0.1104,-0.021400000000034,-0.0128));
#956=CARTESIAN_POINT('',(0.1104,-0.021500000000034,-0.0071));
#957=CARTESIAN_POINT('',(0.1104,-0.065568190000035,-0.007497599));
#958=CARTESIAN_POINT('',(0.1104,-0.065568190000035,-0.0051));
#959=CARTESIAN_POINT('',(0.1104,-0.065568190000035,-0.009895198));
#960=CARTESIAN_POINT('',(0.1104,-0.065168190000035,-0.0051));
#961=CARTESIAN_POINT('',(0.1104,-0.065168190000035,-0.0047));
#962=CARTESIAN_POINT('',(0.1104,-0.0590681910869677,-0.0047));
#963=CARTESIAN_POINT('',(0.1104,-0.0529681921739005,-0.0047));
#964=CARTESIAN_POINT('',(0.1104,-0.0529681921739005,-0.0051));
#965=CARTESIAN_POINT('',(0.1104,-0.0525681921739005,-0.0051));
#966=CARTESIAN_POINT('',(0.1104,-0.0525681921739005,-0.007497599));
#967=CARTESIAN_POINT('',(0.1104,-0.0525681921739005,-0.009895198));
#968=CARTESIAN_POINT('',(0.1104,-0.0529681921739005,-0.009895198));
#969=CARTESIAN_POINT('',(0.1104,-0.0529681921739005,-0.010295198));
#970=CARTESIAN_POINT('',(0.1104,-0.0590681910869677,-0.010295198));
#971=CARTESIAN_POINT('',(0.1104,-0.065168190000035,-0.010295198));
#972=CARTESIAN_POINT('',(0.1104,-0.065168190000035,-0.009895198));
#973=CARTESIAN_POINT('',(0.1101,-0.096799999999966,-0.0128));
#974=CARTESIAN_POINT('',(0.1101,-0.096799999999966,-0.0004));
#975=CARTESIAN_POINT('',(0.1101,-0.021400000000034,-0.0128));
#976=CARTESIAN_POINT('',(0.1101,-0.021400000000034,-0.0004));
#977=CARTESIAN_POINT('',(0.108798,-0.065568190000035,-0.007497599));
#978=CARTESIAN_POINT('',(0.108798,-0.065568190000035,-0.009895198));
#979=CARTESIAN_POINT('',(0.1104,-0.065568190000035,-0.0051));
#980=CARTESIAN_POINT('',(0.108798,-0.0590681910869677,-0.0047));
#981=CARTESIAN_POINT('',(0.1104,-0.0529681921739005,-0.0047));
#982=CARTESIAN_POINT('',(0.1088,-0.065168190000035,-0.0047));
#983=CARTESIAN_POINT('',(0.108798,-0.0590681910869677,-0.010295198));
#984=CARTESIAN_POINT('',(0.108798,-0.0529681921739005,-0.010295198));
#985=CARTESIAN_POINT('',(0.108798,-0.065168190000035,-0.010295198));
#986=CARTESIAN_POINT('',(0.108798,-0.0525681921739005,-0.007497599));
#987=CARTESIAN_POINT('',(0.108798,-0.0525681921739005,-0.009895198));
#988=CARTESIAN_POINT('',(0.1088,-0.0525681921739005,-0.0051));
#989=CARTESIAN_POINT('',(0.108798,-0.021500000000034,-0.0061));
#990=CARTESIAN_POINT('',(0.108798,-0.022000000000034,-0.0066));
#991=CARTESIAN_POINT('',(0.108798,-0.021500000000034,-0.0071));
#992=CARTESIAN_POINT('',(0.1092,-0.092699999999966,-0.0096));
#993=CARTESIAN_POINT('',(0.1092,-0.092699999999966,-0.0096));
#994=CARTESIAN_POINT('',(0.1092,-0.092699999999966,-0.0126));
#995=CARTESIAN_POINT('',(0.1092,-0.0591,-0.0066));
#996=CARTESIAN_POINT('',(0.1092,-0.092699999999966,-0.0096));
#997=CARTESIAN_POINT('',(0.1092,-0.092699999999966,-0.0111));
#998=CARTESIAN_POINT('',(0.108798,-0.092699999999966,-0.0096));
#999=CARTESIAN_POINT('',(0.108798,-0.0529681921739005,-0.009895198));
#1000=CARTESIAN_POINT('',(0.108798,-0.0529681921739005,-0.0051));
#1001=CARTESIAN_POINT('',(0.108798,-0.065168190000035,-0.009895198));
#1002=CARTESIAN_POINT('',(0.108798,-0.065168190000035,-0.0051));
#1003=CARTESIAN_POINT('',(0.1101,-0.0591,-0.0066));
#1004=CARTESIAN_POINT('',(0.1101,-0.0716,-0.0035));
#1005=CARTESIAN_POINT('',(0.1101,-0.0716,-0.00075));
#1006=CARTESIAN_POINT('',(0.1091,-0.0716,-0.0035));
#1007=CARTESIAN_POINT('',(0.1091,-0.0716,-0.0035));
#1008=CARTESIAN_POINT('',(0.1091,-0.0716,-0.00075));
#1009=CARTESIAN_POINT('',(0.1091,-0.0591,-0.0066));
#1010=CARTESIAN_POINT('',(0.1101,-0.0591,-0.0066));
#1011=CARTESIAN_POINT('',(0.1101,-0.0716,-0.0097));
#1012=CARTESIAN_POINT('',(0.1101,-0.0716,-0.00695));
#1013=CARTESIAN_POINT('',(0.1091,-0.0716,-0.0097));
#1014=CARTESIAN_POINT('',(0.1091,-0.0716,-0.0097));
#1015=CARTESIAN_POINT('',(0.1091,-0.0716,-0.00695));
#1016=CARTESIAN_POINT('',(0.1091,-0.0591,-0.0066));
#1017=CARTESIAN_POINT('',(0.1091,-0.0591,-0.0066));
#1018=CARTESIAN_POINT('',(0.1091,-0.0466,-0.0097));
#1019=CARTESIAN_POINT('',(0.1091,-0.0466,-0.00695));
#1020=CARTESIAN_POINT('',(0.1101,-0.0591,-0.0066));
#1021=CARTESIAN_POINT('',(0.1101,-0.0466,-0.0097));
#1022=CARTESIAN_POINT('',(0.1101,-0.0466,-0.00695));
#1023=CARTESIAN_POINT('',(0.1091,-0.0466,-0.0097));
#1024=CARTESIAN_POINT('',(0.1091,-0.0591,-0.0066));
#1025=CARTESIAN_POINT('',(0.1091,-0.0466,-0.0035));
#1026=CARTESIAN_POINT('',(0.1091,-0.0466,-0.00075));
#1027=CARTESIAN_POINT('',(0.1101,-0.0591,-0.0066));
#1028=CARTESIAN_POINT('',(0.1101,-0.0466,-0.0035));
#1029=CARTESIAN_POINT('',(0.1101,-0.0466,-0.00075));
#1030=CARTESIAN_POINT('',(0.1091,-0.0466,-0.0035));
#1031=MECHANICAL_DESIGN_GEOMETRIC_PRESENTATION_REPRESENTATION('',(#596),#1032);
#1032=(
GEOMETRIC_REPRESENTATION_CONTEXT(3)
GLOBAL_UNCERTAINTY_ASSIGNED_CONTEXT((#1033))
GLOBAL_UNIT_ASSIGNED_CONTEXT((#1036,#1035,#1034))
REPRESENTATION_CONTEXT('mods_core_side_r','TOP_LEVEL_ASSEMBLY_PART')
);
#1033=UNCERTAINTY_MEASURE_WITH_UNIT(LENGTH_MEASURE(1.E-08),#1036,'DISTANCE_ACCURACY_VALUE','Maximum Tolerance applied to model');
#1034=(
NAMED_UNIT(*)
SI_UNIT($,.STERADIAN.)
SOLID_ANGLE_UNIT()
);
#1035=(
NAMED_UNIT(*)
PLANE_ANGLE_UNIT()
SI_UNIT($,.RADIAN.)
);
#1036=(
LENGTH_UNIT()
NAMED_UNIT(*)
SI_UNIT($,.METRE.)
);
#1037=PRODUCT_DEFINITION_SHAPE('','',#1038);
#1038=PRODUCT_DEFINITION('','',#1040,#1039);
#1039=PRODUCT_DEFINITION_CONTEXT('',#1046,'design');
#1040=PRODUCT_DEFINITION_FORMATION_WITH_SPECIFIED_SOURCE('','',#1042,.NOT_KNOWN.);
#1041=PRODUCT_RELATED_PRODUCT_CATEGORY('','',(#1042));
#1042=PRODUCT('mods_core_side_r','mods_core_side_r','mods_core_side_r',(#1044));
#1043=PRODUCT_CATEGORY('','');
#1044=PRODUCT_CONTEXT('',#1046,'mechanical');
#1045=APPLICATION_PROTOCOL_DEFINITION('international standard','ap242_managed_model_based_3d_engineering',2020,#1046);
#1046=APPLICATION_CONTEXT('managed model based 3d engineering');
ENDSEC;
END-ISO-10303-21;
